<?xml version="1.0" encoding="UTF-8"?>
<svg width="273px" height="273px" viewBox="0 0 273 273" version="1.1" xmlns="http://www.w3.org/2000/svg" xmlns:xlink="http://www.w3.org/1999/xlink">
    <!-- Generator: Sketch 52.6 (67491) - http://www.bohemiancoding.com/sketch -->
    <title>Empty states</title>
    <desc>Created with Sketch.</desc>
    <defs>
        <path d="M0,136.130081 C0,211.312705 61.1130762,272.260163 136.5,272.260163 C211.886924,272.260163 273,211.312705 273,136.130081 C273,60.9474581 211.886924,0 136.5,0 C61.1130762,0 0,60.9474581 0,136.130081" id="path-1"></path>
        <polygon id="path-3" points="0.380166911 0.768435051 0.380166911 0.0325967734 0.368656641 0.0325967734 0.368656641 0.768435051 0.380166911 0.768435051"></polygon>
        <polygon id="path-5" points="0.348788628 0.768435051 0.348788628 0.0325967734 0.335064844 0.0325967734 0.335064844 0.768435051 0.348788628 0.768435051"></polygon>
        <polygon id="path-7" points="0.106996664 16.1654695 13.8089958 16.1654695 13.8089958 0.215851558 0.106996664 0.215851558"></polygon>
    </defs>
    <g id="Page-1" stroke="none" stroke-width="1" fill="none" fill-rule="evenodd">
        <g id="Illustrations" transform="translate(-101.000000, -798.000000)">
            <g id="Empty-states" transform="translate(101.000000, 798.000000)">
                <g id="Group" transform="translate(0.000000, 0.487805)">
                    <mask id="mask-2" fill="white">
                        <use xlink:href="#path-1"></use>
                    </mask>
                    <use id="Mask" fill="#7F945C" xlink:href="#path-1"></use>
                    <path d="M130.699337,183.360229 C107.871311,183.360229 89.1948053,180.482886 89.1948053,202.965088 L89.1948053,263.858756 C103.933606,269.290134 119.868381,272.260003 136.500053,272.260003 C151.563042,272.260003 166.053903,269.820297 179.603661,265.326409 L179.603661,202.965088 C179.603661,180.482886 160.927155,183.360229 138.099129,183.360229 L130.699337,183.360229 Z" id="Fill-3" fill="#384668" mask="url(#mask-2)"></path>
                </g>
                <g id="Group-3" transform="translate(4.937500, 33.000000)">
                    <g id="Page-1" transform="translate(0.312500, 0.211382)">
                        <g id="Group-15" transform="translate(82.687500, 149.219512)"></g>
                        <g id="Group-18" transform="translate(161.109375, 182.024898)">
                            <mask id="mask-4" fill="white">
                                <use xlink:href="#path-3"></use>
                            </mask>
                            <g id="Clip-17"></g>
                            <polyline id="Fill-16" fill="#2E1F45" mask="url(#mask-4)" points="0.378248532 0.0325967734 0.368656641 0.399640609 0.378248532 0.768435051"></polyline>
                        </g>
                        <g id="Group-21" transform="translate(86.994141, 182.024898)">
                            <mask id="mask-6" fill="white">
                                <use xlink:href="#path-5"></use>
                            </mask>
                            <g id="Clip-20"></g>
                            <polyline id="Fill-19" fill="#2E1F45" mask="url(#mask-6)" points="0.335064844 0.0325967734 0.335064844 0.768435051 0.346870249 0.401391215"></polyline>
                        </g>
                        <g id="Group-71" transform="translate(0.656250, 0.000000)">
                            <path d="M70.089842,215.163321 C69.6739436,215.163321 69.2575119,215.150027 68.8389475,215.122907 C62.3626623,214.70654 50.439174,210.614662 43.233467,187.923479 L27.5626271,143.929001 C25.8542443,139.133075 28.3677639,133.864415 33.1767229,132.160662 C37.9872814,130.455314 43.2691916,132.964149 44.9770412,137.759544 L60.810508,182.228881 C64.1920822,192.955506 68.480635,196.630486 70.0274572,196.730457 C70.8853811,196.803839 73.3498459,195.296837 75.7071369,190.39509 L87.3762873,157.529779 C89.0793381,152.732257 94.360715,150.219168 99.1712736,151.918667 C103.981832,153.617635 106.500684,158.884167 104.7971,163.681689 L92.8309553,197.383456 L92.6501994,197.773234 C87.5570432,208.751381 79.1926857,215.163321 70.089842,215.163321" id="Fill-62" fill="#384668"></path>
                            <path d="M167.19093,198.008218 L154.98591,164.297943 C153.235404,159.46373 155.746258,154.130196 160.593074,152.384434 C165.439891,150.639204 170.788451,153.143253 172.538957,157.976935 L187.059186,194.758972 C189.386084,199.497468 192.473303,205.180564 196.579495,194.758972 C200.685686,184.33738 204.136036,164.853294 206.398791,157.814094 L216.583467,157.814094 L224.115531,163.666092 C220.262668,175.56281 216.408251,200.367161 209.023791,210.700457 C205.043874,216.269674 198.583575,221.625689 198.583575,221.625689 C198.583575,221.625689 192.572493,224.432148 185.903088,221.625689 C179.938579,219.115848 175.081807,211.668613 174.97541,211.544947 C170.886561,206.792436 167.19093,198.008218 167.19093,198.008218 Z" id="Fill-54" fill="#384668"></path>
                            <g id="клетка" transform="translate(32.156250, 85.081301)">
                                <path d="M68.5625386,65.989756 C68.5625386,65.989756 69.5971594,65.805512 70.4889862,65.7260706 C71.3291582,65.6512304 73.758535,65.5269113 73.758535,65.5269113 L73.758535,152.196452 L68.5625386,151.293931 L68.5625386,65.989756 Z" id="Rectangle-14" fill="#2B5773"></path>
                                <polygon id="Rectangle-14" fill="#2B5773" points="85.364662 0.117307055 90.6401743 51.0487805 90.6401743 154.28709 85.364662 153.872273"></polygon>
                                <polygon id="Rectangle-14" fill="#2B5773" points="102.375 26.1788618 107.650512 26.1788618 107.650512 154.19539 102.375 154.452412"></polygon>
                                <path d="M17.8381051,66.5642091 L23.1136174,81.8206991 L23.1136174,123.885371 C23.1136174,123.885371 21.1280545,121.935319 20.1537586,120.782595 C19.3695504,119.854771 17.8381051,117.643726 17.8381051,117.643726 L17.8381051,66.5642091 Z" id="Rectangle-14" fill="#2B5773"></path>
                                <path d="M34.7197443,111.260163 L39.9952566,111.260163 L39.9952566,129.854603 C39.9952566,129.854603 39.3147066,130.127937 38.4261276,130.127937 C37.5562025,130.127937 34.7197443,129.854603 34.7197443,129.854603 L34.7197443,111.260163 Z" id="Rectangle-14" fill="#2B5773"></path>
                                <path d="M51.6013836,79.7975117 C51.6013836,79.7975117 52.2775299,76.4384729 53.0203708,74.921976 C53.4423437,74.0605256 53.8858378,73.2313687 54.2391397,72.7491708 C55.0223896,71.6801658 56.8768958,69.5998424 56.8768958,69.5998424 L56.8768958,148.02054 L51.6013836,146.247819 L51.6013836,79.7975117 Z" id="Rectangle-14" fill="#2B5773"></path>
                                <polygon id="Rectangle-14" fill="#2B5773" points="119.12794 65.4787704 124.403453 65.8508798 124.403453 152.027484 119.12794 152.92165"></polygon>
                                <path d="M136.00958,67.9022238 C136.00958,67.9022238 138.198126,68.888495 139.204109,70.656655 C140.131844,72.2872819 141.285092,75.0842945 141.285092,75.0842945 L141.285092,147.687098 L136.00958,149.209636 L136.00958,67.9022238 Z" id="Rectangle-14" fill="#2B5773"></path>
                                <path d="M152.891219,111.926104 L156.194025,112.254481 C156.194025,112.254481 156.63773,113.283113 156.969384,113.726761 C157.295299,114.162732 158.166731,114.89334 158.166731,114.89334 L158.166731,137.70079 C158.166731,137.70079 155.947161,137.246822 154.9501,136.895261 C154.188657,136.626778 152.891219,135.929702 152.891219,135.929702 L152.891219,111.926104 Z" id="Rectangle-14" fill="#2B5773"></path>
                                <path d="M169.772858,91.2171654 C169.772858,91.2171654 172.328294,80.2533215 173.369795,77.2348359 C174.086798,75.1568122 175.04837,75.9276373 175.04837,75.9276373 L175.04837,84.3558092 L175.04837,127.930813 L169.772858,133.57201 L169.772858,91.2171654 Z" id="Rectangle-14" fill="#2B5773"></path>
                                <polygon id="Rectangle-14" fill="#2B5773" points="186.654497 62.3626985 191.93001 62.3626985 189.930589 85.487296 186.226162 100.638495"></polygon>
                                <polygon id="Rectangle-14" fill="#BC6868" transform="translate(9.870973, 61.560357) rotate(-90.000000) translate(-9.870973, -61.560357) " points="7.23321643 54.5506293 12.5087287 54.5506293 12.5087287 66.750727 7.23321643 68.5700838"></polygon>
                                <path d="M94.6102229,31.9612695 C94.6102229,31.9612695 96.4139878,32.2006654 97.247979,32.4330291 C98.1724919,32.6906136 99.8857352,33.4311141 99.8857352,33.4311141 L99.8857352,121.4886 L94.6102229,123.194723 L94.6102229,31.9612695 Z" id="Rectangle-14" fill="#7F3737" transform="translate(97.247979, 77.577996) rotate(-90.000000) translate(-97.247979, -77.577996) "></path>
                                <polygon id="Rectangle-14" fill="#7F3737" transform="translate(184.870180, 77.577996) rotate(-90.000000) translate(-184.870180, -77.577996) " points="182.232424 66.6705516 187.507936 68.5994165 187.507936 88.4854411 182.232424 86.6535646"></polygon>
                                <polygon id="Rectangle-14" fill="#7F3737" transform="translate(17.634148, 93.595636) rotate(-90.000000) translate(-17.634148, -93.595636) " points="14.9963918 84.6736219 20.271904 82.8536208 20.271904 102.458799 14.9963918 104.337651"></polygon>
                                <polygon id="Rectangle-14" fill="#7F3737" transform="translate(178.790146, 93.595636) rotate(-90.000000) translate(-178.790146, -93.595636) " points="176.152389 83.4837168 181.427902 84.6234837 181.427902 103.707555 176.152389 102.466917"></polygon>
                                <polygon id="Rectangle-14" fill="#7F3737" transform="translate(98.165866, 93.595636) rotate(-90.000000) translate(-98.165866, -93.595636) " points="95.5281098 42.3683692 100.803622 44.1244041 100.803622 142.702713 95.5281098 144.822903"></polygon>
                                <path d="M96.074502,26.16165 L101.350014,24.0765975 L101.350014,44.4799384 C101.350014,44.4799384 97.0665043,46.9398156 97.0665043,49.1988939 C97.0665043,51.6207821 101.350014,54.0755941 101.350014,54.0755941 L101.350014,164.048506 C101.350014,164.048506 96.5676777,166.388942 96.5676777,168.950304 C96.5676777,171.684968 101.350014,174.751764 101.350014,174.751764 L101.350014,195.505124 L95.7183669,193.852862 L96.074502,26.16165 Z" id="Rectangle-14" fill="#7F3737" transform="translate(98.534191, 109.790861) rotate(-90.000000) translate(-98.534191, -109.790861) "></path>
                                <path d="M97.7067497,54.9344275 C97.7067497,54.9344275 99.5053487,51.1642417 100.344506,50.1755895 C101.263853,49.0924618 102.982262,47.7781763 102.982262,47.7781763 L102.982262,203.483655 C102.982262,203.483655 101.146035,202.470698 100.344506,201.908736 C99.3875311,201.23779 97.7067497,199.784929 97.7067497,199.784929 L97.7067497,173.644875 L97.7067497,169.818594 L99.0191798,168.417417 C99.0191798,168.417417 100.43723,167.055994 101.063845,166.80007 C101.437199,166.647583 101.74336,166.79639 102.034274,166.80007 C102.585064,166.807037 102.982262,166.80007 102.982262,166.80007 L97.7067497,166.80007 L97.7067497,76.542444 L100.344506,76.542444 L97.7067497,71.6664203 L97.7067497,54.9344275 Z" id="Rectangle-14" fill="#7F3737" transform="translate(100.344506, 125.630916) rotate(-90.000000) translate(-100.344506, -125.630916) "></path>
                                <polygon id="Rectangle-14" fill="#7F3737" transform="translate(96.334188, 141.648555) rotate(-90.000000) translate(-96.334188, -141.648555) " points="93.6964315 96.5724296 98.9719438 96.5724296 98.9719438 186.724681 93.6964315 186.724681"></polygon>
                                <path d="M34.7197443,109.334922 C34.7197443,109.334922 35.942291,110.659606 37.0237196,111.045591 C38.1051482,111.431577 39.9952566,110.329142 39.9952566,110.329142 L39.9952566,112.116032 L34.7197443,112.116032 L34.7197443,109.334922 Z" id="Rectangle-15" fill="#472727"></path>
                                <rect id="Rectangle-15" fill="#472727" x="34.7197443" y="123.128159" width="5.27551226" height="5.00551242"></rect>
                                <rect id="Rectangle-15" fill="#472727" x="17.8381051" y="91.0928799" width="5.27551226" height="5.00551242"></rect>
                                <polygon id="Rectangle-15" fill="#472727" points="17.8381051 107.11052 23.1136174 107.11052 23.1136174 112.116032 17.8381051 112.116032"></polygon>
                                <polygon id="Rectangle-14" fill="#2B5773" points="0.775605113 51.0487805 6.05111737 51.0487805 6.05111737 88.8142333 0.775605113 74.0645423"></polygon>
                                <rect id="Rectangle-15" fill="#472727" x="0.775605113" y="59.0576004" width="5.27551226" height="5.00551242"></rect>
                                <polygon id="Rectangle-14" fill="#7F3737" transform="translate(11.924758, 77.577996) rotate(-90.000000) translate(-11.924758, -77.577996) " points="9.28700143 68.6576805 14.5625137 66.8886925 14.5625137 86.4391473 9.28700143 88.2673001"></polygon>
                                <polygon id="Rectangle-15" fill="#472727" points="17.8381051 75.0752401 20.8483548 75.0752401 22.6293519 80.0807525 17.8381051 80.0807525"></polygon>
                                <polygon id="Rectangle-15" fill="#472727" points="1.16387269 75.0752401 6.05111737 75.0752401 6.05111737 80.0807525 2.95089855 80.0807525"></polygon>
                                <rect id="Rectangle-15" fill="#472727" x="68.4830228" y="75.0752401" width="5.27551226" height="5.00551242"></rect>
                                <rect id="Rectangle-15" fill="#472727" x="68.4830228" y="91.0928799" width="5.27551226" height="5.00551242"></rect>
                                <polygon id="Rectangle-15" fill="#472727" points="68.4830228 107.11052 73.758535 107.11052 73.758535 112.116032 68.4830228 112.116032"></polygon>
                                <rect id="Rectangle-15" fill="#472727" x="68.4830228" y="123.128159" width="5.27551226" height="5.00551242"></rect>
                                <rect id="Rectangle-15" fill="#472727" x="68.4830228" y="139.145799" width="5.27551226" height="5.00551242"></rect>
                                <path d="M53.0129619,75.0752401 L56.8768958,75.0752401 L56.8768958,80.0807525 L51.6013836,80.0807525 C51.6013836,80.0807525 51.7307394,78.4644874 52.1554389,77.1306808 C52.5801385,75.7968742 53.0129619,75.0752401 53.0129619,75.0752401 Z" id="Rectangle-15" fill="#472727"></path>
                                <rect id="Rectangle-15" fill="#472727" x="51.6013836" y="91.0928799" width="5.27551226" height="5.00551242"></rect>
                                <polygon id="Rectangle-15" fill="#472727" points="51.6013836 107.11052 56.8768958 107.11052 56.8768958 112.116032 51.6013836 112.116032"></polygon>
                                <rect id="Rectangle-15" fill="#472727" x="51.6013836" y="123.128159" width="5.27551226" height="5.00551242"></rect>
                                <rect id="Rectangle-15" fill="#472727" x="51.6013836" y="139.145799" width="5.27551226" height="5.00551242"></rect>
                                <rect id="Rectangle-15" fill="#472727" x="102.246301" y="59.0576004" width="5.27551226" height="5.00551242"></rect>
                                <rect id="Rectangle-15" fill="#472727" x="102.246301" y="75.0752401" width="5.27551226" height="5.00551242"></rect>
                                <rect id="Rectangle-15" fill="#472727" x="102.246301" y="91.0928799" width="5.27551226" height="5.00551242"></rect>
                                <polygon id="Rectangle-15" fill="#472727" points="102.246301 107.11052 107.521813 107.11052 107.521813 112.116032 102.246301 112.116032"></polygon>
                                <rect id="Rectangle-15" fill="#472727" x="102.246301" y="123.128159" width="5.27551226" height="5.00551242"></rect>
                                <rect id="Rectangle-15" fill="#472727" x="102.246301" y="139.145799" width="5.27551226" height="5.00551242"></rect>
                                <rect id="Rectangle-15" fill="#472727" x="85.364662" y="59.0576004" width="5.27551226" height="5.00551242"></rect>
                                <rect id="Rectangle-15" fill="#472727" x="85.364662" y="75.0752401" width="5.27551226" height="5.00551242"></rect>
                                <rect id="Rectangle-15" fill="#472727" x="85.364662" y="91.0928799" width="5.27551226" height="5.00551242"></rect>
                                <polygon id="Rectangle-15" fill="#472727" points="85.364662 107.11052 90.6401743 107.11052 90.6401743 112.116032 85.364662 112.116032"></polygon>
                                <rect id="Rectangle-15" fill="#472727" x="85.364662" y="123.128159" width="5.27551226" height="5.00551242"></rect>
                                <rect id="Rectangle-15" fill="#472727" x="85.364662" y="139.145799" width="5.27551226" height="5.00551242"></rect>
                                <rect id="Rectangle-15" fill="#472727" x="136.00958" y="75.0752401" width="5.27551226" height="5.00551242"></rect>
                                <rect id="Rectangle-15" fill="#472727" x="136.00958" y="91.0928799" width="5.27551226" height="5.00551242"></rect>
                                <polygon id="Rectangle-15" fill="#472727" points="136.00958 107.11052 141.285092 107.11052 141.285092 112.116032 136.00958 112.116032"></polygon>
                                <rect id="Rectangle-15" fill="#472727" x="136.00958" y="123.128159" width="5.27551226" height="5.00551242"></rect>
                                <rect id="Rectangle-15" fill="#472727" x="136.00958" y="139.145799" width="5.27551226" height="5.00551242"></rect>
                                <rect id="Rectangle-15" fill="#472727" x="119.12794" y="75.0752401" width="5.27551226" height="5.00551242"></rect>
                                <rect id="Rectangle-15" fill="#472727" x="119.12794" y="91.0928799" width="5.27551226" height="5.00551242"></rect>
                                <polygon id="Rectangle-15" fill="#472727" points="119.12794 107.11052 124.403453 107.11052 124.403453 112.116032 119.12794 112.116032"></polygon>
                                <rect id="Rectangle-15" fill="#472727" x="119.12794" y="123.128159" width="5.27551226" height="5.00551242"></rect>
                                <rect id="Rectangle-15" fill="#472727" x="119.12794" y="139.145799" width="5.27551226" height="5.00551242"></rect>
                                <rect id="Rectangle-15" fill="#472727" x="169.772858" y="91.0928799" width="5.27551226" height="5.00551242"></rect>
                                <polygon id="Rectangle-15" fill="#472727" points="169.772858 107.11052 175.04837 107.11052 175.04837 112.116032 169.772858 112.116032"></polygon>
                                <polygon id="Rectangle-15" fill="#472727" points="169.772858 123.128159 174.968855 123.128159 174.968855 128.133672 169.772858 128.133672"></polygon>
                                <path d="M152.891219,107.107952 C152.891219,107.107952 153.552867,106.764402 153.787168,107.107952 C154.398479,108.004303 156.164983,112.116032 156.164983,112.116032 L152.891219,112.116032 L152.891219,107.107952 Z" id="Rectangle-15" fill="#472727"></path>
                                <rect id="Rectangle-15" fill="#472727" x="152.891219" y="123.128159" width="5.27551226" height="5.00551242"></rect>
                                <rect id="Rectangle-15" fill="#472727" x="186.654497" y="59.0576004" width="5.27551226" height="5.00551242"></rect>
                                <rect id="Rectangle-15" fill="#472727" x="186.654497" y="75.0752401" width="5.27551226" height="5.00551242"></rect>
                                <polygon id="Rectangle-15" fill="#472727" points="186.654497 91.0928799 189.029999 91.0928799 188.408511 93.5956361 187.787022 96.0983923 186.654497 96.0983923"></polygon>
                                <path d="M159.976801,115.347859 C161.685013,115.347859 163.316626,112.412742 164.271488,110.0615 C165.226351,107.710258 165.642067,107.133306 165.642067,105.716277 C165.642067,101.378821 162.005808,96.8617886 159.46875,96.8617886 C157.576594,96.8617886 155.632167,99.3742885 154.765908,102.450953 C154.470661,103.499571 154.300659,104.613726 154.300659,105.716277 C154.300659,106.9632 153.692958,106.104824 154.86971,109.442082 C156.046462,112.77934 158.169091,115.347859 159.976801,115.347859 Z" id="Oval-2" fill="#7F945C"></path>
                            </g>
                            <path d="M127.678292,147.002339 C122.753172,147.337795 116.837487,146.665854 112.355914,145.611378 L112.355914,147.853802 C112.369778,155.891326 118.988961,162.403768 127.154967,162.403768 C135.260721,162.403768 141.845246,155.981725 141.949754,148.023964 L141.949754,144.798952 C136.95684,146.125157 133.045639,146.636761 127.678292,147.002339 Z" id="Fill-22" fill="#D2AC95"></path>
                            <path d="M117.083433,14.1270014 C106.391644,14.1270014 85.6884328,15.8057619 85.6884328,15.8057619 C84.6732141,16.7342116 83.6846555,17.6972255 82.7222238,18.6932085 C92.3236125,17.5626907 126.370232,16.779411 126.370232,16.779411 C126.370232,16.779411 135.899105,16.9469148 147.16782,19.202101 C136.415779,15.4723495 125.495779,14.9225116 122.20165,14.3795866 C121.122446,14.2009158 119.321286,14.1270014 117.083433,14.1270014 M81.8712316,19.5902845 C78.5659055,23.1381747 75.6012961,27.081693 73.0413879,31.3527743 C73.509007,31.9813124 73.9536984,32.507753 74.4127863,32.9411358 C77.8962023,29.4543978 82.2402082,26.4659171 86.8892062,23.9257085 C85.0075324,22.1273025 83.4548449,20.5681877 81.8712316,19.5902845" id="Fill-32" fill="#3F332A"></path>
                            <path d="M164.007227,74.7283913 C160.167632,76.3810956 157.462692,80.1161647 157.36405,84.4829625 L157.36405,84.9785611 C157.485087,90.3221985 161.504372,94.7166477 166.734028,95.5137531 C165.218665,89.193276 164.422059,82.1597112 164.007227,74.7283913" id="Fill-40" fill="#A98571"></path>
                            <polygon id="Fill-50" fill="#51443A" points="79.4381191 37.254811 124.087482 37.254811 124.087482 18.1152406 79.4381191 18.1152406"></polygon>
                            <path d="M22.4874816,138.066982 C22.412,137.745981 22.2396278,137.459107 21.9990484,137.247078 C21.9054087,137.245227 21.8107763,137.236843 21.7156283,137.221564 L2.93568105,134.241591 C1.80582363,134.06877 1.03481191,132.981856 1.21130215,131.821028 C1.3915248,130.664454 2.45099941,129.869476 3.57925723,130.047083 L22.3592045,133.027056 C22.5066956,133.049878 22.6482254,133.088287 22.7824345,133.140413 C23.1683297,132.912162 23.4533698,132.513057 23.5294787,132.024851 C23.6374668,131.339205 23.2816685,130.686101 22.7085763,130.391259 L5.75179336,127.703466 C4.62246914,127.528517 3.84452578,126.438945 4.02474844,125.282371 C4.20337148,124.122075 5.26177969,123.321779 6.39643594,123.50683 L22.8751497,126.12107 L22.8757717,126.117018 L28.7686844,126.937556 L28.6095715,125.380587 L25.1218898,120.311868 C24.5566945,119.631749 24.642007,118.615028 25.3175754,118.033285 C25.9856789,117.449414 26.9982316,117.535027 27.5580949,118.213551 L36.2823645,126.959908 C36.5273302,127.252704 36.6499478,127.607887 36.6566689,127.963993 C36.930637,128.016078 37.2045195,128.078089 37.4779077,128.15024 L37.4871369,128.151525 C37.7040021,128.210094 37.9207095,128.273941 38.1368982,128.344287 C44.5086756,130.417612 48.024617,137.354397 45.9845818,143.836529 C43.9776607,150.215109 37.3389808,153.775618 31.0561243,151.912207 L19.9330605,150.364284 C19.8587354,150.360554 19.7838702,150.352673 19.7087051,150.340462 L19.3287522,150.280187 L19.175342,150.258838 L19.1757892,150.255921 L6.75666797,148.285749 C5.62201172,148.111332 4.84833398,147.025482 5.02695703,145.865718 C5.2087793,144.704358 6.26558789,143.908316 7.39491211,144.091773 L20.3501484,146.145423 C20.5091584,146.170158 20.661039,146.212885 20.804174,146.271274 C21.1714992,146.040376 21.4415092,145.651615 21.5139709,145.178952 C21.5771442,144.766621 21.4775528,144.369092 21.2649952,144.053137 C21.0728237,144.079162 20.8740202,144.077444 20.6732162,144.044446 L3.66403652,141.348432 C2.53257949,141.172421 1.75890176,140.087102 1.9375248,138.927338 C2.11614785,137.767041 3.17615566,136.969936 4.30654629,137.151266 L21.31306,139.846216 C21.3884189,139.858275 21.4622195,139.874355 21.5342819,139.894211 C21.8855303,139.761834 22.181511,139.498895 22.3578835,139.152623 C22.3849895,138.791412 22.4280345,138.429228 22.4874816,138.066982 Z" id="Combined-Shape" fill="#DEBAA3"></path>
                            <g id="Group-2" transform="translate(120.093750, 90.971545) scale(-1, 1) translate(-120.093750, -90.971545) translate(51.187500, 0.000000)">
                                <path d="M4.68676934,86.1534479 L4.68676934,86.6485147 C4.8008748,91.6879865 8.38453301,95.8851535 13.1780291,97.014076 C12.849576,94.5137492 12.6794842,91.9623737 12.6794842,89.3769657 L12.6794842,75.9186992 C8.13765996,77.211935 4.79660918,81.2899881 4.68676934,86.1534479 Z" id="Fill-30" fill="#FFD8C3"></path>
                                <path d="M99.7735696,132.633565 C90.0708814,137.915399 79.663191,143.152283 67.913516,143.152283 C29.5426195,143.152283 0.0948773437,112.834625 0.0948773437,73.4653799 C0.0948773437,62.1059627 1.0253168,49.7686423 5.63379141,40.2374096 C16.9926176,16.7390178 40.616182,0.585801118 67.913516,0.585801118 C106.287612,0.585801118 137.394149,32.4997971 137.394149,71.869042 C137.394149,99.1839094 121.759578,120.665084 99.7735696,132.633565 Z" id="Fill-26" fill="#432C1C"></path>
                                <path d="M8.03347207,28.9941816 C8.03347207,23.7095693 12.3844096,19.4246623 17.7521654,19.4246623 C23.1183217,19.4246623 27.4676596,23.7095693 27.4676596,28.9941816 C27.4676596,34.2787939 23.1183217,38.5637009 17.7521654,38.5637009 C12.3844096,38.5637009 8.03347207,34.2787939 8.03347207,28.9941816" id="Fill-52" fill="#51443A"></path>
                                <path d="M123.746815,89.0154233 C123.746815,111.940907 107.139473,130.856438 87.7269337,140.788043 C79.4209847,145.03743 73.271522,148.533516 63.3109066,148.533516 C30.0731566,148.533516 1.02813391,121.749922 1.02813391,89.0154233 L2.87873086,63.225154 C2.87873086,56.8855336 3.89874844,50.7681881 5.7857543,45.0267956 C9.26330508,34.44215 20.540018,26.951805 32.0273461,21.8905311 C46.4840824,15.5221957 64.2717387,20.9934551 64.2717387,20.9934551 L64.6828383,20.6605745 C64.6828383,20.6605745 111.057647,19.6879889 119.771786,42.04895 C122.338625,48.6353062 123.746815,55.7762862 123.746815,63.225154 L123.746815,89.0154233 L129.399156,181.814417" id="Fill-34" fill="#DEBAA3"></path>
                                <path d="M33.5445961,84.9741638 C30.3875004,84.5641783 27.4207582,87.1017281 26.9515395,90.6113318 L25.9891078,97.7916618 C25.5198891,101.301797 27.7204184,104.508299 30.8775141,104.918816 C34.0362094,105.328802 37.0029516,102.791252 37.4721703,99.2811163 L38.4330023,92.1007863 C38.9038207,88.5911826 36.7032914,85.3841493 33.5445961,84.9741638" id="Fill-36" fill="#F3A082"></path>
                                <path d="M98.7208729,34.1280936 C98.7208729,36.7863525 101.8849,59.9018784 101.91316,62.525573 C102.163765,85.7261803 104.016113,107.077864 116.428015,118.163426 C123.745162,110.762417 126.12858,99.9826157 126.12858,89.3267146 L126.12858,63.3333136 C126.12858,55.8254206 122.884572,48.0909986 120.296937,41.4525301 C111.515615,18.915557 64.682785,18.0886731 64.682785,18.0886731 C64.682785,18.0886731 24.1876072,19.0197816 19.07099,20.3172715 C26.0388885,23.2812913 30.8979686,38.5650835 62.3985428,38.5650835 C92.8897635,38.5650835 98.7208729,28.8392273 98.7208729,34.1280936" id="Fill-38" fill="#432C1C"></path>
                                <path d="M106.754164,75.1279748 C105.177483,75.1279748 103.677582,75.4518155 102.319514,76.0362177 C102.734879,83.4675376 103.531485,90.5011024 105.046848,96.8210478 C105.603512,96.9061291 106.173506,96.950265 106.754164,96.950265 C112.871071,96.950265 117.833059,92.0660666 117.833059,86.0391199 C117.833059,80.0121733 112.871071,75.1279748 106.754164,75.1279748" id="Fill-42" fill="#190F09"></path>
                                <path d="M115.049205,86.0390136 C115.049205,92.0659602 110.086684,96.9501586 103.970311,96.9501586 C97.8491391,96.9501586 92.8892836,92.0659602 92.8892836,86.0390136 C92.8892836,80.0120669 97.8491391,75.1278685 103.970311,75.1278685 C110.086684,75.1278685 115.049205,80.0120669 115.049205,86.0390136" id="Fill-44" fill="#DEBAA3"></path>
                                <path d="M11.8379071,78.5365854 C14.0221091,78.5365854 15.8008142,80.6870236 15.8008142,83.3288184 C15.8008142,85.9697526 14.1345519,87.8215906 11.9517554,87.8215906 C9.76544512,87.8215906 7.875,85.9697526 7.875,83.3288184 C7.875,80.6870236 9.65370506,78.5365854 11.8379071,78.5365854" id="Fill-46" fill="#3D3229"></path>
                                <path d="M59.0879071,82.4634146 C61.2721091,82.4634146 63.0508142,84.6138528 63.0508142,87.2556476 C63.0508142,89.8965819 61.3845519,91.7484198 59.2017554,91.7484198 C57.0154451,91.7484198 55.125,89.8965819 55.125,87.2556476 C55.125,84.6138528 56.9037051,82.4634146 59.0879071,82.4634146" id="Fill-46-Copy" fill="#3D3229"></path>
                                <path d="M52.7329031,126.123739 L52.7217059,126.123739 L35.1531961,126.003562 C34.2702117,125.997712 33.5589188,125.278775 33.564784,124.397652 C33.5706492,123.520251 34.2856746,122.813013 35.1638602,122.813013 L35.1750574,122.813013 L52.7435672,122.93319 C53.6270848,122.939571 54.3383777,123.657977 54.3325125,124.539632 C54.3261141,125.416501 53.6110887,126.123739 52.7329031,126.123739" id="Fill-70" fill="#3D3229"></path>
                            </g>
                        </g>
                    </g>
                    <polygon id="Rectangle-7" fill="#1F2A45" transform="translate(113.757607, 157.920754) scale(-1, 1) rotate(42.000000) translate(-113.757607, -157.920754) " points="109.447835 147.632634 116.112985 146.508762 121.104392 168.781238 106.410822 169.332746"></polygon>
                    <path d="M110.062697,147.384566 L113.323485,146.760111 C113.323485,146.760111 113.285966,147.521239 113.323485,148.246328 C113.356482,148.884005 113.50704,150.366138 113.50704,150.366138 L110.062697,147.384566 Z" id="Path-3" fill="#39435C"></path>
                    <path d="M146.227544,146.959439 L142.902505,146.706424 C142.902505,146.706424 142.965898,147.364976 142.902505,148.185411 C142.84754,148.896771 142.547433,150.483104 142.547433,150.483104 L146.227544,146.959439 Z" id="Path-4" fill="#39435C"></path>
                    <polygon id="Rectangle-7" fill="#1F2A45" transform="translate(143.280909, 157.710994) rotate(42.000000) translate(-143.280909, -157.710994) " points="138.252135 147.657764 144.788364 146.590679 150.031867 168.673749 136.529952 168.831309"></polygon>
                    <ellipse id="Oval-4" fill="#000000" cx="129.738439" cy="184.772358" rx="2.625" ry="2.61788618"></ellipse>
                    <ellipse id="Oval-4" fill="#000000" cx="129.738439" cy="168.853334" rx="2.625" ry="2.61788618"></ellipse>
                    <ellipse id="Oval-4" fill="#000000" cx="129.738439" cy="231.682602" rx="2.625" ry="2.61788618"></ellipse>
                    <ellipse id="Oval-4" fill="#000000" cx="129.738439" cy="216.186992" rx="2.625" ry="2.61788618"></ellipse>
                    <ellipse id="Oval-4" fill="#000000" cx="129.738439" cy="200.479675" rx="2.625" ry="2.61788618"></ellipse>
                </g>
                <path d="M52.7190648,173.813289 L55.9144168,184.010773 L37.2311441,195.526646 L35.4375,184.694406 L36.3281833,184.694406 C36.3281833,184.694406 40.3097889,186.198491 45.9958648,183.355258 C51.6819407,180.512025 52.7190648,173.813289 52.7190648,173.813289 Z" id="Path-5" fill="#1F2A45"></path>
                <path d="M206.973836,202.450296 L228.356259,214.55617 L229.773594,202.450296 L227.888069,201.749793 C227.888069,201.749793 221.629194,202.297322 217.613458,200.289317 C211.927383,197.446084 211.217956,190.344422 211.217956,190.344422 L206.973836,202.450296 Z" id="Path-5" fill="#1F2A45"></path>
                <g id="Group-6" transform="translate(228.376997, 145.860021) rotate(29.000000) translate(-228.376997, -145.860021) translate(177.189497, 60.778720)">
                    <path d="M64.5152891,118.171291 C67.3468515,117.073027 70.5834576,116.910041 73.7192831,117.874153 C80.5528956,119.975152 84.3236772,127.004525 82.1357776,133.573177 C80.3232448,139.016302 75.2015943,140.6604 69.6112793,139.868537 L69.4500863,140.901809 C69.4500863,140.901809 63.5736157,139.617963 60.5438208,138.895359 C58.5086531,138.409972 57.6958454,136.557686 57.6958454,136.557686 C57.6958454,136.557686 56.7936261,129.303185 56.9365887,128.447586 C56.9645537,128.26965 56.9934674,127.925863 57.0230123,127.485251 C56.8669492,126.769728 56.8521187,126.13975 57.0173807,125.64359 C57.0591122,125.535527 57.1021115,125.428362 57.1463558,125.322103 C57.2213379,123.913351 57.2975088,122.487408 57.3702303,122.052457 C57.5137647,121.202707 58.971605,118.281244 58.971605,118.281244 L64.5152891,118.171291 Z" id="Combined-Shape" fill="#DEBAA3" transform="translate(69.828553, 129.070775) scale(-1, 1) rotate(19.000000) translate(-69.828553, -129.070775) "></path>
                    <g id="Page-1" transform="translate(51.213015, 85.386279) rotate(3.000000) translate(-51.213015, -85.386279) translate(5.275515, 2.922864)">
                        <path d="M33.0960649,5.48623666 C18.857437,12.931914 9.14339935,27.817117 9.14339935,44.9653144 C9.14339935,69.5677409 29.1378146,89.5119598 53.8022091,89.5119598 C68.4527183,89.5119598 81.4555225,82.4750569 89.5989489,71.6048709 C90.1507513,72.9559239 90.6791159,74.3200025 91.1824619,75.6965557 C82.1685621,87.8592365 70.1295915,94.3304041 53.8022091,94.3304041 C26.4698642,94.3304041 4.31276866,72.2290877 4.31276866,44.9653144 C4.31276866,27.0309147 13.7575707,11.5390255 28.0994383,2.89391519 C29.6896085,3.62909544 31.3607701,4.49516059 33.0960649,5.48623666 Z" id="Combined-Shape" fill="#1E1D1E"></path>
                        <polygon id="Fill-3" fill="#434242" points="68.3206543 95.7935968 56.9510858 97.9773532 55.6940243 91.465505 67.0633084 89.2817486"></polygon>
                        <g id="Group-7" transform="translate(58.005101, 101.590080)">
                            <mask id="mask-8" fill="white">
                                <use xlink:href="#path-7"></use>
                            </mask>
                            <g id="Clip-6"></g>
                            <path d="M11.4762808,0.215851558 L0.106996664,2.39960796 L11.5160429,57.6517492 C15.3290253,56.6543114 19.0191734,55.3559689 22.5606122,53.7839479 L11.4762808,0.215851558 Z" id="Fill-5" fill="#434242" mask="url(#mask-8)"></path>
                        </g>
                        <polygon id="Fill-8" fill="#383838" points="59.4967705 101.262177 67.4349392 99.7375176 68.3206543 95.7937102 56.9510858 97.977183"></polygon>
                        <polygon id="Fill-10" fill="#4C4C4C" points="58.1119271 103.98966 59.4966567 101.262233 67.4348254 99.7375743 69.4814956 101.805904"></polygon>
                        <path d="M29.8767054,4.27744458 C16.6413189,12.0084387 7.75236128,26.3414385 7.75236128,42.745221 C7.75236128,67.3476476 27.7467765,87.2918664 52.411171,87.2918664 C67.2399375,87.2918664 80.3806588,80.0826814 88.5029976,68.9862981 C89.1142723,70.3952161 89.7029928,71.8243756 90.2673461,73.2736388 C81.2534464,85.4363196 68.7385534,92.1103108 52.411171,92.1103108 C25.0788262,92.1103108 2.92173059,70.0089943 2.92173059,42.745221 C2.92173059,24.8108214 10.2835073,10.4973626 24.6253749,1.85225231 C26.1406789,2.43345886 27.908482,3.24328049 29.8767054,4.27744458 Z" id="Combined-Shape" fill="#1E1D1E"></path>
                        <polygon id="Fill-12" fill="#1E1D1E" points="68.3206543 95.7935968 65.9174234 96.2553053 64.6603618 89.7431735 67.0633084 89.2817486"></polygon>
                        <polygon id="Fill-14" fill="#1E1D1E" points="69.4813819 101.805932 67.0781509 102.267357 80.0286695 164.064072 81.9707857 161.675548"></polygon>
                        <polygon id="Fill-16" fill="#1E1D1E" points="64.9556192 100.213718 67.4347686 99.7375459 68.320768 95.7937386 65.9277733 96.2531783"></polygon>
                        <polygon id="Fill-18" fill="#1E1D1E" points="67.028022 102.27717 64.955477 100.213662 67.4349107 99.7374892 69.4812966 101.805818"></polygon>
                        <g id="Group-24" transform="translate(-0.000000, 0.081395)" fill="#434242">
                            <path d="M29.345955,3.25424929 C14.8012381,10.5989708 4.830716,25.649334 4.830716,43.0224426 C4.830716,67.6248692 24.8251312,87.569088 49.4895257,87.569088 C65.4179356,87.569088 79.3986598,79.2510489 87.3041668,66.7321525 C88.096988,68.5099147 88.8541125,70.3204962 89.5718271,72.1635922 C80.5579273,84.3262729 65.8169081,92.3875324 49.4895257,92.3875324 C22.1571809,92.3875324 8.53014762e-05,70.2862159 8.53014762e-05,43.0224426 C8.53014762e-05,25.088043 9.58798828,9.3873159 23.9298559,0.742205613 C25.4873249,1.3395849 27.3115407,2.17847922 29.345955,3.25424929 Z" id="Combined-Shape"></path>
                        </g>
                        <path d="M16.7628684,10.8850764 C15.1526582,10.8850764 13.5654794,10.9815021 12.0041754,11.1630091 C34.9042481,11.5104249 53.3615281,30.1321949 53.3615281,53.0573831 C53.3615281,67.4452181 46.0904181,80.1379477 35.0151402,87.6829679 C48.3020047,81.0123011 57.4187575,67.2883847 57.4187575,51.4385673 C57.4187575,29.0414511 39.2165293,10.8850764 16.7628684,10.8850764" id="Fill-27" fill="#DFF4FF" transform="translate(34.711466, 49.284022) rotate(-195.000000) translate(-34.711466, -49.284022) "></path>
                    </g>
                    <polygon id="Path-16" fill="#434242" points="64.3791506 121.309044 73.7415997 121.704968 81.0301023 168.499771 71.6969117 169.606326"></polygon>
                    <g id="Group-5" transform="translate(74.606194, 126.697608) rotate(-17.000000) translate(-74.606194, -126.697608) translate(65.418694, 115.571592)" fill="#DEBAA3">
                        <path d="M4.17456869,4.4243494 C3.48453454,4.2410701 3.0091994,3.09961329 3.11931816,1.88796441 C3.22845954,0.672415966 4.45983359,0.0446256254 5.15312569,0.238489447 L14.9603432,2.85449811 C15.6523321,3.03666326 16.9683782,4.20711342 16.8592369,5.42210478 C16.7497697,6.63988154 15.2992671,7.14436049 14.6072782,6.95383914 L4.17456869,4.4243494 Z" id="Fill-67" transform="translate(9.984543, 3.598376) scale(-1, 1) translate(-9.984543, -3.598376) "></path>
                        <path d="M6.32296852,20.6806038 C5.53926103,20.5175661 4.04478238,19.2119094 4.16815739,18.1278077 C4.2301224,17.5921629 5.0253211,16.4476929 5.0253211,16.4476929 L5.64227708,14.9006131 C5.64227708,14.9006131 9.90918212,17.1412964 11.6431321,17.4521765 C13.0895496,17.7115048 15.9823845,18.2301614 15.9823845,18.2301614 C16.7638823,18.3946904 18.14598,19.3610207 18.0266561,20.4446254 C17.9025445,21.5312124 16.5301576,22.3134271 15.7501329,22.1419392 L6.32296852,20.6806038 Z" id="Fill-65" transform="translate(11.097436, 18.533087) scale(-1, 1) translate(-11.097436, -18.533087) "></path>
                        <path d="M3.14918886,15.4246282 C2.37715831,15.2402348 1.55105247,13.8344367 1.67293289,12.6194454 C1.7948133,11.4038969 3.17018793,10.3310197 3.94149084,10.520984 L15.9724727,13.2315502 C16.7434117,13.4209574 18.0201581,14.5629814 17.8997329,15.7785298 C17.7745781,16.992407 15.8665822,17.6055464 15.0981899,17.4116826 L3.14918886,15.4246282 Z" id="Fill-64" transform="translate(9.784288, 13.973014) scale(-1, 1) translate(-9.784288, -13.973014) "></path>
                        <path d="M2.04297339,9.3382337 C1.33151854,9.15718272 1.03064539,7.92756864 1.14177874,6.71146312 C1.25526233,5.49981423 2.59456137,4.85076347 3.30500897,5.03682817 L15.6437576,8.40714125 C16.3535337,8.58986347 17.6513896,9.86232018 17.540592,11.0784257 C17.4261011,12.2950883 15.4687882,12.8496858 14.7556547,12.6591645 L2.04297339,9.3382337 Z" id="Fill-63" transform="translate(9.333274, 8.850613) scale(-1, 1) rotate(-5.000000) translate(-9.333274, -8.850613) "></path>
                    </g>
                    <path d="M60.7915712,113.69484 C60.1911283,113.016316 59.1051844,112.930703 58.3886558,113.514574 C57.6641213,114.096317 57.5726253,115.113039 58.1787867,115.793157 L61.9192603,120.861876 L64.1641297,130.697158 L70.7037789,126.513922 C71.4243104,125.931115 70.758924,123.121848 70.1481877,122.441197 L60.7915712,113.69484 Z" id="Fill-69" fill="#DEBAA3" transform="translate(64.397776, 121.911614) scale(-1, 1) translate(-64.397776, -121.911614) "></path>
                </g>
            </g>
        </g>
    </g>
</svg>