<?xml version="1.0" encoding="UTF-8"?>
<svg width="272px" height="272px" viewBox="0 0 272 272" version="1.1" xmlns="http://www.w3.org/2000/svg" xmlns:xlink="http://www.w3.org/1999/xlink">
    <!-- Generator: Sketch 52.6 (67491) - http://www.bohemiancoding.com/sketch -->
    <title>Error state</title>
    <desc>Created with Sketch.</desc>
    <g id="Page-1" stroke="none" stroke-width="1" fill="none" fill-rule="evenodd">
        <g id="Illustrations" transform="translate(-1406.000000, -766.000000)" fill-rule="nonzero">
            <g id="Error-state" transform="translate(1406.000000, 766.000000)">
                <g id="Group-2">
                    <g id="person">
                        <g id="Group-73">
                            <path d="M271.69378,135.193781 C271.69378,209.859062 210.872754,270.38756 135.846625,270.38756 C60.8210254,270.38756 0,209.859062 0,135.193781 C0,60.5284986 60.8210254,0 135.846625,0 C210.872754,0 271.69378,60.5284986 271.69378,135.193781" id="Fill-1" fill="#FF5252"></path>
                            <path d="M267.77512,164.583732 C262.094779,190.8664 248.645548,214.315583 229.894737,232.507177 L229.896346,232.507177 C248.645548,214.315583 262.094779,190.8664 267.77512,164.583732 M182.870813,263.856459 C176.962368,266.005209 170.860808,267.756652 164.583732,269.08134 C170.860808,267.756652 176.962368,266.005209 182.870813,263.856459" id="Fill-3" fill="#EAEAE9"></path>
                            <path d="M226.953428,151.521531 C220.887042,156.060018 213.366672,158.74427 205.22203,158.74427 C205.100776,158.74427 204.980052,158.74427 204.860916,158.743205 C202.261642,162.735264 199.4511,166.508645 196.474298,169.930867 L196.465296,169.923418 C194.60731,172.060178 192.684197,174.059666 190.708134,175.889958 C194.184775,178.544414 196.53466,182.612558 196.913775,187.24043 C197.900749,186.994618 198.933257,186.865859 199.995948,186.865859 C204.786788,186.865859 208.963948,189.512335 211.155514,193.432032 C211.938632,194.117328 212.633325,194.868067 213.253359,195.661372 C213.321664,195.659775 213.391027,195.659775 213.460392,195.659775 C216.820545,195.659775 219.720042,197.637981 221.069716,200.49994 C223.285639,202.584026 224.671319,205.549207 224.671319,208.839476 C224.671319,213.304538 222.121816,217.17103 218.403725,219.047079 C219.872536,222.692234 220.680011,226.676844 220.680011,230.849272 C220.680011,231.405809 220.666774,231.958089 220.637652,232.507177 L230.390358,232.507177 C248.895034,214.160093 262.168861,190.510481 267.77512,164.003167 C264.908452,164.577794 261.945416,164.878409 258.91037,164.878409 C246.419131,164.878409 235.115013,159.771148 226.953428,151.521531 M186.789916,154.133971 C182.449515,160.193031 175.267469,164.151645 167.142273,164.151645 C166.277585,164.151645 165.424032,164.107452 164.583732,164.020107 L164.583732,171.01293 C164.792083,171.043605 165.002026,171.06908 165.21515,171.085198 C165.464854,171.105994 165.717209,171.114833 165.971154,171.114833 C171.473661,171.114833 178.158419,166.505289 184.521371,159.259268 L184.812958,158.931724 C185.242385,158.436767 185.668633,157.923613 186.093288,157.406301 C186.226358,157.245127 186.359428,157.086554 186.491967,156.923301 C186.900189,156.417946 187.305229,155.897514 187.71027,155.371362 C187.838567,155.203951 187.968987,155.038098 188.095694,154.867567 C187.654602,154.632047 187.220404,154.387168 186.789916,154.133971 M184.177033,261.244019 L172.484047,261.244019 L172.510566,265.727678 C169.901481,266.480862 167.251266,267.160943 164.583732,267.759613 L164.583732,267.77512 C171.143516,266.305304 177.523083,264.361979 183.699161,261.977821 C183.855025,261.730267 184.013593,261.487143 184.177033,261.244019" id="Fill-5" fill="#D02A2A"></path>
                            <path d="M257.325359,74.4545455 C265.386602,89.9515627 270.425216,107.176103 271.69378,125.397129 L271.69378,125.391381 C270.425216,107.170355 265.386602,89.9515627 257.325359,74.4545455 M271.644762,130.62201 C271.676507,131.931965 271.69378,133.246754 271.69378,134.567448 C271.69378,144.411451 270.792778,154.018158 269.08134,163.277512 L269.08274,163.277512 C270.792778,154.018158 271.69378,144.411451 271.69378,134.567448 C271.69378,133.25105 271.677908,131.933576 271.646162,130.626304 C271.644762,130.624693 271.644762,130.623082 271.644762,130.62201" id="Fill-7" fill="#EAEAE9"></path>
                            <path d="M257.171269,74.4545455 C244.093373,75.1843129 232.492134,81.4029697 224.669856,90.8242295 C235.275086,97.2193661 242.359302,108.79389 242.359302,122.009198 C242.359302,133.996038 236.531179,144.631987 227.53345,151.279389 C235.765346,159.497089 247.165782,164.583732 259.7657,164.583732 C262.825825,164.583732 265.814387,164.28483 268.70682,163.711933 C270.663057,154.571557 271.69378,145.08829 271.69378,135.370778 C271.69378,134.067054 271.675621,132.769159 271.639307,131.476036 C271.460933,130.02233 271.369609,128.541597 271.369609,127.041785 C271.369609,126.733343 271.372814,126.42808 271.380291,126.121228 C270.127402,107.641207 265.143082,90.1718377 257.171269,74.4545455" id="Fill-9" fill="#E84040"></path>
                            <path d="M205.429505,86.2105263 C204.464567,86.2105263 203.508579,86.2482667 202.563119,86.324279 C201.677673,97.2844083 196.008073,106.878442 187.664233,112.97006 C187.331006,116.903566 186.615068,120.858866 185.483254,124.788119 C189.007144,128.982618 191.132322,134.413514 191.132322,140.344604 C191.132322,145.487395 189.534095,150.254912 186.813003,154.164498 C187.239407,154.423364 187.670023,154.673727 188.109588,154.914521 C188.124855,154.893259 188.141174,154.870403 188.15644,154.84914 C188.549679,154.314396 188.939762,153.767426 189.328263,153.212482 C194.76834,145.434241 199.64567,135.904525 202.873711,126.044183 L202.70578,126.089897 L204.462988,119.287058 L201.4571,109.339009 C201.190202,108.674034 201.402878,107.931452 201.9372,107.502487 C202.053013,107.406807 202.185146,107.328137 202.330439,107.269134 C202.527323,107.18887 202.72947,107.151129 202.929512,107.151129 C203.060064,107.151129 203.189039,107.166013 203.313275,107.197906 C203.784952,107.315911 204.192932,107.650791 204.388235,108.1361 L206.352327,111.972863 L207.740511,106.602565 L209.136065,100.891008 L210.482134,95.3846312 C210.501611,95.303835 210.527406,95.2267595 210.56057,95.1523418 C210.696916,94.8344721 210.941703,94.5857044 211.240186,94.4389952 C211.243344,94.4374005 211.245977,94.4358059 211.249135,94.4342112 C211.249135,94.4342112 211.250715,94.4342112 211.252294,94.4326165 C211.44128,94.3433154 211.649745,94.2933493 211.867685,94.2933493 C211.981392,94.2933493 212.097206,94.3071696 212.214073,94.3358736 C212.370421,94.3752086 212.515714,94.4389952 212.644689,94.5219178 C213.149003,94.8461662 213.416428,95.4648961 213.266397,96.0767157 L210.827468,106.052405 L210.461603,107.548201 C210.462655,108.022348 210.763244,108.452907 211.243344,108.572507 C211.322834,108.592174 211.402325,108.601211 211.480236,108.601211 C211.721865,108.601211 211.950334,108.51191 212.134583,108.364669 C212.13932,108.273773 212.152481,108.181283 212.175118,108.090387 L212.874737,105.224775 L215.29945,95.3070243 C215.458958,94.6526803 216.041184,94.2162738 216.683423,94.2162738 C216.69711,94.2162738 216.711849,94.2173369 216.727116,94.2173369 C216.827664,94.2205262 216.929264,94.2343467 217.032969,94.2598612 C217.613615,94.4039126 218.022122,94.8828436 218.107403,95.4404445 C218.134777,95.6222363 218.12846,95.8114698 218.082134,96.0012349 L215.742174,105.575069 L214.958854,108.783003 C214.944114,108.840411 214.927269,108.895161 214.90779,108.948316 C215.013076,109.292232 215.275761,109.57874 215.647944,109.670699 C215.731645,109.691961 215.814295,109.701529 215.896944,109.701529 C216.195427,109.701529 216.474958,109.568109 216.671315,109.351235 C216.677106,109.307116 216.686054,109.263528 216.69711,109.219409 L219.527172,97.6389554 C219.687732,96.9846114 220.268378,96.5482049 220.910617,96.5482049 C221.02643,96.5482049 221.141718,96.5630884 221.259111,96.5923239 C221.504951,96.6529211 221.719733,96.7741156 221.89398,96.9362398 C222.003476,97.0393616 222.097706,97.1589614 222.169826,97.290787 C222.284061,97.4954356 222.348285,97.7287881 222.351443,97.9695825 C222.351443,97.9711771 222.351443,97.9727718 222.353022,97.9738349 C222.353022,98.0923716 222.340914,98.2119715 222.310908,98.333166 L219.480846,109.912025 L219.479267,109.914683 C219.446103,110.049698 219.395039,110.175676 219.329236,110.289429 C219.470317,110.510556 219.689311,110.678527 219.962525,110.747098 C220.042016,110.766765 220.121506,110.775802 220.199417,110.775802 C220.430517,110.775802 220.648457,110.693942 220.830073,110.558927 C220.832706,110.458995 220.846393,110.359063 220.871662,110.25913 L221.315965,108.440681 L223.025267,101.442762 C223.056852,101.315189 223.103178,101.197183 223.16319,101.089809 C223.319539,100.804896 223.566958,100.586427 223.858072,100.463638 L223.862809,100.462575 L223.864388,100.462575 C224.030739,100.392409 224.210776,100.354669 224.395552,100.35148 L224.410292,100.35148 C224.526106,100.35148 224.642971,100.366895 224.760365,100.395599 C225.20888,100.507757 225.556847,100.81978 225.729513,101.212599 C225.804793,101.382165 225.846907,101.565551 225.852696,101.756379 L225.852696,101.830797 C225.849538,101.932324 225.836378,102.035445 225.810583,102.136973 L224.030739,109.417679 L223.741205,110.598262 L223.639079,111.063373 L221.605498,120.234289 C218.955474,132.787488 213.006343,147.107575 205.071009,159.357257 C205.189455,159.358852 205.30948,159.358852 205.429505,159.358852 C213.527503,159.358852 221.003795,156.676626 227.035049,152.142994 C235.904261,145.476764 241.650718,134.807396 241.650718,122.784689 C241.650718,109.529837 234.667687,97.9228057 224.213935,91.5069387 C218.736481,88.1453859 212.307249,86.2105263 205.429505,86.2105263" id="Fill-11" fill="#E84040"></path>
                            <path d="M185.112246,124.090909 C184.688773,125.55831 184.206891,127.02098 183.66399,128.479443 C179.65456,139.24389 172.940537,148.279106 164.583732,155.079308 L164.583732,163.142917 C165.410338,163.231245 166.249982,163.277512 167.100578,163.277512 C175.093363,163.277512 182.158368,159.272785 186.428036,153.147134 C189.124805,149.278578 190.708134,144.564599 190.708134,139.477853 C190.708134,133.611404 188.603288,128.239695 185.112246,124.090909" id="Fill-13" fill="#D02A2A"></path>
                            <path d="M271.69378,126.703349 L271.69378,126.709027 C271.823369,128.438094 271.91552,130.174388 271.971387,131.922552 L271.971387,131.92823 C271.917248,130.175936 271.823369,128.438094 271.69378,126.703349" id="Fill-15" fill="#EAEAE9"></path>
                            <path d="M271.707026,126.703349 C271.698963,127.001323 271.69378,127.300848 271.69378,127.601408 C271.69378,129.065926 271.792268,130.509752 271.984635,131.92823 C271.930496,130.177636 271.836615,128.437906 271.707026,126.703349" id="Fill-17" fill="#E1E2E2"></path>
                            <path d="M13.062201,84.9043062 L9.84561051,84.9043062 C9.14166276,86.6287767 8.47205394,88.3712878 7.83732057,90.1291866 C9.29940715,88.1335762 11.0630323,86.3714327 13.062201,84.9043062" id="Fill-19" fill="#D02A2A"></path>
                            <path d="M164.583732,267.77512 C155.32814,269.486171 145.709492,270.38756 135.84689,270.38756 C145.709492,270.38756 155.32814,269.486171 164.583732,267.77512" id="Fill-21" fill="#EAEAE9"></path>
                            <path d="M35.541803,126.703349 C35.0231969,126.884179 34.4936729,127.051636 33.9617225,127.203975 L34.831525,128.895985 C34.8830823,128.997157 34.9225085,129.101817 34.9504101,129.20764 C35.1129674,129.277414 35.2876558,129.315789 35.4659834,129.315789 C35.6352128,129.315789 35.8080815,129.280903 35.9724583,129.202989 C36.2611794,129.065186 36.4704415,128.833189 36.5741627,128.566305 C36.4722612,128.458737 36.3843105,128.336052 36.3127367,128.199993 L36.3115237,128.196504 L35.541803,126.703349 Z" id="Fill-23" fill="#E1E2E2"></path>
                            <path d="M38.6292742,127.797919 C38.8322113,127.934101 39.0764542,128.009569 39.325486,128.009569 C39.4757432,128.009569 39.6260004,127.982333 39.77087,127.92559 C39.7948153,127.915944 39.8187607,127.906297 39.8427061,127.894949 C39.8750324,127.880196 39.9055627,127.864308 39.9366917,127.84615 C40.2707296,127.652089 40.4604967,127.322414 40.492823,126.971175 C40.4587007,126.921242 40.4257759,126.870741 40.3988373,126.816267 L40.3934496,126.811161 L39.6601225,125.397129 C39.0794473,125.731912 38.485602,126.046267 37.8803828,126.338493 L38.5694108,127.66514 C38.5915604,127.708832 38.6119139,127.752524 38.6292742,127.797919" id="Fill-25" fill="#E1E2E2"></path>
                            <path d="M79.2400903,237.474866 C79.3158851,237.347561 79.3943302,237.22397 79.4743654,237.099847 C80.4337271,237.167744 81.4201204,237.252613 82.4234749,237.355518 C83.2005047,237.300883 83.9860152,237.27224 84.7762959,237.27224 C89.9817604,237.27224 94.9047167,238.489593 99.2727273,240.654839 L99.1502893,219.472877 C90.5801688,219.459087 83.6356627,212.500276 83.6356627,203.918857 C83.6356627,199.093467 85.8310637,194.780481 89.2773451,191.928848 C83.3319532,190.032534 77.3118264,186.69502 71.512724,182.405372 L71.4931127,182.428181 C56.6654101,171.455551 43.2873507,154.214209 36.2824208,138.746651 L32.128544,129.826283 L31.2306662,128.002639 C29.9479838,128.214283 28.6308493,128.324614 27.288803,128.324614 C14.5367138,128.324614 4.10988402,118.370423 3.34133464,105.803828 C3.20723603,106.395796 3.07949783,106.989886 2.95387975,107.584507 C2.88020502,107.933004 2.80122996,108.27938 2.73020539,108.629469 C0.940810437,117.426245 0,126.531205 0,135.856827 C0,179.373392 20.4577242,218.10594 52.2698377,242.956938 C65.145955,236.583201 77.7305534,230.582892 79.2400903,237.474866" id="Fill-27" fill="#D02A2A"></path>
                            <path d="M150.215311,167.923827 C150.725043,168.119283 151.229387,168.327262 151.726726,168.544497 L164.376283,171.079444 C164.445792,171.091422 164.514762,171.103944 164.583732,171.114833 L164.583732,155.440191 C160.187425,159.025378 155.348737,162.010582 150.215311,164.327751 L150.215311,167.923827 Z" id="Fill-29" fill="#D02A2A"></path>
                            <path d="M140.527653,270.310362 C141.334493,270.286676 142.140811,270.26343 142.943987,270.227901 C143.393453,270.208163 143.840825,270.180091 144.288722,270.156405 C145.021784,270.118245 145.754324,270.080085 146.483723,270.031837 C146.959351,270.000255 147.431316,269.961657 147.904851,269.926128 C148.603903,269.873493 149.302432,269.821297 149.997822,269.759451 C150.485483,269.716466 150.971052,269.667341 151.457668,269.619531 C152.133698,269.553737 152.809727,269.486627 153.482617,269.412061 C153.980221,269.357234 154.476254,269.297143 154.972289,269.23749 C155.627389,269.158976 156.281441,269.078269 156.933402,268.99186 C157.440947,268.924313 157.947446,268.852817 158.452898,268.780444 C159.085498,268.690526 159.717052,268.5971 160.346514,268.499286 C160.866617,268.419019 161.38515,268.335241 161.90316,268.24971 C162.509076,268.149265 163.113421,268.045312 163.716719,267.937848 C164.006596,267.88653 164.294902,267.833018 164.583732,267.779506 L164.583732,267.77512 C155.310304,269.478294 145.683162,270.373962 135.799633,270.373962 C128.733765,270.373962 121.789812,269.914724 115.019576,269.030898 L114.947368,269.030898 C115.031087,269.041864 115.11376,269.054584 115.196955,269.065549 C115.456484,269.098884 115.717582,269.129149 115.978156,269.161608 C116.732672,269.255034 117.488758,269.344514 118.246936,269.427414 C118.579719,269.464257 118.913024,269.499347 119.24633,269.533999 C119.99352,269.611197 120.742804,269.682253 121.493657,269.749363 C121.774638,269.774364 122.054573,269.801559 122.336077,269.825244 C123.348029,269.90946 124.362073,269.98578 125.37978,270.051574 C125.580182,270.064294 125.781107,270.073944 125.982032,270.086225 C126.812941,270.136668 127.645943,270.180969 128.481562,270.21869 C128.817484,270.234041 129.154452,270.246761 129.490897,270.25992 C130.232332,270.28887 130.975336,270.312116 131.719387,270.330977 C132.037519,270.338872 132.354604,270.348084 132.673258,270.354225 C133.712942,270.374401 134.754195,270.38756 135.799633,270.38756 C136.997335,270.38756 138.190852,270.373085 139.381228,270.346767 C139.764766,270.338434 140.145163,270.321327 140.527653,270.310362" id="Fill-31" fill="#E1E2E2"></path>
                            <path d="M43.3231026,125.397129 C43.4806267,125.397129 43.6409941,125.359243 43.7934001,125.274631 C44.2745024,125.010062 44.4906004,124.434197 44.3853949,123.884852 L43.3185532,121.478469 C42.8289207,121.978562 42.3210903,122.459713 41.7990431,122.916868 L42.7021051,124.952602 C42.7475995,125.053631 42.7817202,125.157817 42.8078795,125.262003 C42.9682469,125.348509 43.1451061,125.397129 43.3231026,125.397129" id="Fill-33" fill="#E1E2E2"></path>
                            <path d="M106.068763,167.551198 C105.598837,167.401488 105.135312,167.247001 104.677655,167.088268 C104.653118,167.078711 104.631782,167.072873 104.607246,167.063847 C104.464294,167.07128 104.320276,167.074465 104.172524,167.074465 C98.8337193,167.074465 91.1031467,162.426587 83.4285812,155.171542 C72.1668976,145.989394 63.7759753,133.501969 59.7007959,119.773872 C55.7200283,119.202111 51.9462203,117.99276 48.4849848,116.253589 C47.7003527,117.701837 46.7727694,119.058242 45.7177033,120.308471 L47.0741406,123.046233 L48.1004031,125.054563 L49.6013919,127.987159 L50.0681174,126.248518 L50.7204661,123.819199 C50.776473,123.496953 50.9284922,123.213992 51.141319,122.994738 C51.4368229,122.690542 51.8502082,122.507387 52.2945308,122.507387 L52.2955976,122.507387 C52.3852088,122.507387 52.4780205,122.51482 52.5708322,122.529685 C53.3341283,122.660282 53.87873,123.303181 53.9016663,124.038984 C53.9059335,124.14463 53.8984659,124.252399 53.8803303,124.359637 L53.0423581,134.714506 L56.2448944,140.970959 L56.2432942,140.970959 L56.0699391,140.963526 C61.3799404,149.885012 68.2560055,158.130152 75.3144936,164.542684 C75.8180236,164.999776 76.3199534,165.448902 76.8245502,165.886349 C77.0085734,166.045083 77.1909963,166.201162 77.3766197,166.358835 C77.8886842,166.795751 78.401282,167.228952 78.9138797,167.645164 C79.0797673,167.780008 79.2435213,167.908482 79.411009,168.041733 C79.9417425,168.466971 80.4740761,168.88743 81.0064097,169.288776 L81.3589874,169.548909 C88.111837,174.596012 94.6689287,177.645933 99.8130425,177.645933 C101.236155,177.645933 102.553121,177.412876 103.733002,176.92234 L113.001368,172.896656 C114.436749,171.847632 115.960141,170.909561 117.559809,170.089348 C113.713991,169.611022 109.868708,168.772759 106.068763,167.551198" id="Fill-35" fill="#D02A2A"></path>
                            <path d="M166.494483,47.0239234 C166.340788,47.0239234 166.187618,47.0254959 166.033923,47.0270684 C162.819417,47.0674288 159.704761,47.5302631 156.746411,48.3642035 C164.48705,53.5984769 171.151829,60.5320807 176.006785,68.9013619 C178.901355,73.8892796 180.956359,78.2927575 182.279488,82.216628 C184.267577,86.5351917 185.740217,91.092773 186.651925,95.7965952 C187.014204,97.668899 187.66087,101.404596 187.749217,105.652922 C187.804108,107.866979 187.738762,110.09676 187.547951,112.334928 C195.833837,106.326469 201.465626,96.8679807 202.343355,86.058205 C202.423862,85.0795962 202.464115,84.0889316 202.464115,83.0893563 C202.464115,63.170708 186.360221,47.0239234 166.494483,47.0239234" id="Fill-39" fill="#E84040"></path>
                            <path d="M24.0308742,180.258373 L9.63552704,162.330402 C9.63552704,162.330402 4.80943231,153.795736 10.9698682,144.666185 L20.4677318,137.15311 L40.492823,164.565263 C27.7945352,169.000511 24.0308742,180.258373 24.0308742,180.258373" id="Fill-41" fill="#FEFEFE"></path>
                            <path d="M9.63170822,163.277512 C9.63170822,163.277512 4.81554285,154.441902 10.9638279,144.990431 L18.2870813,150.499103 C10.0843041,156.490622 9.63170822,163.277512 9.63170822,163.277512" id="Fill-43" fill="#D8D8D8"></path>
                            <path d="M197.239234,188.095694 C197.239234,196.751659 190.22178,203.770335 181.563806,203.770335 C172.907407,203.770335 165.889952,196.751659 165.889952,188.095694 C165.889952,179.439729 172.907407,172.421053 181.563806,172.421053 C190.22178,172.421053 197.239234,179.439729 197.239234,188.095694" id="Fill-45" fill="#8B8A8A"></path>
                            <path d="M214.220096,199.851675 C214.220096,207.065976 208.371777,212.913876 201.158165,212.913876 C193.944012,212.913876 188.095694,207.065976 188.095694,199.851675 C188.095694,192.637373 193.944012,186.789474 201.158165,186.789474 C208.371777,186.789474 214.220096,192.637373 214.220096,199.851675" id="Fill-47" fill="#8B8A8A"></path>
                            <path d="M178.952153,199.851675 C178.952153,207.065976 173.103834,212.913876 165.890222,212.913876 C158.676071,212.913876 152.827751,207.065976 152.827751,199.851675 C152.827751,192.637373 158.676071,186.789474 165.890222,186.789474 C173.103834,186.789474 178.952153,192.637373 178.952153,199.851675" id="Fill-49" fill="#8B8A8A"></path>
                            <path d="M211.607656,193.320574 C212.11867,194.14499 212.543966,195.018392 212.869037,195.933014 C213.310819,195.871483 213.761831,195.834444 214.220096,195.824287 C213.447969,194.933561 212.58287,194.090626 211.607656,193.320574 M221.337142,199.851675 C221.814643,200.932785 222.082534,202.140839 222.082534,203.416559 C222.082534,207.573668 219.241522,211.018953 215.526316,211.649995 C216.870667,213.64803 217.99757,215.822315 218.872744,218.138756 C222.310265,216.287072 224.669856,212.475646 224.669856,208.074618 C224.669856,204.829714 223.387704,201.905837 221.337142,199.851675" id="Fill-51" fill="#B7B7B8"></path>
                            <path d="M151.521531,190.708134 C146.179972,192.706698 142.21765,196.419916 139.76555,201.157895 C142.398587,200.257449 145.181483,199.682911 148.067611,199.486358 C148.136989,196.111927 149.432973,193.040445 151.521531,190.708134" id="Fill-53" fill="#777677"></path>
                            <path d="M159.966163,189.401914 C156.584879,189.401914 153.550516,189.963333 150.879394,190.986619 C148.896844,193.252424 147.669202,196.236325 147.602871,199.51508 C148.308291,199.465575 149.021083,199.440551 149.738612,199.440551 C155.429358,199.440551 160.761603,201.016007 165.352104,203.770335 C165.587946,199.682636 168.571244,196.357639 172.421053,195.745083 C172.159415,194.912203 171.820393,194.116314 171.412406,193.366123 C168.78603,191.004027 165.154165,189.401914 159.966163,189.401914" id="Fill-55" fill="#777677"></path>
                            <path d="M214.656654,195.933014 C214.284506,195.942154 213.918774,195.974412 213.560528,196.030864 C209.650835,196.636249 206.620714,199.921237 206.382775,203.961073 C210.251298,206.220242 213.600096,209.279421 216.205133,212.913876 C220.261333,212.268168 223.363636,208.735327 223.363636,204.474521 C223.363636,203.16859 223.070624,201.930402 222.549296,200.822323 C220.77678,199.15456 218.476519,198.046482 215.92816,197.776586 C215.540506,197.143781 215.120235,196.526032 214.656654,195.933014 M219.701456,207.181923 C219.6172,206.921182 219.532413,206.654094 219.444976,206.382775 C219.692449,206.86512 219.802671,207.166586 219.701456,207.181923" id="Fill-57" fill="#777677"></path>
                            <path d="M172.782173,203.770335 C172.660647,203.787038 172.54085,203.804891 172.421053,203.824474 L172.421053,204.013385 C172.54085,203.931025 172.662375,203.850968 172.782173,203.770335" id="Fill-59" fill="#777677"></path>
                            <path d="M114.947368,203.770334 C114.947368,212.42739 107.929782,219.444976 99.2727273,219.444976 C90.6156727,219.444976 83.5980861,212.42739 83.5980861,203.770334 C83.5980861,195.11328 90.6156727,188.095694 99.2727273,188.095694 C107.929782,188.095694 114.947368,195.11328 114.947368,203.770334" id="Fill-61" fill="#8B8A8A"></path>
                            <path d="M61.3923445,219.444976 C61.3923445,208.62442 69.8718443,199.851675 80.3330642,199.851675 C90.7932273,199.851675 99.2727273,208.62442 99.2727273,219.444976" id="Fill-63" fill="#8B8A8A"></path>
                            <path d="M47.0239234,242.303827 C47.0239234,257.092517 59.0131575,269.08134 73.8011702,269.08134 C88.5897134,269.08134 100.578947,257.092517 100.578947,242.303827 C100.578947,227.515138 88.5897134,215.526316 73.8011702,215.526316 C59.0131575,215.526316 47.0239234,227.515138 47.0239234,242.303827" id="Fill-65" fill="#BABABB"></path>
                            <path d="M138.45933,269.08134 C138.45933,251.045753 123.839358,236.425837 105.804886,236.425837 C87.769884,236.425837 73.1483254,251.045753 73.1483254,269.08134 L138.45933,269.08134" id="Fill-67" fill="#BABABB"></path>
                            <path d="M79.8716513,236.425837 C79.8059815,236.549596 79.7416164,236.673357 79.6794258,236.799761 C79.6942124,236.884383 79.708999,236.968475 79.7242205,237.054684 C80.5670554,236.881209 81.423807,236.755863 82.291866,236.680761 C81.4686016,236.578157 80.6588191,236.493535 79.8716513,236.425837" id="Fill-69" fill="#B7B7B8"></path>
                            <path d="M79.870065,236.425837 C79.8061347,236.532388 79.7422043,236.639514 79.6794258,236.746065 C79.7635144,236.731091 79.8452992,236.717844 79.9293879,236.703444 C79.9092297,236.609565 79.8896473,236.519141 79.870065,236.425837" id="Fill-71" fill="#999998"></path>
                        </g>
                        <path d="M87.6341414,248.181818 C86.5830724,248.258712 85.5451747,248.385614 84.5236094,248.561988 C84.447216,248.574356 84.3718762,248.587798 84.2954828,248.60178 C83.0231361,250.852153 82.291866,253.459574 82.291866,256.250898 C82.291866,264.081228 88.0229578,270.482826 95.4262767,271.48837 L95.4262767,271.69378 L104.497608,271.69378 L104.386442,252.244319 C99.0320491,249.917052 93.0622936,248.753417 87.6341414,248.181818" id="Fill-74" fill="#999998"></path>
                        <g id="Group-80" transform="translate(2.612440, 235.119617)" fill="#BABABB">
                            <path d="M58.7799043,16.9808613 C58.7799043,26.3595724 51.1777542,33.9617225 41.799043,33.9617225 C32.4213804,33.9617225 24.8181818,26.3595724 24.8181818,16.9808613 C24.8181818,7.60215016 32.4213804,0 41.799043,0 C51.1777542,0 58.7799043,7.60215016 58.7799043,16.9808613" id="Fill-76"></path>
                            <path d="M0,33.9617225 C0,22.4198333 9.35763238,13.062201 20.8995215,13.062201 C32.4429938,13.062201 41.7990431,22.4198333 41.7990431,33.9617225" id="Fill-78"></path>
                        </g>
                        <path d="M65.3110048,90.1291866 L63.5509336,93.4611942 C59.1054261,101.879252 50.6789714,108.276561 39.7339143,110.362562 C36.5055972,110.977797 33.2574317,111.138856 30.0430622,110.960189 L31.8031334,107.628182 C35.0175029,107.806849 38.2656684,107.64579 41.4939855,107.030036 C52.4390426,104.944036 60.8654973,98.5472443 65.3110048,90.1291866" id="Fill-81" fill="#D02A2A"></path>
                        <g id="Group-153" transform="translate(2.612440, 32.655502)">
                            <path d="M48.679202,73.3103372 C48.4287297,76.7230284 47.384909,79.9338797 45.7177033,82.787511 C49.3439596,84.4786282 53.3011972,85.6540476 57.4736842,86.2105263 C55.7125514,80.7082008 54.7229624,75.0024869 54.6049945,69.2296651 C52.8198209,70.7602398 50.8372884,72.1302719 48.679202,73.3103372 Z" id="Fill-83" fill="#D02A2A"></path>
                            <path d="M31.3757782,74.4598343 C31.3667696,74.4598343 31.3582909,74.4593055 31.3492823,74.4593055 C31.4202914,74.4593055 31.4913004,74.4550743 31.5623094,74.4545455 C31.500309,74.4550743 31.4377787,74.4598343 31.3757782,74.4598343 Z M28.7368421,40.4954674 L28.7368421,40.492823 L28.7368421,40.4954674 Z M76.8515186,17.8554162 C72.1291979,15.6194082 66.8444446,14.3684211 61.2665927,14.3684211 C42.1243472,14.3684211 26.4385532,29.1011594 25.0322078,47.7955322 C24.6456345,47.7760841 24.2537801,47.7671485 23.8624538,47.7671485 C18.5328116,47.7671485 13.6098107,49.5038129 9.63423139,52.4378507 C7.66650973,53.8912033 5.93062646,55.6383803 4.49101046,57.6131528 C2.69967608,62.6165756 1.19404688,67.7608658 0,73.0171141 C0.757303503,85.4796788 11.1514789,95.354067 23.8624538,95.354067 C25.2006736,95.354067 26.5135442,95.2447369 27.7905036,95.0350127 L26.6492673,92.7275197 L24.8605735,89.1164771 C24.7491432,88.8899328 24.7042542,88.6502479 24.7164006,88.4147679 C24.7174569,88.4121398 24.7174569,88.4074092 24.7174569,88.4042554 L24.7174569,88.3984735 C24.7264346,88.2681185 24.7538961,88.1409174 24.7972009,88.0179212 L24.7972009,88.0147675 C24.7987851,88.0121393 24.8003695,88.0089856 24.8019538,88.0058318 C24.8019538,88.0026781 24.8035381,88.0016268 24.8051224,87.9984731 C24.8051224,87.9953193 24.8067067,87.9937424 24.8067067,87.9911143 C24.8077629,87.9879605 24.8093473,87.9848068 24.8109316,87.9821787 L24.8109316,87.9790249 C24.8589892,87.8576056 24.9223619,87.7419681 25.0021059,87.6373688 C25.1346603,87.4618101 25.3094633,87.313584 25.5217617,87.2100358 C25.7219138,87.1112183 25.932628,87.0633865 26.1401735,87.0602328 L26.1612978,87.0602328 C26.4295754,87.0602328 26.6899314,87.1353971 26.9159607,87.2746876 C27.1356526,87.4081964 27.3204896,87.6042545 27.442482,87.851298 L30.6718481,94.3758791 C31.1355248,94.2381654 31.596033,94.0867855 32.0496757,93.9217393 L30.4790895,90.7527471 L27.4805057,84.6943954 C27.4065709,84.5430154 27.3611538,84.3858536 27.3431982,84.2271149 C27.2782412,83.646825 27.5797895,83.0623302 28.1411658,82.7884797 C28.3476551,82.6880854 28.5657627,82.6402535 28.7812299,82.6402535 C29.3077512,82.6402535 29.8136764,82.9277704 30.0624142,83.429742 L34.6902039,92.7800821 C35.2262313,92.5088598 35.750112,92.2181892 36.260262,91.9080706 L33.6920843,86.7159485 L31.1281314,81.5385439 C30.9401258,81.1548378 30.9401258,80.7280304 31.0948607,80.3621955 C31.2094597,80.0899219 31.4096117,79.8497113 31.6805298,79.6878188 C31.7153848,79.6683708 31.7512961,79.6489226 31.7877354,79.6310513 C31.9936965,79.530657 32.210748,79.4828252 32.4256869,79.4828252 C32.6696718,79.4828252 32.910488,79.5443233 33.121202,79.661012 C33.3667712,79.7960976 33.5743168,80.004245 33.7084555,80.2723136 L34.685451,82.2476118 L38.6509964,90.2565574 C39.1373817,89.8760049 39.6068675,89.4760045 40.0615665,89.059184 L35.8641828,80.581381 C35.6835707,80.217123 35.6761773,79.810815 35.810316,79.4575951 C35.9006221,79.2189615 36.0537728,79.0050322 36.2634308,78.8415629 C36.3431747,78.7784879 36.4303121,78.7217204 36.5253711,78.6749397 C36.7223546,78.5792761 36.9320125,78.5314442 37.1363894,78.5267136 L37.1923685,78.5267136 C37.6512923,78.5356492 38.0912044,78.7637704 38.3547291,79.1590402 C38.3874717,79.2100258 38.4175737,79.2625884 38.4450352,79.3167278 L42.1755735,86.855239 C43.2201664,85.6173925 44.1401265,84.2749468 44.9153855,82.8410422 C46.491781,79.9353881 47.4761698,76.6660016 47.7127612,73.1910959 C44.4068198,75.1406384 40.6609665,76.5834786 36.5538889,77.3892614 C36.40021,77.420799 36.245475,77.4497083 36.0902121,77.4780921 C33.9793738,77.8628494 31.8611419,78.0473437 29.751888,78.065215 C29.642042,78.065215 29.532196,78.0667919 29.4223502,78.0667919 C28.6185733,78.0667919 27.8158527,78.0426131 27.0152446,77.9963581 L28.7479592,74.614488 L28.7389814,74.0599537 L28.7479592,74.6129111 C29.436609,74.6523329 30.1273712,74.6681017 30.8191896,74.6738836 C30.1273712,74.6681017 29.436609,74.6533842 28.7479592,74.614488 C29.5459268,74.6607429 30.3449507,74.6849217 31.1476712,74.6849217 C31.2591016,74.6849217 31.3721162,74.6833448 31.4835464,74.6833448 C31.6884514,74.681768 31.8944126,74.6691529 32.0998458,74.6612685 C34.1615703,74.6129111 36.2285757,74.4126481 38.2881877,74.0073912 C41.7895283,73.3193484 45.0225911,72.1613969 47.9509369,70.6292004 C47.8833394,70.6644174 47.8226072,70.7075186 47.7550097,70.7427355 C47.8231353,70.7075186 47.8838675,70.6638918 47.951465,70.6286748 C48.8027713,70.182945 49.626616,69.705152 50.4245837,69.1968729 C50.5666442,69.1064653 50.7071203,69.0155323 50.8475963,68.9230223 C51.6302489,68.4068587 52.3864963,67.862837 53.1131696,67.2893803 C53.1749579,67.2410229 53.2446679,67.1994984 53.3059281,67.1506153 L53.3059281,67.1490385 C53.249949,67.1942422 53.1865763,67.2315616 53.1300689,67.2757141 C63.1350305,59.3760985 67.7232125,46.2302215 63.7671729,32.8499158 C63.5934263,32.2601647 63.3811277,31.6872336 63.1719979,31.1122 C63.3547225,31.6146974 63.5448405,32.1145666 63.7011598,32.6286278 C66.2603597,28.4819735 69.2848208,24.6838084 72.729654,21.8081149 C74.104313,20.4656691 75.5523786,19.1784139 77.0669856,17.9573874 C76.9962195,17.9226962 76.9238691,17.8885306 76.8515186,17.8554162 Z" id="Fill-85" fill="#E84040"></path>
                            <path d="M202.271883,87.8716011 L198.663221,76.5657418 C198.330138,75.7834111 198.727584,74.890344 199.55305,74.5689015 C200.379052,74.2489968 201.31608,74.6232442 201.6497,75.4050623 L204.470442,80.6209428 L208.995215,83.4857295 L204.366924,88.7077621 C203.540922,89.0292046 202.603892,88.6549573 202.271883,87.8716011" id="Fill-87" fill="#F3D9C9"></path>
                            <path d="M212.075665,75.9755243 L215.480448,63.1782501 C215.687077,62.4077211 215.176244,61.6265494 214.337103,61.4349814 C213.499108,61.2439455 212.653078,61.7127549 212.448745,62.4832841 L209.040518,75.2805582 C208.835611,76.0526836 209.344722,76.8311947 210.185585,77.023827 C211.023581,77.2164593 211.86961,76.7460534 212.075665,75.9755243" id="Fill-89" fill="#F3D9C9"></path>
                            <path d="M216.811088,77.2897649 L219.406543,65.7779786 C219.580346,65.0127458 219.148253,64.2385289 218.441938,64.0472207 C217.737553,63.8574979 217.027377,64.3214996 216.853574,65.0883179 L214.258119,76.601161 C214.085764,77.3648083 214.515444,78.1395537 215.221276,78.3308619 C215.927591,78.5205847 216.639217,78.0549977 216.811088,77.2897649" id="Fill-91" fill="#F3D9C9"></path>
                            <path d="M214.175633,61.3923445 C213.522076,61.3923445 212.931197,61.8065811 212.767808,62.4266746 L210.301435,71.8421053 L212.768879,62.4266746 C212.931197,61.8065811 213.52529,61.3923445 214.178847,61.3923445 L214.220096,61.3923445 L214.175633,61.3923445 M215.507593,62.6985646 C215.537632,62.886019 215.530699,63.081147 215.479865,63.2762749 L212.913876,73.1483254 L215.481598,63.2779192 C215.530699,63.0827913 215.539365,62.886019 215.507593,62.6985646 M219.444976,64.0047847 C219.55679,64.1073888 219.650584,64.2263885 219.724243,64.3559659 C219.650584,64.2263885 219.55679,64.1073888 219.444976,64.0047847 M219.444976,65.3110048 L219.444976,65.3141781 L219.444976,65.3110048 M219.444865,65.3110048 C219.446301,65.4287373 219.433852,65.5464697 219.406561,65.6647255 L216.832536,77.0622763 L216.832536,77.0669856 L216.833972,77.0638461 L219.407997,65.6647255 C219.433852,65.5464697 219.446301,65.4287373 219.444865,65.3110048 M222.593694,67.923445 C222.406103,67.9250316 222.22487,67.9625826 222.057416,68.0318669 C222.22487,67.9641693 222.406103,67.9250316 222.593694,67.923445 M220.755965,67.923445 C220.754376,67.9250316 220.752786,67.9250316 220.751196,67.9266183 C220.752786,67.9250316 220.754376,67.9250316 220.755965,67.923445 M206.382775,67.923445 L205.073839,73.9804791 L203.770335,79.6777342 L203.771816,79.6794258 L205.070877,73.9900657 L206.382775,67.923445 M220.751196,67.923445 C220.708771,68.0401916 220.675651,68.1660059 220.654439,68.300321 L219.444976,75.7607656 L220.654439,68.300321 C220.676767,68.1660059 220.709516,68.0401916 220.751196,67.923445 M223.276454,67.923445 C223.364769,68.1910535 223.389678,68.4997932 223.333444,68.8049786 L222.057416,75.7607656 L223.334576,68.8065019 C223.351937,68.7079896 223.361372,68.6110005 223.363636,68.5140115 L223.363636,68.4419045 C223.360618,68.2606214 223.329292,68.0854318 223.276454,67.923445 M200.794029,74.4545455 C200.604361,74.4545455 200.412695,74.4926253 200.226021,74.5724873 C200.088261,74.6327805 199.96298,74.7110559 199.851675,74.8046689 C199.96298,74.7110559 200.088261,74.6327805 200.226021,74.574074 C200.412695,74.4936831 200.604361,74.4545455 200.794029,74.4545455 C200.917814,74.4545455 201.040101,74.4714699 201.157895,74.5026742 C201.040101,74.4714699 200.917814,74.4545455 200.794029,74.4545455 M207.702005,74.4545455 L207.688995,74.5238297 C207.712168,74.9670374 207.953247,75.3594717 208.306939,75.4737114 C208.372799,75.4948669 208.439066,75.5054447 208.503706,75.5054447 C208.683397,75.5054447 208.854959,75.4271693 208.993996,75.2912453 C208.993996,75.2822543 208.993996,75.2748498 208.995215,75.2658587 C208.851706,75.4134182 208.675267,75.5022714 208.489884,75.5022714 C208.429715,75.5022714 208.368327,75.4932803 208.306939,75.4737114 C207.934953,75.3547118 207.704037,74.9263131 207.702005,74.4545455 M212.920858,75.7607656 C212.918531,75.7697567 212.916203,75.77769 212.913876,75.7866811 C212.994957,76.1198801 213.197078,76.3911992 213.467089,76.481639 C213.529936,76.5027946 213.593172,76.5133722 213.654856,76.5133722 C213.870555,76.5133722 214.074227,76.3896126 214.217768,76.1817599 C214.218932,76.1754132 214.218932,76.1695955 214.220096,76.1637777 C214.075391,76.3790349 213.869391,76.5117855 213.649424,76.5117855 C213.58968,76.5117855 213.527997,76.5012079 213.467089,76.481639 C213.19281,76.3896126 212.99806,76.1029556 212.920858,75.7607656 M216.832536,77.0669856 C216.955195,77.2870027 217.146962,77.45466 217.384499,77.5223576 C217.45727,77.5435132 217.531872,77.5540908 217.6051,77.5540908 C217.799157,77.5540908 217.984518,77.4816333 218.137383,77.356287 C218.137383,77.3488826 218.138756,77.3414781 218.138756,77.3340737 C217.980857,77.4678822 217.790004,77.5509175 217.589082,77.5509175 C217.521346,77.5509175 217.453609,77.5419265 217.383126,77.5223576 C217.146962,77.4530733 216.955195,77.2854161 216.832536,77.0669856 M222.057416,78.3732057 L219.470018,87.4213688 C219.462573,87.4531614 219.453097,87.4833643 219.444976,87.5167464 L222.057416,78.3732057" id="Fill-93" fill="#DDDFDF"></path>
                            <path d="M185.479985,121.478469 C185.348165,121.6567 185.2158,121.830041 185.083979,122.005011 C184.667819,122.55492 184.25166,123.09885 183.83223,123.627023 C183.695508,123.797647 183.557696,123.96338 183.422607,124.13183 C182.986292,124.672501 182.548344,125.208824 182.105492,125.726129 L181.807535,126.068463 C175.268265,133.640025 168.399987,138.45933 162.748052,138.45933 C162.4855,138.45933 162.227852,138.450092 161.971292,138.428356 C162.227852,138.450092 162.488769,138.45933 162.750775,138.45933 C169.476338,138.45933 177.920468,131.647966 185.483254,121.480099 L185.479985,121.478469" id="Fill-95" fill="#DDDFDF"></path>
                            <path d="M202.464115,86.2105263 L200.639661,92.9439899 L200.814018,92.8976864 C197.462446,102.659288 192.398468,112.093082 186.750205,119.791025 C186.346836,120.341404 185.941827,120.882839 185.533538,121.412697 C185.516047,121.433744 185.500744,121.454791 185.483254,121.47689 L185.486533,121.478469 C185.994298,120.820224 186.497689,120.14672 186.997802,119.459535 L187.002721,119.46427 C192.550961,111.827364 197.513823,102.514064 200.815658,92.8976864 L200.639661,92.9424114 L202.464115,86.2105263" id="Fill-97" fill="#DDDFDF"></path>
                            <path d="M200.201192,74.4545455 C199.993179,74.4545455 199.781873,74.4910994 199.575507,74.5688411 C199.423477,74.6275335 199.287364,74.7037307 199.16552,74.7948583 C198.610087,75.2103386 198.386158,75.9295776 198.666069,76.5736492 L201.798882,86.2094966 L201.798882,86.2105263 L203.770335,79.126253 L203.768688,79.1247084 L201.720396,75.408554 C201.517324,74.9390151 201.091419,74.6156921 200.601848,74.4998518 C200.471772,74.4705057 200.337306,74.4545455 200.201192,74.4545455" id="Fill-99" fill="#F1D6C6"></path>
                            <path d="M213.958801,61.3923445 C213.258411,61.3923445 212.621745,61.8172742 212.44837,62.4533749 L209.803536,72.1118563 L209.03942,74.8990018 L209.02794,75.1438152 C209.017605,75.152614 209.006697,75.15986 208.996364,75.1676237 C208.995215,75.1764225 208.995215,75.1836686 208.995215,75.1924673 C209.196147,75.0553098 209.34656,74.8575958 209.41258,74.6200285 L209.41545,74.6112297 L211.988524,75.1852213 L211.985078,75.19402 C211.931115,75.3886285 211.944319,75.5837546 212.009765,75.7607656 C212.012634,75.7519667 212.01608,75.7442031 212.019524,75.7354043 C212.01608,75.7250527 212.012634,75.7136661 212.009765,75.7017619 L212.07521,75.575991 L212.929458,72.4508684 L215.480715,63.1288112 C215.531809,62.9445543 215.538125,62.7602973 215.508846,62.5832864 C215.41527,62.0413845 214.968627,61.5740136 214.335405,61.4353033 C214.224031,61.4099421 214.112658,61.39545 214.003006,61.3923445 L213.958801,61.3923445" id="Fill-101" fill="#F1D6C6"></path>
                            <path d="M218.12065,64.0047847 C217.530389,64.0047847 216.996737,64.4181103 216.84772,65.0406252 L214.247673,76.0468091 L214.242352,76.1508984 C214.236545,76.1594883 214.229772,76.1665624 214.222998,76.1736364 C214.221547,76.1807105 214.221547,76.186774 214.220096,76.1923321 C214.330407,76.0715683 214.411689,75.9199818 214.453297,75.7471733 L214.454748,75.7370676 L216.541462,76.2762099 L216.540011,76.2847998 C216.473727,76.5627082 216.526464,76.8436483 216.66532,77.0669856 L216.66532,77.0654698 C216.66145,77.0583957 216.657095,77.0508165 216.651773,77.0437425 L216.80466,76.7097471 L216.80466,76.7067154 L219.406158,65.700026 C219.433736,65.5863362 219.446315,65.4711305 219.444864,65.3589566 L219.444864,65.354409 C219.441961,65.1255135 219.382935,64.9036921 219.277945,64.7091563 C219.210211,64.5838448 219.124575,64.470155 219.022973,64.372129 C218.86428,64.2195321 218.66543,64.1043264 218.439486,64.0452077 C218.333046,64.0179222 218.225638,64.0047847 218.12065,64.0047847" id="Fill-103" fill="#F1D6C6"></path>
                            <path d="M221.862771,67.923445 L221.84853,67.923445 C221.655181,67.9250727 221.467858,67.9635946 221.294228,68.0346703 C221.292585,68.036298 221.291488,68.036298 221.289845,68.0379257 C220.986952,68.1616301 220.72897,68.3846233 220.565198,68.6748946 C220.504401,68.7866625 220.455653,68.9071115 220.423337,69.0356989 L218.644858,76.178539 L218.182574,78.0330187 L218.169976,78.3173218 C218.159021,78.3265454 218.149711,78.3346838 218.138756,78.3406519 L218.138756,78.3639822 C218.341963,78.2202029 218.498066,78.0064332 218.561603,77.7465456 L218.564889,77.737322 L221.169345,78.3732057 L221.467858,77.1757696 L223.319732,69.7437434 C223.402439,69.4160355 223.364646,69.0883275 223.237025,68.8018543 C223.055727,68.3998151 222.693678,68.0829584 222.226463,67.9684777 C222.104868,67.9375516 221.982724,67.923445 221.862771,67.923445" id="Fill-105" fill="#F1D6C6"></path>
                            <path d="M204.851933,74.4545455 L203.47596,79.8506703 L201.597398,87.2064461 L199.851675,94.0478469 L200.020076,94.0018633 C201.039896,90.8482421 201.89393,87.6641435 202.547139,84.4934122 L218.668147,87.9673146 C218.662394,87.9993963 218.65455,88.0314778 218.648796,88.0635595 L220.648168,78.9331365 L220.751196,78.4604676 L220.751196,78.4572595 L218.26388,77.830599 L218.261265,77.8402234 C218.200076,78.0963415 218.052594,78.306476 217.856997,78.4481697 C217.682844,78.5759614 217.469466,78.648145 217.248767,78.648145 C217.165088,78.648145 217.080365,78.6374511 216.995119,78.6160635 C216.725259,78.547088 216.504559,78.378125 216.364922,78.1572965 C216.215348,77.919358 216.157297,77.6236726 216.228945,77.3279872 L216.230514,77.3188974 L213.974881,76.7483798 L213.973312,76.7590735 C213.929904,76.9419386 213.840473,77.1023467 213.722802,77.2317425 C213.528775,77.4408075 213.25473,77.5653911 212.962383,77.5653911 C212.878704,77.5653911 212.793981,77.5546972 212.708735,77.5338442 C212.34526,77.4424116 212.073831,77.1675793 211.963482,76.8307224 C211.90543,76.6478573 211.893401,76.4468127 211.940993,76.245768 L211.944131,76.2366782 L209.600636,75.6437033 L209.597497,75.6527931 C209.539446,75.8982174 209.400856,76.1024701 209.217288,76.2441639 C209.039996,76.3810454 208.819296,76.4607146 208.588137,76.4607146 C208.50446,76.4607146 208.418167,76.4500209 208.332921,76.4286331 C207.880016,76.3126047 207.569886,75.9180009 207.540075,75.4683239 L207.529616,75.5062871 C207.371675,76.1650293 206.793253,76.6024084 206.153642,76.6024084 C206.040155,76.6024084 205.924052,76.5885064 205.807427,76.559633 C205.042822,76.3676781 204.578936,75.5827483 204.76564,74.8095818 L204.851933,74.4545455" id="Fill-107" fill="#F1D6C6"></path>
                            <path d="M208.998395,61.3923445 L208.995215,61.3939312 L208.998395,61.3923445 M208.37471,61.3923445 C208.074247,61.5372596 207.827835,61.7858366 207.688995,62.1026402 C207.827835,61.7847789 208.075836,61.5372596 208.37471,61.3923445 M209.603954,61.3923445 C210.133116,61.7229341 210.415705,62.3532221 210.257788,62.9775484 L207.688995,73.1483254 L210.257788,62.9775484 C210.414043,62.3515962 210.133116,61.7213082 209.603954,61.3923445" id="Fill-109" fill="#DDDFDF"></path>
                            <path d="M208.978765,61.3923445 C208.780289,61.3923445 208.589056,61.4404365 208.41714,61.5308072 L208.414243,61.5323927 C208.41038,61.5339781 208.407482,61.5355636 208.404585,61.537149 C208.132224,61.6814252 207.90767,61.9287556 207.781148,62.2463744 C207.752173,62.3187768 207.728511,62.3959355 207.709677,62.4757365 L206.475842,67.951887 L205.192749,73.6378456 L205.114517,73.988759 C204.942601,74.7529467 205.37046,75.5287611 206.076957,75.7184869 C206.182715,75.7470249 206.289921,75.7607656 206.394712,75.7607656 C206.985312,75.7607656 207.51941,75.3284657 207.666698,74.6773735 L207.674907,74.6382657 L207.690361,74.5706197 L207.690361,74.5690343 L208.025984,73.083466 L210.263307,63.1654081 C210.400936,62.557123 210.155617,61.9424962 209.694438,61.620121 C209.576125,61.537149 209.442842,61.4737309 209.297969,61.4346232 C209.192211,61.406085 209.084523,61.3923445 208.978765,61.3923445" id="Fill-111" fill="#F1D6C6"></path>
                            <path d="M202.924012,83.5980861 C202.254598,86.768803 201.379376,89.9544912 200.334253,93.108098 C197.098128,102.878504 192.230539,112.344671 186.789474,120.10464 L199.802581,130.62201 L199.800973,130.620405 C209.064504,117.761625 216.102195,101.953489 219.202186,88.1253138 L219.211298,88.1237097 L219.403707,87.2655308 C219.411746,87.2318452 219.417642,87.2013679 219.425146,87.168217 C219.431577,87.1361356 219.439081,87.1040541 219.444976,87.0719727 L202.924012,83.5980861 M195.356492,135.84689 C195.114849,136.130374 194.871616,136.41227 194.626794,136.690994 L194.635803,136.698398 C194.879036,136.421261 195.117499,136.133017 195.356492,135.84689" id="Fill-113" fill="#F1D6C6"></path>
                            <path d="M186.863908,120.172249 C186.376247,120.870868 185.883771,121.553973 185.387018,122.223171 C177.962992,132.233319 169.673795,138.939737 163.071632,138.939737 C162.812828,138.939737 162.558303,138.929038 162.304845,138.907641 C162.019841,138.885174 161.739649,138.848264 161.460526,138.797981 L148.909091,136.309486 C157.332503,139.975362 163.97584,146.906451 167.118912,155.440191 C176.734745,153.892104 186.030283,147.180871 194.118428,137.922835 L194.1334,137.933534 C194.38044,137.65109 194.625875,137.365973 194.869707,137.07925 C194.996435,136.928399 195.121559,136.775945 195.246149,136.626699 L195.510299,136.313765 C196.200619,135.484089 196.88185,134.636225 197.552921,133.771778 L197.740073,133.532664 C198.430929,132.637191 199.107346,131.726739 199.776813,130.799705 L199.851675,130.699138 L186.869791,120.177063 L186.863908,120.172249" id="Fill-115" fill="#26416C"></path>
                            <path d="M78.3732057,192.87341 L44.4663554,194.626794 C44.4663554,194.626794 30.0656079,193.017356 24.3830426,177.640051 L23.5119617,159.643558 L73.6528321,159.358852 C68.0766503,178.535069 78.3732057,192.87341 78.3732057,192.87341" id="Fill-117" fill="#FEFEFE"></path>
                            <path d="M44.4114833,194.626794 C44.4114833,194.626794 30.3623893,193.040444 24.8181818,177.882152 L37.2076101,173.727273 C37.1048446,188.464109 44.4114833,194.626794 44.4114833,194.626794" id="Fill-119" fill="#D8D8D8"></path>
                            <path d="M168.502392,233.95482 L168.111407,165.853335 C168.017086,147.822079 152.911476,133.142716 134.541511,133.234881 L128.585052,133.264015 C110.215087,133.355651 95.2612336,148.184389 95.3545009,166.217234 L95.7454858,234.132796 C107.222103,237.324724 119.309437,239.038278 131.796714,239.038278 C144.520583,239.038278 156.831864,237.264868 168.502392,233.95482" id="Fill-121" fill="#26416C"></path>
                            <path d="M147.602871,108.416268 L118.866029,108.797093 L118.866029,135.871965 L118.919089,135.873543 C119.384957,143.176546 125.653482,148.946256 133.306877,148.908911 C140.603708,148.873141 146.58783,143.570521 147.469691,136.743549 L147.602871,136.747757 L147.602871,108.416268" id="Fill-123" fill="#F3D9C9"></path>
                            <path d="M147.602871,108.416268 L118.866029,108.797093 L118.866029,135.871965 L118.919089,135.873543 C119.384957,143.176546 125.653482,148.946256 133.306877,148.908911 C140.603708,148.873141 146.58783,143.570521 147.469691,136.743549 L147.602871,136.747757 L147.602871,108.416268" id="Fill-125" fill="#F3D9C9"></path>
                            <path d="M147.602871,131.92823 C139.441225,135.490308 130.526821,137.405337 121.444544,137.405337 C120.586465,137.405337 119.725712,137.389143 118.866029,137.354667 C119.992492,143.911524 125.945586,148.909091 133.124049,148.909091 L133.198362,148.909091 C140.550581,148.872002 146.580125,143.606457 147.46868,136.826023 L147.602871,136.830724 L147.602871,131.92823" id="Fill-127" fill="#DDBFAD"></path>
                            <polygon id="Fill-129" fill="#969696" points="109.722488 229.894737 239.038278 229.894737 239.038278 199.851675 109.722488 199.851675"></polygon>
                            <path d="M154.133971,178.299042 C154.133971,199.580328 171.385708,216.832536 192.666411,216.832536 C213.949222,216.832536 231.200957,199.580328 231.200957,178.299042 C231.200957,157.017757 213.949222,139.76555 192.666411,139.76555 C171.385708,139.76555 154.133971,157.017757 154.133971,178.299042" id="Fill-131" fill="#969696"></path>
                            <path d="M114.947368,198.545455 C114.947368,215.859571 128.982533,229.894737 146.29665,229.894737 C163.610767,229.894737 177.645933,215.859571 177.645933,198.545455 C177.645933,181.231338 163.610767,167.196172 146.29665,167.196172 C128.982533,167.196172 114.947368,181.231338 114.947368,198.545455" id="Fill-132" fill="#969696"></path>
                            <path d="M92.7416268,208.994946 C92.7416268,220.538642 102.098972,229.894737 113.640612,229.894737 C125.183325,229.894737 134.54067,220.538642 134.54067,208.994946 C134.54067,197.451252 125.183325,188.095694 113.640612,188.095694 C102.098972,188.095694 92.7416268,197.451252 92.7416268,208.994946" id="Fill-133" fill="#969696"></path>
                            <path d="M202.464115,198.545455 C202.464115,215.859571 216.50034,229.894737 233.813396,229.894737 C251.127515,229.894737 265.162679,215.859571 265.162679,198.545455 C265.162679,181.231338 251.127515,167.196172 233.813396,167.196172 C216.50034,167.196172 202.464115,181.231338 202.464115,198.545455" id="Fill-134" fill="#969696"></path>
                            <path d="M133.212322,207.837811 C133.015749,207.837811 132.832458,207.885526 132.638542,207.894441 C130.089467,199.168416 122.027315,192.74528 112.362827,192.74528 C106.212216,192.74528 100.720921,195.371687 96.8494938,199.502942 C91.8289117,194.891918 85.1512716,192.014354 77.7526867,192.014354 C62.2239462,192.014354 49.6363636,204.436959 49.6363636,219.76282 L49.6363636,220.751196 L146.296651,220.751196 C146.296651,213.619681 140.438242,207.837811 133.212322,207.837811" id="Fill-135" fill="#49494B"></path>
                            <path d="M61.3923445,210.301435 C61.3923445,204.530586 56.7135495,199.851675 50.9428443,199.851675 C45.1716181,199.851675 40.492823,204.530586 40.492823,210.301435 C40.492823,216.072285 45.1716181,220.751196 50.9428443,220.751196 C56.7135495,220.751196 61.3923445,216.072285 61.3923445,210.301435" id="Fill-136" fill="#49494B"></path>
                            <path d="M108.416268,203.1485 C108.416268,186.900384 95.2587352,173.727273 79.0263158,173.727273 C62.7954716,173.727273 49.6363636,186.900384 49.6363636,203.1485 C49.6363636,209.749511 51.8086325,215.842226 55.475813,220.751196" id="Fill-137" fill="#49494B"></path>
                            <path d="M193.320574,225.322967 C193.320574,232.897388 187.180096,239.038278 179.604998,239.038278 C172.03043,239.038278 165.889952,232.897388 165.889952,225.322967 C165.889952,217.748546 172.03043,211.607656 179.604998,211.607656 C187.180096,211.607656 193.320574,217.748546 193.320574,225.322967" id="Fill-138" fill="#49494B"></path>
                            <path d="M146.296651,239.038278 C146.296651,229.660707 153.899941,222.057416 163.277511,222.057416 C172.655082,222.057416 180.258373,229.660707 180.258373,239.038278" id="Fill-139" fill="#49494B"></path>
                            <path d="M84.9043062,218.791867 C84.9043062,229.972823 93.9693479,239.038278 105.150984,239.038278 C116.333151,239.038278 125.397129,229.972823 125.397129,218.791867 C125.397129,207.609313 116.333151,198.545455 105.150984,198.545455 C93.9693479,198.545455 84.9043062,207.609313 84.9043062,218.791867" id="Fill-140" fill="#49494B"></path>
                            <path d="M158.052632,239.038278 C158.052632,225.330598 146.940769,214.220096 133.233383,214.220096 C119.527598,214.220096 108.416268,225.330598 108.416268,239.038278" id="Fill-141" fill="#49494B"></path>
                            <path d="M63.3955865,99.5357062 C74.6524109,118.887724 93.4153684,134.844493 102.623962,133.104368 C114.464637,130.867972 116.82591,106.400116 133.900132,96.5242777 C164.257239,78.9662355 197.312416,77.1928505 173.324357,35.9541265 C156.103379,6.34825873 116.374032,-5.41500139 86.0190372,12.143041 C55.6619307,29.7010834 46.1751369,69.9298385 63.3955865,99.5357062" id="Fill-142" fill="#D69C6E"></path>
                            <path d="M65.3181618,56.7396711 C77.2890734,24.7566292 113.025672,7.92925717 145.135876,19.1547558 C166.208742,26.5232964 180.423407,44.1501782 184.35447,64.433427 C184.721023,66.3284825 185.375319,70.1095747 185.464181,74.4089953 C185.652483,82.0030115 184.452324,89.7832439 181.602409,97.3947674 C169.631497,129.37834 133.896484,146.205181 101.784694,134.978622 C69.6729035,123.753654 53.3472501,88.7243045 65.3181618,56.7396711" id="Fill-143" fill="#F3D9C9"></path>
                            <path d="M142.0305,76.6108248 C143.596286,75.6914943 144.148361,73.6834831 143.259493,72.1356997 C142.372287,70.5862286 140.372608,70.0731139 138.806821,70.9924444 C137.241035,71.9112121 136.688959,73.9192233 137.577828,75.4670067 C138.466698,77.0164779 140.464713,77.5295926 142.0305,76.6108248" id="Fill-144" fill="#3C3129"></path>
                            <path d="M178.604663,54.4048203 C180.170449,53.4860699 180.722525,51.4775339 179.833655,49.9303424 C178.94645,48.3809003 176.947325,47.8672327 175.380984,48.7865459 C173.815198,49.7052963 173.263122,51.7138322 174.15199,53.2615864 C175.04086,54.8104659 177.038876,55.3241333 178.604663,54.4048203" id="Fill-145" fill="#3C3129"></path>
                            <path d="M83.0845842,85.8470434 C96.1740114,108.022112 103.000422,115.942381 97.1758379,133.23445 C88.4830185,128.338294 72.7250805,120.317502 60.9979448,97.6803431 C53.8383041,83.8618449 56.2526203,69.2591617 55.1781668,62.3546493 C51.5318607,38.9117273 80.5527833,20.384961 80.5527833,20.384961 L92.1656381,17.1834862 C92.1656381,17.1834862 86.9087199,18.415025 92.0027612,16.9808612 C86.29673,24.4269349 69.8215997,63.377774 83.0845842,85.8470434" id="Fill-146" fill="#D69C6E"></path>
                            <path d="M144.990431,14.3684211 L145.020474,14.403689" id="Fill-147" fill="#F3D9C9"></path>
                            <path d="M136.426687,0.794728684 L126.426808,7.27559688 C114.531219,10.865737 97.4126823,17.5401267 83.83558,28.911095 C60.5956491,48.3731571 82.498595,48.3237248 82.498595,48.3237248 C88.6568454,48.7086645 116.732998,31.6514232 116.732998,31.6514232 L143.202953,14.456403 C143.759005,14.17769 144.294762,13.840079 144.790989,13.4251646 C144.790989,13.4251646 145.249293,13.3021102 145.493401,12.7520462 C148.160961,9.90969856 148.346846,5.55441208 145.774899,2.61162252 C143.439048,-0.0629714169 139.576054,-0.710322015 136.426687,0.794728684 Z" id="Fill-148" fill="#D69C6E"></path>
                            <path d="M160.411001,67.2157514 C157.940018,65.6999915 157.307994,62.2187128 159.005735,59.479178 L162.481084,53.8740938 C164.178826,51.1345591 167.590708,50.1346391 170.062219,51.6503989 C172.533202,53.1661587 173.166285,56.6489742 171.467485,59.3885091 L167.993194,64.9915441 C166.294394,67.731079 162.881983,68.7315112 160.411001,67.2157514" id="Fill-149" fill="#F4AE82"></path>
                            <path d="M170.390909,77.9966646 C173.189568,76.3328367 175.81962,77.2199971 178.302345,78.1983406 C178.909113,78.4386355 179.117553,79.1772206 178.814169,79.7522121 C178.653747,80.051508 175.278331,82.1556977 171.994586,84.0989756 C168.989125,85.877587 166.060055,87.5199599 165.750668,87.5167417 C165.089882,87.5151326 164.568782,86.9953876 164.58406,86.3528131 C164.66318,83.1651508 167.592251,79.6604923 170.390909,77.9966646" id="Fill-150" fill="#3C3129"></path>
                            <path d="M72.5098284,26.1244019 C67.7949285,30.3002735 62.0739269,36.3507902 58.4489704,43.5916328 C58.239099,44.0103246 58.0367038,44.4332243 57.8417849,44.8603319 C56.850636,47.415614 56.0405212,49.9046207 55.419451,52.2063734 C55.2037052,53.2772985 55.0467021,54.3629516 54.955384,55.4649103 C54.7834281,57.5373293 54.8411028,59.6618218 55.177538,61.8289199 C56.2525288,68.7294438 53.8376713,83.3236919 60.9978681,97.1342079 C61.4160091,97.9421356 61.8410924,98.7327057 62.2688458,99.5032879 C66.6622631,107.406884 71.5400405,113.407957 76.3628132,118.071426 C79.8585358,121.452519 83.3264892,124.130884 86.5551997,126.318496 C89.9852373,128.488224 93.6160681,130.373389 97.4188546,131.92823 C97.4188546,131.925073 97.4204567,131.923495 97.4204567,131.920865 C98.7966371,127.630853 99.3749854,123.9147 99.258034,120.39264 C98.7587214,120.458389 98.2578067,120.491527 97.7616981,120.491527 C93.9370166,120.491527 90.2501134,118.587426 88.2266956,115.161097 C87.222196,113.458978 86.7533227,111.593801 86.7666733,109.74756 C86.7971126,106.108729 88.7078514,102.545641 92.1058475,100.458494 C89.625839,96.1232461 86.5781627,91.2230797 83.0840422,85.3077437 C82.5056939,84.3267637 81.9818161,83.31475 81.5129429,82.2753846 C74.4419281,74.4706756 70.6236548,64.0628192 70.0693376,48.6048879 C69.7131435,38.6751606 69.7393107,31.6952114 72.5098284,26.1244019" id="Fill-152" fill="#D29A6D"></path>
                        </g>
                        <g id="hand-left-+-papers-right" transform="translate(28.736842, 111.028708)">
                            <path d="M9.14354067,7.83732057 L11.7559809,13.062201 L9.14354067,7.83732057 M1.31946805,7.83732057 L1.3062201,7.83732057 L1.31946805,7.83732057 C1.58866656,7.83732057 1.8499163,7.91242257 2.07672135,8.05257773 C1.85150606,7.91242257 1.58866656,7.83732057 1.31946805,7.83732057 M0.19024068,9.14354067 C0.111812767,9.24931815 0.0471627315,9.36514448 0,9.48731746 C0.0471627315,9.36514448 0.111812767,9.24931815 0.19024068,9.14354067 M0.0026495917,9.14354067 C0.00105983694,9.146714 0,9.14935843 0,9.15253176 C0,9.14935843 0.00105983694,9.146714 0.0026495917,9.14354067 M0.00317950952,9.14354067 C0.00158975476,9.146714 0.00158975476,9.14830067 0,9.1509451 C0.00158975476,9.14830067 0.00158975476,9.14512734 0.00317950952,9.14354067 M0.00158975607,9.14354067 C0.00158975607,9.14354067 0,9.14459843 0,9.1461851 C0,9.14459843 0.00158975607,9.14354067 0.00158975607,9.14354067 M0,9.14354067 L0,9.14988732 L0,9.14354067 M0.00321653932,9.14354067 C-0.0153341346,9.4282215 0.0460257867,9.71863417 0.195858155,9.99312509 L2.61244019,14.3684211 L0.195858155,9.99312509 C0.0460257867,9.71863417 -0.0153341346,9.4282215 0.00321653932,9.14354067" id="Fill-157" fill="#DDDFDF"></path>
                            <path d="M24.6571152,10.4497608 C24.2162232,10.4497608 23.8050066,10.6322269 23.5119617,10.9352794 C23.8065964,10.6322269 24.2162232,10.4497608 24.6571152,10.4497608 M26.8257252,11.7559809 C26.8283373,11.8619315 26.8222425,11.9700119 26.8070058,12.0775598 L26.1244019,22.4639221 L28.7368421,28.7368421 L26.1244019,22.4639221 L26.8070058,12.0775598 C26.8222425,11.9700119 26.8283373,11.8619315 26.8257252,11.7559809 M7.83732057,15.6746411 L8.50819717,16.9793388 L8.50978694,16.9808612 C8.50978694,16.9808612 8.50978694,16.9793388 8.50819717,16.9778164 L7.83732057,15.6746411" id="Fill-159" fill="#DDDFDF"></path>
                            <polygon id="Fill-161" fill="#DDDFDF" points="6.53110048 13.062201 7.8360025 15.6746411 7.83732057 15.6746411"></polygon>
                            <path d="M21.3647899,14.3684211 L20.8995215,15.6746411 L20.9011113,15.6746411 L21.3647899,14.3684211 M12.248275,14.3684211 C12.2196594,14.6958024 12.0522052,15.0046726 11.7559809,15.1844943 C12.0474359,15.007846 12.2276082,14.7095535 12.2620529,14.3895766 C12.2578135,14.3821722 12.2530443,14.3763544 12.248275,14.3684211 M10.4497608,15.6746411 C10.4529403,15.6809878 10.45453,15.6868056 10.4577095,15.6926234 C10.6315227,15.8121519 10.8397806,15.8766762 11.0528078,15.8766762 C11.1884669,15.8766762 11.3278354,15.8497029 11.4608449,15.7936408 C11.3320748,15.8481162 11.1980054,15.8724451 11.0665857,15.8724451 C10.8456097,15.8724451 10.629933,15.8015741 10.4497608,15.6746411 M7.83732057,16.9808612 C7.75388254,17.2252072 7.58554262,17.4362333 7.35328235,17.559993 C7.22105014,17.6308638 7.08198672,17.6641838 6.94536304,17.6641838 C6.8023961,17.6641838 6.66186887,17.6276906 6.53110048,17.5642241 C6.53256431,17.5721573 6.53402813,17.5795617 6.53500402,17.5853795 C6.65601357,17.6414416 6.78678197,17.6700015 6.91901418,17.6700015 C7.06539671,17.6700015 7.21421895,17.6350949 7.35328235,17.559993 C7.58700646,17.4346467 7.75388254,17.2252072 7.83732057,16.9808612 M27.430622,28.7368421 C34.5337736,40.9829495 44.4683984,51.9950365 53.8410433,58.793172 L42.8798055,71.331788 C48.6374679,75.680702 54.6135025,79.0633699 60.5163955,80.9856459 C63.1847475,78.7294585 66.6097725,77.3728425 70.3447284,77.3728425 C70.8456692,77.3728425 71.3424003,77.3975767 71.8296601,77.4448943 C73.9839162,70.8645271 78.1508808,65.1622233 83.5980861,61.0800082 L74.4548637,65.157384 C73.2909128,65.6542184 71.9917291,65.8902685 70.587832,65.8902685 C65.5131751,65.8902685 59.0446188,62.8027976 52.3829477,57.6892747 L52.0351306,57.4274151 C51.5099847,57.0209142 50.9848387,56.5950563 50.4612713,56.1643589 C50.2965712,56.0277832 50.1329236,55.899273 49.9708544,55.7610841 C49.4651779,55.3411408 48.9600274,54.9029156 48.4543508,54.4582382 C48.2712338,54.2985413 48.0896953,54.1409954 47.9097355,53.9796856 C47.4119519,53.5382342 46.9167992,53.0833404 46.420068,52.6187679 C39.4568852,46.1238951 32.6736623,37.7728831 27.4353578,28.7384552 L27.4700868,28.7400683 L27.430622,28.7368421" id="Fill-163" fill="#DDDFDF"></path>
                            <path d="M71.6054997,77.0669856 C67.7249272,77.0669856 64.1663689,78.3832486 61.3923445,80.5723248 C64.9191934,81.6449512 68.4198001,82.2469993 71.837853,82.291866 C72.1243309,80.5232845 72.5655286,78.8011347 73.1483254,77.1368942 C72.6404284,77.0909842 72.1259711,77.0669856 71.6054997,77.0669856" id="Fill-165" fill="#898989"></path>
                            <path d="M91.2746561,58.7799043 L85.1548407,61.3595232 C79.5898571,65.3003336 75.3318463,70.8042819 73.1313364,77.1596238 C72.5582254,78.8156882 72.1243598,80.5293774 71.8421053,82.2887512 C71.975437,82.2903086 72.1071557,82.291866 72.2394122,82.291866 C75.7092608,82.291866 79.0898634,81.6927756 82.3193926,80.3944004 C85.2666672,79.2107556 87.8031944,77.499662 89.8370397,75.4339943 L91.4354067,58.7949595 C91.3805687,58.7902872 91.3300317,58.7856149 91.2746561,58.7799043" id="Fill-167" fill="#373837"></path>
                            <path d="M90.1913891,58.7799043 L90.1291866,58.8075499 C90.1862056,58.8127334 90.2420726,58.819069 90.3013954,58.8242524 L90.3048511,58.7914233 C90.2651106,58.7862397 90.2294018,58.78336 90.1913891,58.7799043" id="Fill-169" fill="#F1D6C6"></path>
                            <path d="M90.2472562,58.7799043 L90.1291866,58.8305879 C90.1666233,58.8357715 90.2029081,58.8392272 90.2409208,58.8421069 L90.2472562,58.7799043" id="Fill-171" fill="#EDD4C5"></path>
                            <path d="M24.6594172,10.4497608 C24.255088,10.4497608 23.8779732,10.6261235 23.6092305,10.9190389 C23.4153274,11.130163 23.2782831,11.4026306 23.2253121,11.713438 L22.6314536,14.052161 L22.2057416,15.72684 L25.3412367,22.2057416 L26.1032418,12.2333246 C26.1212227,12.1300629 26.1265684,12.0262901 26.1236526,11.924562 C26.1017838,11.2175776 25.6056058,10.5985189 24.9101791,10.4732758 C24.8256198,10.4569175 24.7425185,10.4497608 24.6594172,10.4497608" id="Fill-173" fill="#F1D6C6"></path>
                            <path d="M8.06370789,1.3062201 C7.83490884,1.3062201 7.60498822,1.35565585 7.38572246,1.45941661 C7.34758929,1.47788711 7.30889533,1.49798737 7.27244451,1.51971738 C6.98644569,1.68703839 6.77222697,1.93367393 6.65053727,2.21507746 C6.48566737,2.59317951 6.48566737,3.03429856 6.6869881,3.42924136 L9.40790233,8.78188428 L12.1372283,14.1475652 L12.824747,15.5013444 C12.8258686,15.5029742 12.8275509,15.5046039 12.8275509,15.5062337 L12.9189584,15.6175999 C12.9172761,15.6300947 12.9172761,15.6420461 12.9155937,15.6545409 C12.9206407,15.6610599 12.925127,15.6686654 12.930174,15.6746411 C12.950923,15.4812441 12.9172761,15.2780685 12.8230647,15.0911905 L12.8180176,15.0814121 L15.1379728,13.9726387 L15.1441414,13.9807875 C15.2607839,14.2111255 15.4508891,14.3833357 15.6746411,14.4822072 C15.6735196,14.4746018 15.6718372,14.4669963 15.6684725,14.4593908 C15.6555746,14.4528717 15.6443589,14.446896 15.6314609,14.440377 L15.5647279,14.1926549 L10.463294,4.16371545 L9.42584736,2.1221817 C9.28340873,1.84512416 9.06302141,1.62999713 8.80225778,1.49038186 C8.57850577,1.36978035 8.32278918,1.3062201 8.06370789,1.3062201" id="Fill-175" fill="#F1D6C6"></path>
                            <path d="M4.02380183,3.91866029 C3.81489885,3.91866029 3.60186938,3.96684075 3.40018773,4.06796679 C2.85342931,4.34434266 2.55787027,4.93468572 2.62079907,5.51708697 C2.63885241,5.67698258 2.68269625,5.83687819 2.75645705,5.98777307 L5.68419369,12.0902792 L7.87071159,16.6441275 C7.87174321,16.6457159 7.87174321,16.6473042 7.87174321,16.6473042 L8.10437344,16.9533295 C8.10127859,16.9623303 8.09869954,16.971331 8.09405724,16.9808612 L8.09560468,16.9808612 C8.1910295,16.7193101 8.18535559,16.4206971 8.05433989,16.1506748 L8.0496976,16.1400856 L10.1057156,15.1012935 L10.1098421,15.1102943 C10.1908242,15.2781319 10.3099763,15.4136724 10.4497608,15.5121512 C10.4482133,15.5057978 10.4451185,15.4999737 10.443571,15.4941497 C10.4348023,15.4877962 10.4260335,15.4819722 10.4172647,15.4756187 L10.389411,15.3702571 L7.32807963,8.99031619 L5.27515649,4.71390272 C5.03272586,4.20986091 4.53858005,3.91866029 4.02380183,3.91866029" id="Fill-177" fill="#F1D6C6"></path>
                            <path d="M1.38416229,9.14354067 L1.37102073,9.14354067 C1.16682128,9.14691029 0.963632716,9.19801623 0.771563923,9.30359774 C0.569891691,9.41423367 0.401578776,9.57260593 0.276228616,9.76018157 C0.199906544,9.87194072 0.137736908,9.99549354 0.0932578194,10.125224 C0.0932578194,10.125224 0.0932578194,10.1263472 0.0917414858,10.128032 C0.0917414858,10.1314017 0.0902251535,10.1347713 0.0887088211,10.1375793 C0.0871924887,10.1392641 0.0871924887,10.1426337 0.0856761564,10.1443185 C0.0856761564,10.1471266 0.0846652677,10.1504962 0.0831489354,10.1538658 C0.0831489354,10.1555506 0.081632603,10.1583586 0.0801162694,10.1617283 C0.0801162694,10.1634131 0.0801162694,10.1650979 0.078599937,10.1667827 C0.0371535132,10.2965132 0.0123867479,10.4341061 0.00379419742,10.571699 C0.00379419742,10.5750686 0.00227786505,10.5761918 0.00227786505,10.5778766 L0.00227786505,10.5907935 C-0.010863685,10.8407072 0.0326045161,11.0984833 0.13925324,11.3382881 L1.85119272,15.1970674 L3.80069095,19.5933014 L6.02262362,18.3763062 L6.02666718,18.386415 C6.13634857,18.6340822 6.31780303,18.8166036 6.53110048,18.9160074 C6.52958415,18.9098297 6.52806781,18.9014056 6.52655149,18.8935432 C6.51543171,18.8890503 6.50532282,18.883996 6.49369761,18.8778184 L6.42596809,18.5942084 L2.61036989,9.9887543 C2.49361228,9.72480054 2.31620138,9.51476074 2.10745292,9.37099018 C1.8911228,9.22385 1.64042249,9.14354067 1.38416229,9.14354067" id="Fill-179" fill="#F1D6C6"></path>
                            <path d="M18.5043952,11.7559809 L18.6627721,12.0924034 C19.0049701,12.8167139 18.7178146,13.695963 18.0157635,14.0573057 C17.8132487,14.1607787 17.5982715,14.2100773 17.388487,14.2100773 C16.8686993,14.2100773 16.37124,13.9121186 16.1271837,13.3958373 L16.1105671,13.360624 C16.1744372,13.8102708 15.9568637,14.271836 15.5409295,14.4863662 C15.3913801,14.5638355 15.234561,14.5990488 15.0787805,14.5990488 C14.9281926,14.5990488 14.7796818,14.564919 14.6436334,14.5004516 C14.438003,14.3996874 14.2604132,14.2284965 14.1524053,13.9998809 L14.1477319,13.9922965 L11.9984793,15.096369 L12.0026334,15.1055787 C12.0903898,15.2941053 12.1215459,15.495092 12.1018137,15.6895779 C12.0696191,16.0167906 11.8930678,16.3228755 11.6074701,16.503276 C11.5809874,16.5206118 11.5545047,16.5357806 11.5264642,16.5498658 C11.5056934,16.5607007 11.4849227,16.5715356 11.4641519,16.57912 C11.3338155,16.636003 11.1977671,16.6641738 11.0627573,16.6641738 C10.8540113,16.6641738 10.6514966,16.5975393 10.4796187,16.4756471 C10.3388969,16.3754246 10.2189459,16.2361967 10.1389785,16.0650057 L10.1348244,16.0557962 L8.06501985,17.1181544 L8.06969326,17.1289893 C8.20002967,17.4052783 8.20574163,17.7113631 8.10967694,17.9784425 C8.01932421,18.2287279 7.84173436,18.4448833 7.59456252,18.5711095 C7.44501317,18.6485788 7.28663625,18.6843338 7.13137494,18.6843338 C6.99065317,18.6843338 6.85148919,18.654538 6.72426839,18.597655 C6.50513705,18.5001411 6.31871964,18.3256999 6.20603836,18.0862494 L6.20136494,18.0770397 L3.91866029,19.2509972 L3.9202181,19.2526224 L7.96895516,28.3208607 C7.95130003,28.2791466 7.93364489,28.2390576 7.91547049,28.1973433 L22.8283446,21.1844784 C24.122362,24.1776092 25.6126627,27.1409443 27.2577056,30.0354778 L27.2961314,30.0381865 L27.430622,30.0430622 L20.9631319,16.7936502 L20.9631319,16.7952755 L19.5034679,13.8021446 L18.5043952,11.7559809" id="Fill-181" fill="#F1D6C6"></path>
                            <path d="M13.1543501,0 L13.1512877,0 C12.9445786,0 12.7337862,0.046541123 12.5357538,0.144226337 C12.4443934,0.189744579 12.3596682,0.243445875 12.2825988,0.304818786 C12.0804832,0.464899792 11.9319588,0.673567684 11.8446816,0.905250419 C11.7155522,1.24945015 11.7226977,1.64325966 11.8972521,1.9987111 L15.9538556,10.248253 L16.9429972,12.2587273 L16.9593299,12.2924824 C17.1992145,12.7809085 17.6881711,13.062201 18.1990745,13.062201 C18.4052732,13.062201 18.6165759,13.0156599 18.8156291,12.9164404 C19.5056804,12.5753093 19.7879278,11.745752 19.4515789,11.0619555 L19.295909,10.7438393 L17.9964484,8.1037813 L16.9970989,6.06824645 L14.3910323,0.768184254 C14.3650023,0.714482958 14.3359099,0.663338866 14.3037551,0.61526342 C14.0434547,0.222988239 13.6070686,0 13.1543501,0" id="Fill-183" fill="#F1D6C6"></path>
                            <path d="M22.8536379,20.8995215 L7.83732057,27.7979131 C7.85562104,27.8389464 7.87339864,27.878381 7.89117623,27.9194144 L8.28176048,28.7720544 L8.28908067,28.7720544 C14.1394785,41.5739132 24.1576769,55.4650197 35.6770364,66.0111125 L35.6754678,66.0127112 L35.7664473,66.093179 C36.5999028,66.8546933 37.4406785,67.597556 38.2887745,68.3217672 L38.5120401,68.5120126 C39.3350384,69.2106445 40.1637881,69.891158 40.9998579,70.5519541 L41.3146259,70.7981539 C41.7569744,71.1461377 42.1967084,71.5063781 42.6442856,71.8421053 L42.6636319,71.8191905 L42.6636319,71.8207892 L53.5550239,59.3935592 C44.2421778,52.6561034 34.3698602,41.7412438 27.3132002,29.606043 C25.6557008,26.7576921 24.1566311,23.8437945 22.8536379,20.8995215" id="Fill-185" fill="#F1D6C6"></path>
                            <path d="M89.8342049,75.2737642 C87.8083365,77.3869251 85.2833644,79.1363889 82.3460426,80.3490673 C68.2415433,86.1687554 51.2302467,78.2704177 36.5741627,65.2160732 L47.0226738,52.2488038 C57.8053489,62.0994262 69.0533901,67.7162932 75.8657272,64.9054704 L91.4354067,58.1699023" id="Fill-187" fill="#26416C"></path>
                            <path d="M188.675416,104.497608 L212.745653,80.5639664 C212.745653,80.5639664 221.235287,68.8352614 213.742674,54.405816 L201.092227,41.7990431 L167.196172,78.7266247 C185.045928,87.3459419 188.675416,104.497608 188.675416,104.497608" id="Fill-189" fill="#F3F4F4"></path>
                            <path d="M179.568155,113.641148 L200.162582,86.3632275 C200.162582,86.3632275 206.934084,73.4822207 197.247104,60.2766016 L182.652121,49.6363636 L154.133971,91.2460656 C173.35437,97.1652463 179.568155,113.641148 179.568155,113.641148" id="Fill-191" fill="#FEFEFE"></path>
                            <path d="M200.197101,86.2105263 C200.197101,86.2105263 206.867041,73.3095547 197.325351,60.0861244 L186.789474,68.353267 C199.193984,76.5141508 200.197101,86.2105263 200.197101,86.2105263" id="Fill-193" fill="#D8D8D8"></path>
                        </g>
                    </g>
                </g>
                <path d="M96.2706045,130.62201 L96.1514665,130.62201 C94.2447283,130.632748 92.3067496,131.133178 90.5286806,132.176992 C90.4169555,132.241425 90.306819,132.310153 90.1977415,132.379418 C86.8285179,134.50839 84.9328994,138.146704 84.9043062,141.8618 L84.9043062,142.036306 C84.9191323,143.862443 85.3856238,145.704151 86.3519658,147.386388 C88.3428947,150.859325 91.962573,152.800367 95.7257465,152.827751 L95.8824792,152.827751 C97.7833928,152.81379 99.7139584,152.311751 101.484614,151.273843 C105.054519,149.178698 107.074042,145.432996 107.110048,141.602995 L107.110048,141.393587 C107.092045,139.573357 106.625553,137.739703 105.663977,136.062298 C103.667223,132.58292 100.039602,130.641876 96.2706045,130.62201" id="Fill-154" fill="#F2D9C8"></path>
            </g>
        </g>
    </g>
</svg>