<?xml version="1.0" encoding="UTF-8"?>
<svg width="274px" height="284px" viewBox="0 0 274 284" version="1.1" xmlns="http://www.w3.org/2000/svg" xmlns:xlink="http://www.w3.org/1999/xlink">
    <!-- Generator: sketchtool 41.2 (35397) - http://www.bohemiancoding.com/sketch -->
    <title>9270DE85-3502-43AA-945B-E3EB0783348F</title>
    <desc>Created with sketchtool.</desc>
    <defs>
        <polygon id="path-1" points="0.0702713913 0.347489859 0.0702713913 22.3195818 22.3947471 22.3195818 22.3947471 0.347489859 0.0706440426 0.347489859 22.3961845 0.345842736 22.3961845 22.3195287 0.0706440426 22.3195287 0.0706440426 0.347489859"></polygon>
        <path d="M0.255290171,10.4856066 C14.4342691,7.18012581 58.6429689,24.9300716 66.5497795,29.212985 C78.0789364,35.458029 92.4998138,38.2152569 103.666667,38.2152569 C117.201806,38.2152569 133.421105,38.5065732 149.216368,31.8374909 C158.73299,27.8193789 105.692648,28.9692042 157.77937,10.4856066 C209.866091,-7.99799106 208.283169,5.93379435 209.866091,8.01517768 C216.511025,22.1524676 185.982637,69.9287509 143.447213,75.2144563 C73.5070934,74.9051512 28.6126189,15.1020397 0.255290171,10.4856066 Z" id="path-3"></path>
    </defs>
    <g id="Page-1" stroke="none" stroke-width="1" fill="none" fill-rule="evenodd">
        <g id="Logo-appbar---alt-version-Copy-2" transform="translate(-1404.000000, -801.000000)">
            <g id="Unknown-error" transform="translate(1368.000000, 754.000000)">
                <g id="Group-2">
                    <g id="Page-1" transform="translate(31.493671, 57.739130)">
                        <g id="Group-73" transform="translate(5.248945, 0.297545)">
                            <path d="M272.734183,136.367454 C272.734183,211.489023 211.717853,272.387418 136.450805,272.387418 C61.1842889,272.387418 0.167959272,211.489023 0.167959272,136.367454 C0.167959272,61.2458847 61.1842889,0.347489859 136.450805,0.347489859 C211.717853,0.347489859 272.734183,61.2458847 272.734183,136.367454" id="Fill-1" fill="#FF5252"></path>
                            <path d="M269.756539,164.781604 C264.119922,191.252468 250.774213,214.869557 232.167733,233.191412 L232.16933,233.191412 C250.774213,214.869557 264.119922,191.252468 269.756539,164.781604 M184.540233,263.677537 C178.464952,265.964913 172.191101,267.82935 165.73678,269.2395 C172.191101,267.82935 178.464952,265.964913 184.540233,263.677537" id="Fill-3" fill="#EAEAE9"></path>
                            <path d="M228.713788,152.317132 C222.614551,156.849377 215.053455,159.529938 206.864709,159.529938 C206.742799,159.529938 206.621421,159.529938 206.50164,159.528875 C203.888289,163.515444 201.062528,167.283637 198.069605,170.701152 L198.060555,170.693714 C196.192507,172.827535 194.258979,174.824273 192.272216,176.652049 C195.767685,179.302854 198.130294,183.365404 198.511463,187.986913 C199.503781,187.741439 200.541881,187.612857 201.610325,187.612857 C206.42711,187.612857 210.62689,190.255692 212.830324,194.170001 C213.617683,194.854354 214.316138,195.604061 214.93953,196.396274 C215.008205,196.39468 215.077944,196.39468 215.147683,196.39468 C218.526033,196.39468 221.441231,198.370165 222.798214,201.228189 C225.026137,203.309409 226.41932,206.270512 226.41932,209.556257 C226.41932,214.015179 223.856012,217.876354 220.117787,219.749824 C221.594551,223.389966 222.406398,227.369097 222.406398,231.535787 C222.406398,232.091559 222.393089,232.643079 222.363809,233.191412 L232.16933,233.191412 C250.774213,214.869557 264.119922,191.252468 269.756539,164.781604 C266.874347,165.35544 263.895266,165.655642 260.843784,165.655642 C248.284903,165.655642 236.91957,160.555405 228.713788,152.317132 M188.036767,154.33778 C183.678344,160.529901 176.466476,164.575448 168.307542,164.575448 C167.439264,164.575448 166.582166,164.530285 165.738377,164.441021 L165.738377,171.587411 C165.947594,171.618759 166.158408,171.644794 166.372417,171.661266 C166.623158,171.682519 166.876561,171.691551 167.131561,171.691551 C172.656915,171.691551 179.36943,166.980779 185.758803,159.575632 L186.0516,159.240894 C186.482811,158.735068 186.910828,158.210645 187.337247,157.681972 C187.470869,157.517259 187.604492,157.355204 187.737581,157.188366 C188.147498,156.671913 188.55422,156.140052 188.960942,155.602346 C189.089773,155.431258 189.220734,155.261763 189.347967,155.087487 C188.905045,154.846795 188.469043,154.596538 188.036767,154.33778 M185.011903,262.97193 L173.509754,262.97193 L173.53584,267.273578 C170.969337,267.996187 168.362375,268.648661 165.738377,269.223028 L165.738377,269.237906 C172.191101,267.827756 178.466549,265.963319 184.54183,263.675943 C184.69515,263.438438 184.851131,263.205184 185.011903,262.97193" id="Fill-5" fill="#D02A2A"></path>
                            <path d="M258.259022,75.2948359 C266.205545,91.0524915 271.172455,108.566724 272.422966,127.094203 L272.422966,127.088359 C271.172455,108.56088 266.205545,91.0524915 258.259022,75.2948359 M272.679563,132.462762 C272.715763,133.759208 272.735461,135.060435 272.735461,136.367507 C272.735461,146.109975 271.708008,155.617595 269.75638,164.781445 L269.757977,164.781445 C271.708008,155.617595 272.735461,146.109975 272.735461,136.367507 C272.735461,135.064686 272.71736,133.760802 272.68116,132.467013 C272.679563,132.465419 272.679563,132.463825 272.679563,132.462762" id="Fill-7" fill="#EAEAE9"></path>
                            <path d="M258.257478,75.2948359 C245.22107,76.0264774 233.656635,82.2611043 225.859172,91.7065588 C236.430758,98.1181186 243.4925,109.722367 243.4925,122.971613 C243.4925,134.989237 237.682866,145.6525 228.713681,152.316973 C236.919463,160.555777 248.283732,165.655483 260.843678,165.655483 C263.894095,165.655483 266.873176,165.355812 269.756433,164.781445 C271.706464,155.617595 272.733917,146.109975 272.733917,136.367507 C272.733917,135.060435 272.715817,133.759208 272.679616,132.462762 C272.501808,131.005324 272.410775,129.520788 272.410775,128.017124 C272.410775,127.70789 272.413969,127.401844 272.421422,127.094203 C271.172508,108.566724 266.204001,91.0524915 258.257478,75.2948359" id="Fill-9" fill="#E84040"></path>
                            <path d="M206.864496,86.412758 C205.888682,86.412758 204.921918,86.4504824 203.965801,86.5264626 C203.070373,97.4819571 197.336866,107.071933 188.898976,113.160976 C188.561993,117.092818 187.837984,121.046445 186.693412,124.974037 C190.257024,129.166763 192.406157,134.595362 192.406157,140.523943 C192.406157,145.664561 190.789915,150.43006 188.038151,154.337993 C188.469362,154.596751 188.904832,154.847007 189.349352,155.0877 C189.36479,155.066446 189.381293,155.043599 189.396731,155.022346 C189.794404,154.487828 190.188882,153.941089 190.581763,153.386381 C196.083161,145.611428 201.015467,136.085743 204.279893,126.22957 L204.11007,126.275264 L205.887085,119.475302 L202.847315,109.53146 C202.577409,108.866766 202.792482,108.124498 203.332826,107.695715 C203.449945,107.600075 203.583567,107.521439 203.730498,107.462461 C203.929601,107.38223 204.134026,107.344506 204.336323,107.344506 C204.468348,107.344506 204.598776,107.359383 204.724413,107.391263 C205.201406,107.509218 205.613984,107.843956 205.81149,108.32906 L207.797721,112.164201 L209.201552,106.796173 L210.612836,101.087032 L211.974078,95.5829835 C211.993775,95.5022213 212.019861,95.4251785 212.053399,95.3507923 C212.19128,95.0330569 212.438827,94.7843944 212.740675,94.6377473 C212.743869,94.6361533 212.746531,94.6345593 212.749725,94.6329654 C212.749725,94.6329654 212.751322,94.6329654 212.752919,94.6313714 C212.944036,94.5421079 213.15485,94.4921629 213.375247,94.4921629 C213.490236,94.4921629 213.607355,94.5059775 213.725539,94.5346693 C213.88365,94.5739877 214.030581,94.6377473 214.161009,94.7206348 C214.671009,95.0447462 214.941447,95.6632143 214.789725,96.2747752 L212.323305,106.246246 L211.953316,107.741409 C211.95438,108.215356 212.258357,108.645733 212.743869,108.765282 C212.824255,108.784941 212.904641,108.793974 212.98343,108.793974 C213.227783,108.793974 213.458827,108.704711 213.645153,108.557532 C213.649944,108.466675 213.663253,108.374223 213.686144,108.283366 L214.39365,105.418966 L216.845695,95.5054093 C217.007,94.851342 217.595789,94.41512 218.245267,94.41512 C218.259108,94.41512 218.274014,94.4161827 218.289453,94.4161827 C218.391133,94.4193707 218.493879,94.4331853 218.598753,94.4586891 C219.185945,94.6026795 219.599056,95.0814079 219.685298,95.6387732 C219.712981,95.820488 219.706593,96.0096415 219.659745,96.1993264 L217.293409,105.769112 L216.501259,108.975689 C216.486353,109.033073 216.469317,109.0878 216.44962,109.140933 C216.556092,109.484703 216.821739,109.77109 217.198117,109.86301 C217.282762,109.884263 217.366342,109.893827 217.449923,109.893827 C217.75177,109.893827 218.034453,109.760463 218.233023,109.543681 C218.238879,109.49958 218.247929,109.456011 218.259108,109.411911 L221.121071,97.8363543 C221.28344,97.182287 221.870632,96.746065 222.52011,96.746065 C222.637229,96.746065 222.753816,96.7609422 222.872532,96.7901654 C223.121143,96.850737 223.338346,96.9718803 223.514557,97.1339359 C223.625287,97.237014 223.72058,97.3565632 223.793513,97.4883331 C223.909035,97.6928952 223.973983,97.9261491 223.977177,98.1668416 C223.977177,98.1684356 223.977177,98.1700296 223.978774,98.1710922 C223.978774,98.2895788 223.966529,98.4091281 223.936185,98.5302713 L221.074223,110.104234 L221.072626,110.106891 C221.039087,110.241849 220.987448,110.367774 220.920904,110.481478 C221.063576,110.702512 221.285037,110.870412 221.561331,110.938954 C221.641718,110.958613 221.722104,110.967645 221.800893,110.967645 C222.034599,110.967645 222.254995,110.885821 222.438659,110.750863 C222.441321,110.650973 222.455162,110.551083 222.480715,110.451193 L222.930026,108.633512 L224.658596,101.638552 C224.690538,101.511033 224.737385,101.393078 224.798074,101.285749 C224.956185,101.000956 225.206394,100.782579 225.500788,100.659842 L225.505579,100.65878 L225.507177,100.65878 C225.675402,100.588644 225.857469,100.55092 226.044327,100.547732 L226.059233,100.547732 C226.176352,100.547732 226.294536,100.56314 226.413252,100.591832 C226.866821,100.703943 227.218711,101.015833 227.393325,101.408486 C227.469452,101.577981 227.512041,101.761289 227.517897,101.952037 L227.517897,102.026423 C227.514702,102.127907 227.501393,102.230985 227.475308,102.332469 L225.675402,109.610097 L225.382604,110.790181 L225.279327,111.255095 L223.222824,120.422132 C220.542929,132.970023 214.526739,147.284055 206.501959,159.528556 C206.62174,159.53015 206.743118,159.53015 206.864496,159.53015 C215.053775,159.53015 222.614338,156.849059 228.713575,152.317345 C237.68276,145.653934 243.493991,134.989077 243.493991,122.971454 C243.493991,109.722208 236.432248,98.1200845 225.860663,91.7069307 C220.321467,88.3467994 213.819766,86.412758 206.864496,86.412758" id="Fill-11" fill="#E84040"></path>
                            <path d="M186.693625,124.973878 C186.26135,126.45682 185.76945,127.93498 185.215264,129.40889 C181.122488,140.287341 174.268898,149.418248 165.738377,156.290471 L165.738377,164.439481 C166.582166,164.528744 167.439264,164.575501 168.307542,164.575501 C176.466476,164.575501 183.678344,160.52836 188.036767,154.337833 C190.789596,150.428307 192.405838,145.664402 192.405838,140.523783 C192.405838,134.595202 190.257237,129.166603 186.693625,124.973878" id="Fill-13" fill="#D02A2A"></path>
                            <path d="M272.423019,127.0899 L272.423019,127.095744 C272.553205,128.8757 272.645781,130.663094 272.701905,132.462709 L272.701905,132.468554 C272.647517,130.664688 272.553205,128.8757 272.423019,127.0899" id="Fill-15" fill="#EAEAE9"></path>
                            <path d="M272.424083,127.095957 C272.415982,127.402003 272.410775,127.709643 272.410775,128.018346 C272.410775,129.522541 272.509716,131.005483 272.702969,132.46239 C272.64858,130.664369 272.554268,128.877507 272.424083,127.095957" id="Fill-17" fill="#E1E2E2"></path>
                            <path d="M13.2346583,85.4403177 L10.0431659,85.4403177 C9.34471091,87.1671404 8.68032685,88.9120283 8.05054612,90.6723248 C9.50122446,88.6739925 11.2510886,86.9094453 13.2346583,85.4403177" id="Fill-19" fill="#D02A2A"></path>
                            <path d="M165.738217,269.238118 C156.30588,271.299679 146.503553,272.385718 136.452615,272.385718 C146.503553,272.385718 156.30588,271.299679 165.738217,269.238118" id="Fill-21" fill="#EAEAE9"></path>
                            <path d="M35.8275494,127.37618 C35.3723825,127.541424 34.907633,127.694447 34.4407542,127.833655 L35.204157,129.379826 C35.2494075,129.472277 35.2840109,129.567917 35.3084994,129.664619 C35.4511716,129.728378 35.604491,129.763446 35.7610046,129.763446 C35.9095327,129.763446 36.061255,129.731566 36.2055243,129.660368 C36.4589272,129.534443 36.6425911,129.322442 36.7336245,129.078562 C36.6441882,128.980266 36.5669961,128.868155 36.5041778,128.743824 L36.503113,128.740636 L35.8275494,127.37618 Z" id="Fill-23" fill="#E1E2E2"></path>
                            <path d="M39.1573487,127.586746 C39.3378184,127.714266 39.5550209,127.784933 39.7764822,127.784933 C39.9101043,127.784933 40.0437264,127.759429 40.1725573,127.706296 C40.1938517,127.697263 40.215146,127.68823 40.2364404,127.677604 C40.2651878,127.663789 40.2923381,127.648912 40.3200208,127.631909 C40.6170771,127.450195 40.7858349,127.141492 40.8145823,126.812598 C40.7842378,126.765841 40.7549581,126.718553 40.7310019,126.667545 L40.7262107,126.662763 L40.0740709,125.338689 C39.5576827,125.652174 39.0295825,125.94653 38.4913675,126.220165 L39.1041128,127.462415 C39.12381,127.503328 39.1419103,127.54424 39.1573487,127.586746" id="Fill-25" fill="#E1E2E2"></path>
                            <path d="M79.7554738,238.156585 C79.8316011,238.029066 79.9103903,237.905266 79.9907765,237.780935 C80.9543463,237.848945 81.9450665,237.933958 82.9528221,238.037036 C83.7332604,237.982309 84.5222165,237.953617 85.3159638,237.953617 C90.5442618,237.953617 95.4888124,239.173019 99.8759831,241.341909 L99.7530082,220.124305 C91.1452951,220.110491 84.1703272,213.139972 84.1703272,204.544114 C84.1703272,199.710604 86.3753583,195.39036 89.8367567,192.533929 C83.8652855,190.634424 77.8187517,187.291296 71.9942116,182.994429 L71.9745143,183.017277 C57.0817706,172.026183 43.6450288,154.755831 36.6093719,139.262246 L32.4372742,130.326869 L31.535458,128.500156 C30.2471492,128.712157 28.924237,128.822673 27.576304,128.822673 C14.7682782,128.822673 4.29571144,118.851733 3.52379086,106.263993 C3.38910402,106.856957 3.2608055,107.452047 3.13463641,108.047668 C3.06063851,108.396752 2.98131701,108.74371 2.9099809,109.094388 C1.11273683,117.905966 0.167799565,127.026246 0.167799565,136.36756 C0.167799565,179.957347 20.7152609,218.755068 52.6669172,243.647881 C65.599515,237.263419 78.2393153,231.253013 79.7554738,238.156585" id="Fill-27" fill="#D02A2A"></path>
                            <path d="M151.540734,168.472966 C152.044346,168.663714 152.542634,168.866682 153.034002,169.078683 L165.531662,171.552555 C165.600336,171.564245 165.668478,171.576465 165.73662,171.587092 L165.73662,156.290099 C161.393103,159.788908 156.612519,162.702191 151.540734,164.963531 L151.540734,168.472966 Z" id="Fill-29" fill="#D02A2A"></path>
                            <path d="M141.261414,272.293744 C142.082312,272.265052 142.902677,272.236892 143.719848,272.193854 C144.177144,272.169944 144.632311,272.135939 145.088011,272.107247 C145.833846,272.061022 146.579148,272.014796 147.321257,271.95635 C147.805171,271.918094 148.285359,271.871337 148.767144,271.828299 C149.478376,271.76454 150.189075,271.701311 150.89658,271.626394 C151.392739,271.574323 151.886768,271.514814 152.381862,271.456899 C153.06967,271.3772 153.757477,271.295906 154.442091,271.20558 C154.948365,271.139164 155.453041,271.066372 155.957717,270.994111 C156.624231,270.899003 157.28968,270.801238 157.952999,270.696566 C158.469387,270.614741 158.984711,270.528135 159.49897,270.440465 C160.142592,270.331542 160.785149,270.218369 161.425577,270.099882 C161.954742,270.002649 162.482309,269.901165 163.009345,269.797556 C163.625817,269.675881 164.240691,269.549956 164.854501,269.41978 C165.149428,269.357614 165.442758,269.292792 165.73662,269.22797 L165.73662,269.222657 C156.301621,271.285811 146.506748,272.370787 136.451018,272.370787 C129.262042,272.370787 122.197105,271.814485 115.308912,270.743855 L115.235446,270.743855 C115.320623,270.757138 115.404736,270.772546 115.489381,270.78583 C115.753431,270.826211 116.019079,270.862872 116.284193,270.902191 C117.051855,271.015364 117.821114,271.123756 118.592502,271.224177 C118.931082,271.268809 119.270195,271.311315 119.609308,271.35329 C120.369516,271.446804 121.131855,271.53288 121.89579,271.614173 C122.181667,271.644459 122.466479,271.677401 122.752888,271.706093 C123.78247,271.808109 124.814182,271.90056 125.84962,271.98026 C126.053514,271.995668 126.25794,272.007357 126.462366,272.022235 C127.307752,272.083338 128.155267,272.137002 129.005445,272.182696 C129.347219,272.201293 129.690058,272.216701 130.032365,272.232641 C130.786718,272.267709 131.542668,272.29587 132.299682,272.318717 C132.623357,272.328281 132.945966,272.339439 133.270173,272.346877 C134.32797,272.371318 135.387365,272.387258 136.451018,272.387258 C137.669588,272.387258 138.883899,272.369724 140.095015,272.337845 C140.485235,272.327749 140.87226,272.307028 141.261414,272.293744" id="Fill-31" fill="#E1E2E2"></path>
                            <path d="M43.9104097,125.756899 C44.0578732,125.756899 44.2079984,125.725019 44.3506707,125.653821 C44.8010464,125.431193 45.0033428,124.94662 44.9048564,124.484363 L43.9061509,122.459464 C43.4477898,122.880278 42.9723931,123.285151 42.4836876,123.669834 L43.3290737,125.382842 C43.3716624,125.467855 43.403604,125.555525 43.4280925,125.643194 C43.5782177,125.715986 43.7437814,125.756899 43.9104097,125.756899" id="Fill-33" fill="#E1E2E2"></path>
                            <path d="M106.269934,167.514128 C105.800926,167.364293 105.338306,167.209676 104.881542,167.050808 C104.857054,167.041244 104.835759,167.0354 104.811271,167.026367 C104.668599,167.033806 104.524862,167.036994 104.377398,167.036994 C99.0490166,167.036994 91.3335373,162.385199 83.6739556,155.124043 C72.4342595,145.934158 64.0597197,133.436212 59.9924968,119.696548 C56.0195014,119.124306 52.2530613,117.913936 48.7985836,116.173299 C48.0154834,117.622767 47.0897111,118.980315 46.0367049,120.231598 L47.3904939,122.971667 L48.4147527,124.981688 L49.912811,127.916755 L50.3786251,126.17665 L51.0297002,123.745283 C51.0855979,123.422766 51.2373202,123.139567 51.4497315,122.920128 C51.7446584,122.615675 52.1572366,122.432367 52.6006917,122.432367 L52.6017564,122.432367 C52.6911927,122.432367 52.7838232,122.439805 52.8764537,122.454682 C53.6382594,122.58539 54.181798,123.22883 54.2046895,123.965254 C54.2089483,124.070989 54.2014953,124.178849 54.1833951,124.286177 L53.3470591,134.64977 L56.5433426,140.911495 L56.5417456,140.911495 L56.3687289,140.904056 C61.668363,149.833058 68.5310032,158.085145 75.5757102,164.503081 C76.0782571,164.960556 76.5792069,165.410061 77.0828186,165.847877 C77.2664824,166.006745 77.4485492,166.162956 77.6338101,166.320761 C78.1448748,166.758046 78.6564718,167.191611 79.1680689,167.608174 C79.3336325,167.743131 79.4970667,167.871713 79.6642275,168.005077 C80.1939247,168.430673 80.725219,168.851486 81.2565133,169.253171 L81.6084026,169.513523 C88.3480679,174.564878 94.8923574,177.617369 100.026428,177.617369 C101.446762,177.617369 102.761156,177.384115 103.938734,176.893166 L113.189005,172.864091 C114.621583,171.814182 116.142,170.875322 117.738545,170.054417 C113.900236,169.575689 110.06246,168.736719 106.269934,167.514128" id="Fill-35" fill="#D02A2A"></path>
                            <path d="M167.457737,46.9579412 C167.301223,46.9579412 167.145242,46.9595351 166.988729,46.9611291 C163.715253,47.0020415 160.543458,47.471206 157.530838,48.3165521 C165.413478,53.6224141 172.200523,60.6508481 177.144542,69.1345952 C180.092214,74.190732 182.184917,78.6544359 183.532318,82.6319727 C185.556879,87.0096011 187.056534,91.6295159 187.984969,96.3976719 C188.353893,98.2955829 189.012422,102.082372 189.10239,106.388802 C189.158288,108.63314 189.091743,110.893419 188.897432,113.162198 C197.335323,107.071561 203.070426,97.4837105 203.964257,86.5260907 C204.04624,85.5340975 204.087232,84.5298837 204.087232,83.5166372 C204.087232,63.3255636 187.687912,46.9579412 167.457737,46.9579412" id="Fill-39" fill="#E84040"></path>
                            <path d="M24.4044024,182.273308 L9.80498852,164.034873 C9.80498852,164.034873 4.91047965,155.352408 11.1582452,146.064759 L20.7907494,138.421576 L41.0997138,166.308434 C28.2214166,170.820489 24.4044024,182.273308 24.4044024,182.273308" id="Fill-41" fill="#FEFEFE"></path>
                            <path d="M9.80482881,164.034873 C9.80482881,164.034873 4.91031994,155.352408 11.1586178,146.064759 L18.600997,151.477949 C10.264787,157.365618 9.80482881,164.034873 9.80482881,164.034873" id="Fill-43" fill="#D8D8D8"></path>
                            <path d="M198.564539,189.30153 C198.564539,198.068476 191.443705,205.177141 182.658184,205.177141 C173.87426,205.177141 166.753426,198.068476 166.753426,189.30153 C166.753426,180.534584 173.87426,173.425919 182.658184,173.425919 C191.443705,173.425919 198.564539,180.534584 198.564539,189.30153" id="Fill-45" fill="#8B8A8A"></path>
                            <path d="M214.470842,200.448144 C214.470842,207.537149 208.712846,213.283484 201.610645,213.283484 C194.50791,213.283484 188.749915,207.537149 188.749915,200.448144 C188.749915,193.359138 194.50791,187.612803 201.610645,187.612803 C208.712846,187.612803 214.470842,193.359138 214.470842,200.448144" id="Fill-47" fill="#8B8A8A"></path>
                            <path d="M178.597137,200.448144 C178.597137,207.537149 172.839141,213.283484 165.73694,213.283484 C158.634206,213.283484 152.87621,207.537149 152.87621,200.448144 C152.87621,193.359138 158.634206,187.612803 165.73694,187.612803 C172.839141,187.612803 178.597137,193.359138 178.597137,200.448144" id="Fill-49" fill="#8B8A8A"></path>
                            <path d="M212.82878,194.169788 C213.241358,194.903024 213.58473,195.679828 213.847183,196.493295 C214.203864,196.438568 214.567997,196.405625 214.937987,196.396593 C214.314594,195.60438 213.616139,194.854673 212.82878,194.169788 M222.796671,201.228508 C223.315721,202.323579 223.606921,203.547233 223.606921,204.839427 C223.606921,209.050218 220.518706,212.539994 216.480231,213.179184 C217.941556,215.20302 219.166514,217.405383 220.11784,219.751737 C223.854468,217.876142 226.419374,214.015497 226.419374,209.557638 C226.419374,206.27083 225.025658,203.309197 222.796671,201.228508" id="Fill-51" fill="#B7B7B8"></path>
                            <path d="M151.465938,191.844688 C146.342515,193.741005 142.542004,197.264255 140.190042,201.759838 C142.715553,200.90546 145.384801,200.360315 148.153068,200.173818 C148.219613,196.972023 149.462671,194.057678 151.465938,191.844688" id="Fill-53" fill="#777677"></path>
                            <path d="M160.6552,190.298199 C157.235858,190.298199 154.167341,190.846531 151.466151,191.845963 C149.461287,194.058953 148.219826,196.973298 148.152748,200.175625 C148.866109,200.127274 149.586924,200.102832 150.312529,200.102832 C156.06733,200.102832 161.459595,201.641564 166.101765,204.331688 C166.340262,200.339274 169.357141,197.091785 173.250282,196.493507 C172.9857,195.680041 172.642861,194.902705 172.230282,194.170001 C169.574343,191.862966 165.901598,190.298199 160.6552,190.298199" id="Fill-55" fill="#777677"></path>
                            <path d="M214.939797,196.39638 C214.569275,196.405413 214.205141,196.437293 213.848461,196.493082 C209.955851,197.09136 206.938973,200.337786 206.702073,204.330201 C210.553691,206.562849 213.887855,209.586118 216.481508,213.177909 C220.519984,212.539781 223.608731,209.048411 223.608731,204.837621 C223.608731,203.54702 223.316998,202.323367 222.797948,201.228296 C221.033178,199.58011 218.74297,198.485039 216.205746,198.218311 C215.819786,197.592935 215.401352,196.982437 214.939797,196.39638 M219.97964,207.336997 C219.894994,207.075052 219.809817,206.80673 219.721978,206.534158 C219.970589,207.018731 220.08132,207.321589 219.97964,207.336997" id="Fill-57" fill="#777677"></path>
                            <path d="M173.540505,205.330004 C173.41842,205.346784 173.298071,205.364721 173.177722,205.384394 L173.177722,205.574178 C173.298071,205.491436 173.420156,205.41101 173.540505,205.330004" id="Fill-59" fill="#777677"></path>
                            <path d="M115.392385,204.543902 C115.392385,213.148792 108.403576,220.124093 99.7820218,220.124093 C91.1604674,220.124093 84.1716581,213.148792 84.1716581,204.543902 C84.1716581,195.939011 91.1604674,188.96371 99.7820218,188.96371 C108.403576,188.96371 115.392385,195.939011 115.392385,204.543902" id="Fill-61" fill="#8B8A8A"></path>
                            <path d="M62.217651,220.124093 C62.217651,209.604289 70.7620134,201.075379 81.3032544,201.075379 C91.8434308,201.075379 100.387793,209.604289 100.387793,220.124093" id="Fill-63" fill="#8B8A8A"></path>
                            <path d="M47.6119553,243.923004 C47.6119553,258.735423 59.6438016,270.743483 74.4843741,270.743483 C89.325479,270.743483 101.357325,258.735423 101.357325,243.923004 C101.357325,229.110584 89.325479,217.102525 74.4843741,217.102525 C59.6438016,217.102525 47.6119553,229.110584 47.6119553,243.923004" id="Fill-65" fill="#BABABB"></path>
                            <path d="M139.14928,270.743695 C139.14928,252.633841 124.4402,237.953723 106.295807,237.953723 C88.1508821,237.953723 73.4402052,252.633841 73.4402052,270.743695 L139.14928,270.743695" id="Fill-67" fill="#BABABB"></path>
                            <path d="M79.99067,237.780881 C79.9102838,237.905213 79.8314947,238.029544 79.7553673,238.156532 C79.7734675,238.241545 79.7915677,238.326026 79.8102003,238.412633 C80.8419121,238.238357 81.8906594,238.112431 82.953248,238.036983 C81.9454924,237.933905 80.9542399,237.848892 79.99067,237.780881" id="Fill-69" fill="#B7B7B8"></path>
                            <path d="M79.770727,238.155044 C79.7065022,238.262087 79.6422774,238.369708 79.5792097,238.476751 C79.6636856,238.461707 79.7458471,238.448399 79.830323,238.433934 C79.810072,238.339621 79.7903995,238.248779 79.770727,238.155044" id="Fill-71" fill="#999998"></path>
                        </g>
                        <path d="M92.7563649,248.937325 C91.6943086,249.013305 90.6455614,249.138699 89.6133172,249.312975 C89.5361251,249.325196 89.4599978,249.338479 89.3828057,249.352294 C88.0971587,251.57591 87.3582444,254.15233 87.3582444,256.910464 C87.3582444,264.647692 93.1492458,270.973177 100.629955,271.966764 L100.629955,272.169732 L109.796113,272.169732 L109.683785,252.951524 C104.27342,250.651927 98.2412599,249.502129 92.7563649,248.937325" id="Fill-74" fill="#999998"></path>
                        <g id="Group-80" transform="translate(8.443099, 236.208091)" fill="#BABABB">
                            <path d="M59.0690136,17.4459568 C59.0690136,26.9519829 51.348743,34.6573315 41.8243077,34.6573315 C32.3009371,34.6573315 24.5796018,26.9519829 24.5796018,17.4459568 C24.5796018,7.93993075 32.3009371,0.234582221 41.8243077,0.234582221 C51.348743,0.234582221 59.0690136,7.93993075 59.0690136,17.4459568" id="Fill-76"></path>
                            <path d="M0.327613744,34.6574377 C0.327613744,23.036718 9.76740397,13.6151734 21.4106282,13.6151734 C33.0554495,13.6151734 42.4936427,23.036718 42.4936427,34.6574377" id="Fill-78"></path>
                        </g>
                        <path d="M71.0026845,90.2016727 L69.2560146,93.6202503 C64.8443553,102.25702 56.4820598,108.820541 45.6203386,110.960738 C42.416602,111.591958 39.1931681,111.757202 36.0032728,111.573893 L37.7499427,108.155315 C40.939838,108.338624 44.1632719,108.173381 47.3670085,107.541629 C58.2287297,105.401432 66.5910253,98.8384428 71.0026845,90.2016727" id="Fill-81" fill="#D02A2A"></path>
                        <g id="Group-153" transform="translate(0.569682, 32.708678)">
                            <path d="M56.29935,74.0076888 C56.0608531,77.5203119 55.0669388,80.8251848 53.4794442,83.7623774 C56.9323248,85.5030147 60.700362,86.7128532 64.6733574,87.285627 C62.9964265,81.6221799 62.054151,75.7493888 61.9418233,69.8075247 C60.2420009,71.3829183 58.3542558,72.7930683 56.29935,74.0076888 L56.29935,74.0076888 Z" id="Fill-83" fill="#D02A2A"></path>
                            <path d="M39.6084039,75.5163474 C39.5993538,75.5163474 39.5908361,75.5158161 39.581786,75.5158161 C39.6531221,75.5158161 39.7244582,75.5115654 39.7957943,75.5110341 C39.7335083,75.5115654 39.6706899,75.5163474 39.6084039,75.5163474 L39.6084039,75.5163474 Z M36.6186756,40.3040417 L36.6186756,40.301385 L36.6186756,40.3040417 L36.6186756,40.3040417 Z M85.6713009,18.071598 C80.9109465,15.8113199 75.5836297,14.5467544 69.9608537,14.5467544 C50.6644361,14.5467544 34.8523084,29.4394046 33.4346363,48.3366895 C33.0449495,48.3170303 32.6499391,48.3079977 32.2554611,48.3079977 C26.8828938,48.3079977 21.920243,50.0635122 17.9126442,53.0293966 C15.9290745,54.4985242 14.1792104,56.2646653 12.7279997,58.2608724 C10.9222379,63.3186032 9.40448228,68.5187305 8.20081852,73.8320311 C8.96422136,86.4298668 19.4421117,96.4114333 32.2554611,96.4114333 C33.6044588,96.4114333 34.9279034,96.3009167 36.2151475,96.088916 L35.0647196,93.756377 L33.2616196,90.1061395 C33.1492919,89.8771363 33.1040414,89.6348497 33.1162856,89.3968139 C33.1173503,89.3941572 33.1173503,89.3893753 33.1173503,89.3861873 L33.1173503,89.3803426 C33.1264004,89.2485728 33.1540831,89.1199909 33.1977365,88.9956597 L33.1977365,88.9924717 C33.1993336,88.9898151 33.2009307,88.9866271 33.2025278,88.9834391 C33.2025278,88.9802511 33.2041248,88.9791885 33.2057219,88.9760005 C33.2057219,88.9728125 33.207319,88.9712185 33.207319,88.9685619 C33.2083837,88.9653739 33.2099808,88.9621859 33.2115779,88.9595292 L33.2115779,88.9563413 C33.2600225,88.833604 33.3239056,88.7167114 33.4042918,88.6109767 C33.537914,88.4335125 33.7141248,88.2836774 33.9281331,88.1790054 C34.1298972,88.0791153 34.3423084,88.0307643 34.5515255,88.0275763 L34.5728199,88.0275763 C34.8432583,88.0275763 35.1057113,88.1035565 35.3335609,88.244359 C35.5550223,88.3793168 35.741348,88.5775029 35.8643229,88.8272281 L39.1196983,95.4226281 C39.5871096,95.2834196 40.0513266,95.1303966 40.508623,94.9635589 L38.9253873,91.76017 L35.9026527,85.6360597 C35.8281225,85.4830367 35.7823396,85.324169 35.7642394,85.1637073 C35.6987592,84.5771189 36.0027362,83.9862799 36.5686339,83.7094569 C36.7767863,83.6079729 36.9966505,83.5596218 37.213853,83.5596218 C37.744615,83.5596218 38.2546149,83.8502594 38.505356,84.3576796 L43.1704182,93.80951 C43.7107626,93.5353437 44.2388627,93.2415182 44.7531215,92.9280335 L42.1642596,87.6795551 L39.5796565,82.445954 C39.3901367,82.0580831 39.3901367,81.6266431 39.5461179,81.2568374 C39.6616398,80.9816084 39.8634039,80.7387906 40.1365041,80.5751409 C40.1716398,80.5554817 40.2078402,80.5358225 40.244573,80.5177573 C40.452193,80.4162732 40.6709925,80.3679222 40.8876627,80.3679222 C41.1336125,80.3679222 41.3763682,80.4300878 41.5887795,80.5480431 C41.8363264,80.6845949 42.0455435,80.8950016 42.1807627,81.1659799 L43.1656269,83.1627183 L47.1631108,91.2585944 C47.6534135,90.8739114 48.1266807,90.4695693 48.5850418,90.0482245 L44.3538523,81.478402 C44.1717855,81.1101903 44.1643325,80.6994721 44.2995516,80.3424183 C44.390585,80.1011945 44.5449692,79.8849432 44.7563157,79.7196995 C44.8367019,79.6559399 44.9245411,79.5985562 45.0203658,79.5512679 C45.2189357,79.4545658 45.4302822,79.4062148 45.6363052,79.4014328 L45.6927352,79.4014328 C46.1553552,79.4104654 46.5988103,79.6410627 46.8644574,80.0406229 C46.8974637,80.0921619 46.9278082,80.1452949 46.9554908,80.2000219 L50.716075,87.8203576 C51.7690811,86.5690753 52.6964505,85.2120583 53.4779536,83.7625899 C55.0670453,80.8253974 56.0593625,77.5205244 56.2978594,74.0079014 C52.9652919,75.9786046 49.1892693,77.4371056 45.0491132,78.2516345 C44.8941967,78.2835144 44.7382155,78.3127375 44.5817019,78.3414293 C42.4538629,78.7303629 40.3185709,78.9168598 38.1923289,78.934925 C38.0815982,78.934925 37.9708676,78.936519 37.8601369,78.936519 C37.0498864,78.936519 36.2407007,78.9120778 35.4336444,78.8653208 L37.1803144,75.4467432 L37.1712643,74.8861899 L37.1803144,75.4451492 C37.8745106,75.4849989 38.5708362,75.5009388 39.2682265,75.5067835 C38.5708362,75.5009388 37.8745106,75.4860616 37.1803144,75.4467432 C37.9847089,75.4935002 38.7901681,75.5179414 39.5993538,75.5179414 C39.7116816,75.5179414 39.8256064,75.5163474 39.9379342,75.5163474 C40.1444895,75.5147534 40.3521095,75.5020015 40.5591971,75.4940315 C42.6375268,75.4451492 44.72118,75.2427124 46.7973802,74.8330569 C50.3269205,74.1375459 53.5860225,72.9670258 56.5379533,71.4181986 C56.4698113,71.4537978 56.40859,71.4973668 56.3404481,71.5329659 C56.4091224,71.4973668 56.4703437,71.4532664 56.5384856,71.4176673 C57.3966484,70.9670994 58.2271285,70.4841204 59.0315229,69.9703242 C59.1747275,69.8789355 59.316335,69.7870154 59.4579425,69.6935013 C60.2468986,69.1717352 61.0092367,68.6218085 61.7417627,68.0421275 C61.8040487,67.9932451 61.8743201,67.95127 61.9360738,67.9018563 L61.9360738,67.9002623 C61.8796437,67.9459567 61.8157606,67.9836811 61.7587982,68.0283129 C71.84434,60.0429534 76.4694752,46.7543886 72.4815737,33.2288506 C72.3064276,32.6326983 72.0924193,32.0535485 71.8816051,31.4722734 C72.0658013,31.980225 72.2574506,32.4855199 72.4150288,33.0051607 C74.9948407,28.8134978 78.0436608,24.9741068 81.5162387,22.0672 C82.9019693,20.7101831 84.3616977,19.4089558 85.8885034,18.174676 C85.8171673,18.1396082 85.7442341,18.1050718 85.6713009,18.071598 L85.6713009,18.071598 Z" id="Fill-85" fill="#E84040"></path>
                            <path d="M99.9962769,63.8606126 C92.9975686,104.154764 6.7662727,108.729069 6.7662727,108.729069 C6.7662727,108.729069 77.3180673,56.8415055 78.7534779,55.7527081 C88.4664128,48.3851868 99.9962769,52.6533337 99.9962769,63.8606126 Z" id="Rectangle-6" fill="#8F421F" transform="translate(53.381275, 80.408781) scale(-1, 1) rotate(-316.000000) translate(-53.381275, -80.408781) "></path>
                            <path d="M211.108183,88.8381203 L207.526472,77.1206985 C207.195877,76.3098888 207.590355,75.3843119 208.409655,75.0511679 C209.229488,74.719618 210.159519,75.1074889 210.490647,75.9177673 L213.290323,81.3235193 L217.781304,84.2925917 L213.187578,89.7047197 C212.367745,90.0378636 211.437713,89.6499927 211.108183,88.8381203" id="Fill-87" fill="#F3D9C9"></path>
                            <path d="M221.179192,76.5645022 L224.337145,63.7865456 C224.528795,63.0171797 224.054995,62.2371871 223.276686,62.0459083 C222.499442,61.8551608 221.714745,62.3232626 221.525225,63.0926285 L218.364077,75.8705852 C218.174025,76.6415451 218.646227,77.4188809 219.426133,77.6112224 C220.203377,77.8035639 220.988075,77.3338681 221.179192,76.5645022" id="Fill-89" fill="#F3D9C9"></path>
                            <path d="M225.751836,77.6929941 L228.613798,66.1190314 C228.805448,65.3496655 228.328986,64.571267 227.550145,64.3789255 C226.773433,64.188178 225.990333,64.6546858 225.798684,65.4256457 L222.936722,77.0006711 C222.746669,77.768443 223.220469,78.5473729 223.998778,78.7397143 C224.777619,78.9304618 225.562316,78.46236 225.751836,77.6929941" id="Fill-91" fill="#F3D9C9"></path>
                            <path d="M222.922934,62.0037207 C222.273456,62.0037207 221.686264,62.4399427 221.523894,63.0929473 L219.072913,73.0080976 L221.524959,63.0929473 C221.686264,62.4399427 222.27665,62.0037207 222.926128,62.0037207 L222.967119,62.0037207 L222.922934,62.0037207 M224.362965,63.2263112 C224.390647,63.4080261 224.384259,63.5971796 224.337411,63.7863331 L221.972673,73.3561188 L224.339009,63.7879271 C224.384259,63.5987736 224.392244,63.4080261 224.362965,63.2263112 M228.192223,64.7225366 C228.304551,64.8256147 228.398778,64.9451639 228.472776,65.0753398 C228.398778,64.9451639 228.304551,64.8256147 228.192223,64.7225366 M228.65644,65.7554423 L228.65644,65.7586303 L228.65644,65.7554423 M228.65644,65.7586303 C228.658037,65.8781795 228.644196,65.9977288 228.613852,66.1178094 L225.751889,77.6912407 L225.751889,77.6960227 L225.753486,77.6928347 L228.615449,66.1178094 C228.644196,65.9977288 228.658037,65.8781795 228.65644,65.7586303 M230.72359,68.1368636 C230.535135,68.1384576 230.353068,68.176182 230.184843,68.2457863 C230.353068,68.177776 230.535135,68.1384576 230.72359,68.1368636 M230.184843,68.2457863 C230.183246,68.2473803 230.181649,68.2473803 230.180052,68.2489742 C230.181649,68.2473803 230.183246,68.2473803 230.184843,68.2457863 M215.292099,68.6761636 L213.880816,74.3831798 L212.475388,79.7512074 L212.476985,79.7528014 L213.877621,74.3922124 L215.292099,68.6761636 M229.476273,68.8727557 C229.415584,68.9822097 229.368204,69.100165 229.33786,69.2260902 L227.607693,76.2205191 L229.33786,69.2260902 C229.369801,69.100165 229.416649,68.9822097 229.476273,68.8727557 M232.072588,68.997087 C232.19716,69.2770979 232.232296,69.6001466 232.152974,69.919476 L230.353068,77.1976351 L232.154571,69.9210699 C232.17906,69.8179919 232.192369,69.7165079 232.195563,69.6150238 L232.195563,69.539575 C232.191304,69.3498901 232.147118,69.1665813 232.072588,68.997087 M209.015586,74.9315124 C208.81329,74.9315124 208.608864,74.9697682 208.409762,75.049999 C208.262831,75.1105706 208.129209,75.1892075 208.010493,75.2832529 C208.129209,75.1892075 208.262831,75.1105706 208.409762,75.051593 C208.608864,74.9708308 208.81329,74.9315124 209.015586,74.9315124 C209.147611,74.9315124 209.278039,74.948515 209.403676,74.9798634 C209.278039,74.948515 209.147611,74.9315124 209.015586,74.9315124 M216.630982,75.3300099 L216.613947,75.3996142 C216.644291,75.8448688 216.95998,76.2391157 217.423132,76.353883 C217.509375,76.3751362 217.596149,76.3857628 217.680794,76.3857628 C217.916097,76.3857628 218.140752,76.3071259 218.322819,76.1705741 C218.322819,76.1615415 218.322819,76.1541029 218.324416,76.1450703 C218.136494,76.2933113 217.90545,76.3825748 217.662694,76.3825748 C217.583905,76.3825748 217.503519,76.3735422 217.423132,76.353883 C216.936024,76.2343337 216.633644,75.8039564 216.630982,75.3300099 M221.127819,76.7279393 C221.124625,76.7369719 221.121431,76.7449419 221.118236,76.7539745 C221.229499,77.0887124 221.506859,77.3612848 221.87738,77.4521422 C221.963623,77.4733954 222.050397,77.484022 222.135042,77.484022 C222.431034,77.484022 222.710522,77.3596908 222.907495,77.1508781 C222.909092,77.1445021 222.909092,77.1386575 222.910689,77.1328128 C222.712119,77.3490642 222.429437,77.482428 222.127589,77.482428 C222.045606,77.482428 221.960961,77.4718014 221.87738,77.4521422 C221.501003,77.3596908 221.233758,77.0717099 221.127819,76.7279393 M225.59857,78.0700791 C225.741242,78.2911124 225.964301,78.459544 226.240595,78.5275542 C226.32524,78.5488075 226.412015,78.5594341 226.497192,78.5594341 C226.722912,78.5594341 226.938518,78.4866418 227.116326,78.3607166 C227.116326,78.353278 227.117923,78.3458394 227.117923,78.3384007 C226.934259,78.4728273 226.712265,78.5562461 226.478559,78.5562461 C226.39977,78.5562461 226.320981,78.5472135 226.238998,78.5275542 C225.964301,78.45795 225.741242,78.2895184 225.59857,78.0700791 M229.956993,78.842633 L227.921785,87.9156251 C227.915929,87.9475049 227.908476,87.9777907 227.902088,88.0112645 L229.956993,78.842633" id="Fill-93" fill="#DDDFDF"></path>
                            <path d="M194.027231,122.67646 C193.8984,122.850736 193.769037,123.02023 193.640206,123.191318 C193.233484,123.729024 192.826761,124.260886 192.416845,124.777339 C192.283223,124.944176 192.148536,125.106232 192.016511,125.270944 C191.590091,125.799618 191.162075,126.324041 190.729267,126.829867 L190.438066,127.164605 C184.047096,134.568158 177.334581,139.280524 171.810824,139.280524 C171.554227,139.280524 171.302421,139.271491 171.05168,139.250238 C171.302421,139.271491 171.557421,139.280524 171.813486,139.280524 C178.386523,139.280524 186.639152,132.620302 194.030425,122.678054 L194.027231,122.67646" id="Fill-95" fill="#DDDFDF"></path>
                            <path d="M210.566401,87.0643812 L208.789387,93.863812 L208.95921,93.8170549 C205.694784,103.67429 200.762478,113.200507 195.261079,120.973866 C194.868199,121.529637 194.47372,122.076375 194.076048,122.611425 C194.059013,122.632678 194.044107,122.653931 194.027071,122.676247 L194.030265,122.677841 C194.524827,122.013147 195.01513,121.333045 195.502238,120.639128 L195.507029,120.64391 C200.911006,112.932185 205.744826,103.527643 208.960807,93.8170549 L208.789387,93.862218 L210.566401,87.0643812" id="Fill-97" fill="#DDDFDF"></path>
                            <path d="M209.016864,74.9332127 C208.8151,74.9332127 208.610142,74.9709371 208.409975,75.0511679 C208.262511,75.1117396 208.130486,75.1903764 208.012303,75.2844218 C207.473555,75.7132052 207.256353,76.4554733 207.527856,77.1201672 L210.566561,87.0645406 L210.566561,87.0656032 L212.478795,79.7545016 L212.477198,79.7529076 L210.490434,75.9177673 C210.293461,75.4331942 209.88035,75.099519 209.405486,74.9799697 C209.279317,74.9496839 209.148889,74.9332127 209.016864,74.9332127" id="Fill-99" fill="#F1D6C6"></path>
                            <path d="M222.925968,62.0037207 C222.27649,62.0037207 221.686104,62.4399427 221.525331,63.0929473 L219.072753,73.0080976 L218.364184,75.86931 L218.353536,76.1206291 C218.343954,76.1296617 218.333839,76.1371003 218.324257,76.1450703 C218.323192,76.1541029 218.323192,76.1615415 218.323192,76.1705741 C218.509518,76.0297716 218.648996,75.8268036 218.710217,75.5829231 L218.712879,75.5738904 L221.098912,76.1631355 L221.095718,76.1721681 C221.045676,76.3719482 221.05792,76.5722596 221.118609,76.7539745 C221.121271,76.7449419 221.124465,76.7369719 221.127659,76.7279393 C221.124465,76.7173127 221.121271,76.7056235 221.118609,76.6934029 L221.179298,76.5642897 L221.971448,73.3561188 L224.337252,63.7863331 C224.384632,63.5971796 224.390488,63.4080261 224.363337,63.2263112 C224.276563,62.6700086 223.862388,62.1902176 223.275196,62.0478211 C223.171918,62.0217859 223.06864,62.0069087 222.96696,62.0037207 L222.925968,62.0037207" id="Fill-101" fill="#F1D6C6"></path>
                            <path d="M227.199587,64.3364191 C226.550109,64.3364191 225.962917,64.7710471 225.79895,65.4256457 L222.938053,76.9990771 L222.932197,77.1085311 C222.925808,77.1175637 222.918355,77.1250023 222.910902,77.1324409 C222.909305,77.1398795 222.909305,77.1462555 222.907708,77.1521001 C223.029086,77.0251122 223.118522,76.8657132 223.164305,76.6839983 L223.165902,76.6733717 L225.461967,77.2403009 L225.46037,77.2493335 C225.387436,77.5415651 225.445464,77.8369846 225.598251,78.0718325 L225.598251,78.0702385 C225.593992,78.0627998 225.5892,78.0548299 225.583345,78.0473913 L225.75157,77.6961821 L225.75157,77.6929941 L228.614064,66.1190314 C228.644409,65.9994822 228.65825,65.8783389 228.656653,65.7603836 L228.656653,65.7556017 C228.653459,65.5149092 228.588511,65.2816553 228.472989,65.0770932 C228.398459,64.9453233 228.304232,64.8257741 228.192436,64.722696 C228.017822,64.5622344 227.799023,64.4410911 227.550411,64.3789255 C227.433292,64.3502337 227.315108,64.3364191 227.199587,64.3364191" id="Fill-103" fill="#F1D6C6"></path>
                            <path d="M230.737219,68.1367042 L230.723377,68.1367042 C230.535455,68.1382982 230.353388,68.1760226 230.18463,68.2456269 C230.183033,68.2472209 230.181968,68.2472209 230.180371,68.2488148 C229.885977,68.3699581 229.635236,68.5883348 229.47606,68.8725963 C229.416968,68.9820503 229.369588,69.1000056 229.338179,69.2259308 L227.609609,76.2208911 L227.160298,78.0369772 L227.148054,78.3153942 C227.137407,78.3244268 227.128357,78.3323967 227.11771,78.3382413 L227.11771,78.3610885 C227.315215,78.2202861 227.466937,78.010942 227.528691,77.7564349 L227.531885,77.7474023 L230.063252,78.3701212 L230.353388,77.1974757 L232.153294,69.9193166 C232.23368,69.5983932 232.196947,69.2774698 232.072908,68.9969276 C231.896697,68.603212 231.544807,68.2929152 231.090705,68.1808046 C230.972521,68.1505188 230.853805,68.1367042 230.737219,68.1367042" id="Fill-105" fill="#F1D6C6"></path>
                            <path d="M213.879378,74.3924249 L212.478742,79.7546079 L210.566508,87.0641155 L208.789493,93.8624836 L208.960913,93.8167892 C209.999013,90.6830046 210.868355,87.5189341 211.533272,84.3681468 L227.943239,87.8201982 C227.937383,87.852078 227.929398,87.8839578 227.923542,87.9158376 L229.95875,78.8428455 L230.063625,78.3731497 L230.063625,78.3699618 L227.531725,77.7472429 L227.529064,77.7568069 C227.466778,78.011314 227.316652,78.2201267 227.11755,78.3609291 C226.940274,78.487917 226.723072,78.5596466 226.498416,78.5596466 C226.413239,78.5596466 226.326997,78.54902 226.240222,78.5277668 C225.965525,78.4592252 225.74087,78.2913249 225.59873,78.0718856 C225.446475,77.8354437 225.387383,77.5416182 225.460316,77.2477927 L225.461913,77.2387601 L223.165849,76.6718309 L223.164252,76.6824575 C223.120066,76.8641724 223.029033,77.0235714 222.909252,77.1521533 C222.711747,77.3599033 222.432791,77.4837032 222.135202,77.4837032 C222.050024,77.4837032 221.963782,77.4730766 221.877008,77.4523547 C221.507018,77.3614973 221.230724,77.0883936 221.118396,76.7536557 C221.059304,76.5719408 221.04706,76.3721607 221.095505,76.1723806 L221.098699,76.163348 L218.713198,75.574103 L218.710004,75.5831356 C218.650912,75.8270161 218.509837,76.0299842 218.322979,76.1707866 C218.142509,76.3068071 217.917854,76.3859753 217.682551,76.3859753 C217.597374,76.3859753 217.509534,76.3753487 217.42276,76.3540955 C216.961737,76.2387969 216.646048,75.8466753 216.615704,75.3998267 L216.605056,75.4375512 C216.444284,76.0921498 215.855495,76.5267778 215.20442,76.5267778 C215.088898,76.5267778 214.970714,76.5129632 214.851998,76.4842714 C214.073689,76.2935239 213.601487,75.5135314 213.791539,74.7452281 L213.879378,74.3924249" id="Fill-107" fill="#F1D6C6"></path>
                            <path d="M217.432129,62.220344 L217.428935,62.221938 L217.432129,62.220344 M217.419885,62.2261886 C217.118038,62.3717731 216.870491,62.6214982 216.731012,62.9397649 C216.870491,62.6204355 217.119635,62.3717731 217.419885,62.2261886 M218.840751,62.3096074 C219.349154,62.6337188 219.620657,63.2516556 219.468935,63.8637479 L217.000919,73.8352191 L219.468935,63.8637479 C219.61906,63.2500616 219.349154,62.6321248 218.840751,62.3096074" id="Fill-109" fill="#DDDFDF"></path>
                            <path d="M218.051369,62.0809761 C217.83257,62.0809761 217.621756,62.1293271 217.432236,62.2201846 L217.429042,62.2217786 C217.424783,62.2233726 217.421589,62.2249666 217.418394,62.2265605 C217.118144,62.3716137 216.870597,62.6202761 216.731119,62.9396055 C216.699177,63.0123977 216.673092,63.0899719 216.65233,63.1702027 L215.292153,68.6758448 L213.877675,74.3924249 L213.791432,74.7452281 C213.601913,75.5135314 214.073583,76.2935239 214.852424,76.4842714 C214.969011,76.5129632 215.087194,76.5267778 215.202716,76.5267778 C215.853791,76.5267778 216.44258,76.0921498 216.60495,75.4375512 L216.614,75.3982327 L216.631035,75.3302225 L216.631035,75.3286285 L217.001025,73.8350597 L219.467444,63.8635885 C219.619167,63.2520276 219.348728,62.6340907 218.840325,62.3099794 C218.709897,62.2265605 218.562966,62.1628009 218.403259,62.1234825 C218.286672,62.0947907 218.167956,62.0809761 218.051369,62.0809761" id="Fill-111" fill="#F1D6C6"></path>
                            <path d="M211.533112,84.3682531 C210.868196,87.5190403 209.998853,90.6847048 208.960753,93.8184895 C205.74637,103.527484 200.911485,112.934151 195.506976,120.645344 L208.432653,131.096606 L208.431056,131.095013 C217.63235,118.317056 224.622756,102.608283 227.701921,88.8670247 L227.710971,88.8654307 L227.902088,88.0126459 C227.910073,87.9791721 227.915929,87.9488863 227.923382,87.9159439 C227.92977,87.8840641 227.937223,87.8521843 227.943079,87.8203045 L211.533112,84.3682531 M203.473197,137.434311 C203.230441,137.719104 202.986088,138.002303 202.740138,138.282314 L202.749188,138.289753 C202.993541,138.011336 203.233103,137.721761 203.473197,137.434311" id="Fill-113" fill="#F1D6C6"></path>
                            <path d="M195.502398,120.640669 C195.016886,121.334586 194.526584,122.013094 194.032022,122.677788 C186.640749,132.620567 178.38812,139.281852 171.815083,139.281852 C171.557421,139.281852 171.304018,139.271226 171.05168,139.249973 C170.767933,139.227657 170.488977,139.190995 170.211085,139.14105 L157.715022,136.669302 C166.101274,140.310507 172.715302,147.194951 175.844508,155.671259 C185.417921,154.13359 194.67245,147.467523 202.724913,138.271794 L202.739819,138.28242 C202.985769,138.001878 203.230121,137.718679 203.472877,137.433886 C203.599046,137.284051 203.723618,137.132622 203.847658,136.984381 L204.110643,136.673553 C204.797919,135.84946 205.476144,135.007302 206.144255,134.148673 L206.33058,133.911168 C207.018388,133.021722 207.691822,132.117398 208.358336,131.196603 L208.432866,131.096713 L195.508254,120.64545 L195.502398,120.640669" id="Fill-115" fill="#26416C"></path>
                            <path d="M87.6049886,193.761142 L53.3306499,195.515063 C53.3306499,195.515063 38.7738247,193.905133 33.0296708,178.523128 L32.149149,160.521134 L82.8334547,160.236341 C77.1968373,179.418419 87.6049886,193.761142 87.6049886,193.761142" id="Fill-117" fill="#FEFEFE"></path>
                            <path d="M53.3308096,195.516657 C53.3308096,195.516657 38.7750491,193.906727 33.0308952,178.523128 L45.867136,174.306492 C45.7606642,189.262371 53.3308096,195.516657 53.3308096,195.516657" id="Fill-119" fill="#D8D8D8"></path>
                            <path d="M178.213772,234.87695 L177.818762,166.564907 C177.72347,148.4779 162.462333,133.753151 143.903233,133.845602 L137.885447,133.874825 C119.326346,133.966745 104.21853,148.84133 104.312757,166.929931 L104.707768,235.055477 C116.302547,238.257272 128.514331,239.976125 141.130175,239.976125 C153.985048,239.976125 166.423085,238.197232 178.213772,234.87695" id="Fill-121" fill="#26416C"></path>
                            <path d="M156.220104,108.921493 L127.388072,109.306176 L127.388072,136.655328 L127.441308,136.656922 C127.908719,144.033909 134.198009,149.862068 141.876755,149.824344 C149.197757,149.788214 155.201702,144.431875 156.086482,137.535742 L156.220104,137.539993 L156.220104,108.921493" id="Fill-123" fill="#F3D9C9"></path>
                            <path d="M156.220104,108.921493 L127.388072,109.306176 L127.388072,136.655328 L127.441308,136.656922 C127.908719,144.033909 134.198009,149.862068 141.876755,149.824344 C149.197757,149.788214 155.201702,144.431875 156.086482,137.535742 L156.220104,137.539993 L156.220104,108.921493" id="Fill-125" fill="#F3D9C9"></path>
                            <path d="M156.220104,132.552238 C148.093112,136.175378 139.216557,138.123234 130.172842,138.123234 C129.318406,138.123234 128.461308,138.106763 127.605275,138.071695 C128.726955,144.74095 134.654773,149.824185 141.802757,149.824185 L141.876755,149.824185 C149.197757,149.78646 155.201702,144.430653 156.086482,137.533989 L156.220104,137.538771 L156.220104,132.552238" id="Fill-127" fill="#DDBFAD"></path>
                            <polygon id="Fill-129" fill="#969696" points="117.692696 230.560584 246.990459 230.560584 246.990459 200.780066 117.692696 200.780066"></polygon>
                            <path d="M162.450941,179.675954 C162.450941,201.148065 179.891555,218.554969 201.405248,218.554969 C222.92107,218.554969 240.361684,201.148065 240.361684,179.675954 C240.361684,158.203844 222.92107,140.79694 201.405248,140.79694 C179.891555,140.79694 162.450941,158.203844 162.450941,179.675954" id="Fill-131" fill="#969696"></path>
                            <path d="M123.496421,199.124707 C123.496421,216.485917 137.597015,230.559256 154.991846,230.559256 C172.386677,230.559256 186.48727,216.485917 186.48727,199.124707 C186.48727,181.763497 172.386677,167.690158 154.991846,167.690158 C137.597015,167.690158 123.496421,181.763497 123.496421,199.124707" id="Fill-132" fill="#969696"></path>
                            <path d="M101.117485,209.878987 C101.117485,221.30152 110.394906,230.559415 121.837963,230.559415 C133.282085,230.559415 142.559506,221.30152 142.559506,209.878987 C142.559506,198.456453 133.282085,189.199089 121.837963,189.199089 C110.394906,189.199089 101.117485,198.456453 101.117485,209.878987" id="Fill-133" fill="#969696"></path>
                            <path d="M211.352057,199.124707 C211.352057,216.485917 225.453715,230.559256 242.847482,230.559256 C260.242313,230.559256 274.342906,216.485917 274.342906,199.124707 C274.342906,181.763497 260.242313,167.690158 242.847482,167.690158 C225.453715,167.690158 211.352057,181.763497 211.352057,199.124707" id="Fill-134" fill="#969696"></path>
                            <path d="M141.014919,209.133796 C140.817946,209.133796 140.634283,209.182147 140.439972,209.19118 C137.885713,200.348785 129.807165,193.839992 120.123022,193.839992 C113.959901,193.839992 108.457438,196.501424 104.578138,200.687774 C99.5473454,196.015257 92.8561248,193.099318 85.442493,193.099318 C69.8821711,193.099318 57.2689887,205.687589 57.2689887,221.217836 L57.2689887,222.219393 L154.125857,222.219393 C154.125857,214.992773 148.255534,209.133796 141.014919,209.133796" id="Fill-135" fill="#49494B"></path>
                            <path d="M69.35093,211.566385 C69.35093,205.683498 64.571943,200.913748 58.6776639,200.913748 C52.7828524,200.913748 48.0038655,205.683498 48.0038655,211.566385 C48.0038655,217.449271 52.7828524,222.219021 58.6776639,222.219021 C64.571943,222.219021 69.35093,217.449271 69.35093,211.566385" id="Fill-136" fill="#49494B"></path>
                            <path d="M117.603952,204.024686 C117.603952,187.600742 104.2641,174.28508 87.8067527,174.28508 C71.3510028,174.28508 58.0095533,187.600742 58.0095533,204.024686 C58.0095533,210.697129 60.2119226,216.855775 63.929918,221.817867" id="Fill-137" fill="#49494B"></path>
                            <path d="M201.880964,225.964313 C201.880964,233.53311 195.733282,239.669441 188.149295,239.669441 C180.565841,239.669441 174.418159,233.53311 174.418159,225.964313 C174.418159,218.395517 180.565841,212.259186 188.149295,212.259186 C195.733282,212.259186 201.880964,218.395517 201.880964,225.964313" id="Fill-138" fill="#49494B"></path>
                            <path d="M155.107687,239.669282 C155.107687,230.416169 162.624597,222.913788 171.895629,222.913788 C181.166661,222.913788 188.683571,230.416169 188.683571,239.669282" id="Fill-139" fill="#49494B"></path>
                            <path d="M93.790894,219.613963 C93.790894,230.787834 102.867615,239.847543 114.063658,239.847543 C125.260233,239.847543 134.33589,230.787834 134.33589,219.613963 C134.33589,208.438498 125.260233,199.380383 114.063658,199.380383 C102.867615,199.380383 93.790894,208.438498 93.790894,219.613963" id="Fill-140" fill="#49494B"></path>
                            <path d="M165.881356,239.847277 C165.881356,226.184656 154.784332,215.110675 141.095252,215.110675 C127.407769,215.110675 116.311278,226.184656 116.311278,239.847277" id="Fill-141" fill="#49494B"></path>
                            <path d="M70.9656814,100.711806 C82.3177052,120.18771 101.239342,136.246629 110.525813,134.495365 C122.466626,132.244651 124.847868,107.62016 142.066488,97.6810996 C172.680326,80.0106558 206.015051,78.2259182 181.824125,36.7231959 C164.457509,6.92780012 124.392168,-4.91076494 93.7804598,12.7596789 C63.1666217,30.4301226 53.5995976,70.9164105 70.9656814,100.711806" id="Fill-142" fill="#D69C6E"></path>
                            <path d="M72.8582177,56.2812428 C84.9065672,24.2500102 120.87434,7.39728336 153.192259,18.6396961 C174.401443,26.0193393 188.708059,43.6727805 192.664552,63.9865914 C193.033476,65.8845023 193.692004,69.6712917 193.781441,73.9771905 C193.970961,81.582649 192.763038,89.3746043 189.894688,96.9975967 C177.846338,129.029361 141.880162,145.881556 109.560646,134.638081 C77.2411296,123.396199 60.8098683,88.3140695 72.8582177,56.2812428" id="Fill-143" fill="#F3D9C9"></path>
                            <path d="M150.463706,76.7175253 C151.966024,75.8493319 152.495721,73.953015 151.642882,72.491326 C150.79164,71.028043 148.873018,70.54347 147.3707,71.4116633 C145.868383,72.2793253 145.338686,74.1756423 146.191525,75.6373313 C147.044364,77.1006142 148.961389,77.5851873 150.463706,76.7175253" id="Fill-144" fill="#3C3129"></path>
                            <path d="M186.824573,54.5316792 C188.32689,53.6640172 188.856587,51.7671689 188.003748,50.3060113 C187.152506,48.8427283 185.234417,48.3576239 183.731567,49.2258172 C182.22925,50.0934792 181.699553,51.9903275 182.552392,53.4520165 C183.405231,54.9147682 185.322256,55.3998725 186.824573,54.5316792" id="Fill-145" fill="#3C3129"></path>
                            <path d="M91.5796876,86.1374228 C104.62834,108.524483 111.433485,116.52047 105.627045,133.97785 C96.9613049,129.034886 81.2524548,120.937416 69.5618506,98.0838478 C62.4245132,84.1332458 64.8313083,69.3909619 63.760202,62.4204429 C60.1252546,38.753408 89.0557734,20.0495273 89.0557734,20.0495273 L100.632453,16.8174465 C100.632453,16.8174465 95.3919105,18.0607589 100.470083,16.6128844 C94.7818271,24.1301421 78.3580188,63.4533485 91.5796876,86.1374228" id="Fill-146" fill="#D69C6E"></path>
                            <path d="M153.68714,14.157502 L153.717322,14.1929328" id="Fill-147" fill="#F3D9C9"></path>
                            <path d="M153.527805,2.86997932 C151.199799,0.167634634 147.349779,-0.48643267 144.21099,1.03423396 L144.164142,0.964629723 L134.244697,7.58234562 C122.389061,11.2097359 105.328019,17.9533771 91.7965174,29.4423269 C68.6346409,49.1063211 90.4640227,49.0563761 90.4640227,49.0563761 C96.6015899,49.4453097 124.583445,32.2110879 124.583445,32.2110879 L150.964496,14.8376576 C151.518682,14.5560527 152.052638,14.2149388 152.5472,13.7957193 C152.5472,13.7957193 153.003964,13.6713881 153.247252,13.1156169 C155.905853,10.2437779 156.091114,5.84330233 153.527805,2.86997932" id="Fill-148" fill="#D69C6E"></path>
                            <path d="M168.663145,67.5732818 C166.175964,66.0010762 165.539795,62.3901571 167.248667,59.5486039 L170.746798,53.7347904 C172.455671,50.8932372 175.889919,49.856081 178.377632,51.4282866 C180.864814,53.0004923 181.502048,56.6130053 179.79211,59.4545585 L176.295044,65.2662467 C174.585107,68.1077998 171.150326,69.1454875 168.663145,67.5732818" id="Fill-149" fill="#F4AE82"></path>
                            <path d="M179.409451,77.8883642 C182.13992,76.2401783 184.705891,77.1189983 187.128124,78.0881443 C187.720107,78.3261802 187.923469,79.0578216 187.627477,79.6274075 C187.470963,79.9238896 184.17779,82.0082975 180.974054,83.9333063 C178.04182,85.6951968 175.184117,87.3221294 174.88227,87.3189414 C174.237583,87.3173474 173.72918,86.8024886 173.744086,86.1659552 C173.821278,83.0082606 176.678981,79.53655 179.409451,77.8883642" id="Fill-150" fill="#3C3129"></path>
                            <path d="M81.0382336,26.3554056 C76.3380357,30.5736349 70.6348735,36.6855246 67.0212204,43.9998142 C66.8120033,44.4227529 66.6102393,44.8499423 66.4159282,45.2813823 C65.4278699,47.8625837 64.6202812,50.3768376 64.0011477,52.7019379 C63.7860746,53.7837259 63.6295611,54.8803911 63.5385277,55.9935276 C63.3671081,58.0869681 63.4246029,60.2330102 63.759989,62.42209 C64.8316278,69.3926091 62.4243002,84.1348929 69.5621701,98.0854949 C69.9790072,98.9016179 70.402765,99.700207 70.8291845,100.478606 C75.2089022,108.462371 80.0714696,114.524316 84.8792039,119.235088 C88.3640261,122.650478 91.8211656,125.35601 95.0398083,127.565812 C98.4591503,129.757548 102.078659,131.661835 105.869588,133.232447 C105.869588,133.229259 105.871185,133.227665 105.871185,133.225008 C107.243074,128.89148 107.819619,125.137634 107.703032,121.579848 C107.205277,121.646264 106.705924,121.679738 106.211362,121.679738 C102.398607,121.679738 98.7232004,119.756323 96.706092,116.295239 C95.7047247,114.575855 95.2373135,112.691758 95.2506224,110.82679 C95.2809669,107.151048 97.1857475,103.551819 100.573148,101.443501 C98.1008727,97.0642786 95.0626997,92.1144077 91.5794746,86.1390699 C91.0029298,85.1481393 90.4806856,84.1258603 90.0132744,83.0759521 C82.9643085,75.1920767 79.1579415,64.6786488 78.6053528,49.063921 C78.2502693,39.0334721 78.2763549,31.9827222 81.0382336,26.3554056" id="Fill-152" fill="#D29A6D"></path>
                        </g>
                        <g id="Group-156" transform="translate(95.749979, 132.067400)">
                            <mask id="mask-2" fill="white">
                                <use xlink:href="#path-1"></use>
                            </mask>
                            <g id="Clip-155"></g>
                            <path d="M11.4982629,0.345842736 L11.3784821,0.345842736 C9.46145724,0.356469337 7.51302321,0.851668953 5.72536161,1.88457459 C5.61303385,1.9483342 5.50230317,2.01634444 5.39263722,2.08488602 C2.00523674,4.19160971 0.0993914299,7.79190219 0.0706440426,11.4681749 L0.0706440426,11.6408571 C0.0855500953,13.4479107 0.554558396,15.2703728 1.52611362,16.9350299 C3.52778355,20.3716727 7.16698985,22.2924309 10.9504654,22.3195287 L11.1080437,22.3195287 C13.0192126,22.3057141 14.9601936,21.8089205 16.7404022,20.7818595 C20.3295667,18.7086096 22.3599841,15.0020511 22.3961845,11.2120738 L22.3961845,11.0048551 C22.3780843,9.20364616 21.909076,7.38915401 20.942312,5.7292789 C18.9347861,2.28626011 15.2875944,0.365501948 11.4982629,0.345842736" id="Fill-154" fill="#F2D2BE" mask="url(#mask-2)"></path>
                        </g>
                        <g id="Group-195" transform="translate(33.463973, 111.876857)">
                            <path d="M9.26980799,8.51121683 L11.860267,13.7596952 L9.26980799,8.51121683 M1.6783683,8.85976935 L1.66505932,8.85976935 L1.6783683,8.85976935 C1.94880668,8.85976935 2.21125968,8.93521822 2.43910934,9.07602068 C2.21285676,8.93521822 1.94880668,8.85976935 1.6783683,8.85976935 M0.509840238,9.44263842 C0.431051103,9.54890443 0.366103301,9.66526572 0.318723348,9.78800296 C0.366103301,9.66526572 0.431051103,9.54890443 0.509840238,9.44263842 M0.317126271,9.79119094 C0.315529194,9.79437892 0.314464476,9.79703557 0.314464476,9.80022355 C0.314464476,9.79703557 0.315529194,9.79437892 0.317126271,9.79119094 M0.311270322,9.80766217 C0.309673245,9.81085015 0.309673245,9.81244414 0.308076168,9.81510079 C0.309673245,9.81244414 0.309673245,9.80925616 0.311270322,9.80766217 M0.305414373,9.82466474 C0.305414373,9.82466474 0.303817296,9.8257274 0.303817296,9.82732139 C0.303817296,9.8257274 0.305414373,9.82466474 0.305414373,9.82466474 M0.223431083,10.2120043 L0.223431083,10.2183803 L0.223431083,10.2120043 M0.223431083,10.2290069 C0.209589748,10.4665114 0.255372624,10.708798 0.36716802,10.9378012 L2.17026804,14.5880387 L0.36716802,10.9378012 C0.255372624,10.708798 0.209589748,10.4665114 0.223431083,10.2290069" id="Fill-157" fill="#DDDFDF"></path>
                            <path d="M24.3853972,10.8514069 C23.9424745,10.8514069 23.5293639,11.0347158 23.2349694,11.3391679 C23.530961,11.0347158 23.9424745,10.8514069 24.3853972,10.8514069 M25.990992,12.3842942 C25.9941862,12.4900288 25.9867332,12.5978888 25.9681006,12.7052175 L25.1333616,23.0704043 L28.3280481,29.3305351 L25.1333616,23.0704043 L25.9681006,12.7052175 C25.9867332,12.5978888 25.9941862,12.4900288 25.990992,12.3842942 M7.61395848,15.7954331 L8.28792501,17.1614827 L8.28952209,17.1630767 C8.28952209,17.1630767 8.28952209,17.1614827 8.28792501,17.1598887 L7.61395848,15.7954331" id="Fill-159" fill="#DDDFDF"></path>
                            <polygon id="Fill-161" fill="#DDDFDF" points="6.03120187 12.5917786 7.61230817 15.7967615 7.61390525 15.7967615"></polygon>
                            <path d="M22.1635968,14.5956899 L21.6961856,16.3363271 L21.6977827,16.3363271 L22.1635968,14.5956899 M12.5992346,15.231692 C12.5704872,15.5605853 12.4022617,15.870882 12.104673,16.0515342 C12.3974705,15.87407 12.5784726,15.5743998 12.6130759,15.2529452 C12.608817,15.2455065 12.6040258,15.2396619 12.5992346,15.231692 M10.9420009,16.0058399 C10.9451951,16.0122158 10.9467922,16.0180604 10.9499863,16.0239051 C11.1246001,16.1439857 11.3338172,16.2088079 11.5478255,16.2088079 C11.6841094,16.2088079 11.8241198,16.1817101 11.9577419,16.1253891 C11.8283787,16.1801161 11.6936919,16.2045573 11.5616668,16.2045573 C11.3396731,16.2045573 11.123003,16.1333591 10.9420009,16.0058399 M8.51870265,17.4978147 C8.42766925,17.7432891 8.24400539,17.9552898 7.99060249,18.0796211 C7.8463332,18.1508193 7.69461088,18.1842931 7.54555035,18.1842931 C7.38956915,18.1842931 7.23624975,18.1476313 7.09357754,18.0838717 C7.09517461,18.0918417 7.09677169,18.0992803 7.09783641,18.1051249 C7.22986145,18.1614459 7.37253367,18.1901377 7.51680296,18.1901377 C7.67651067,18.1901377 7.83888017,18.1550699 7.99060249,18.0796211 C8.24560247,17.9536959 8.42766925,17.7432891 8.51870265,17.4978147 M28.1489093,29.3230965 C35.3352238,41.4241386 45.3861622,52.3057782 54.8685412,59.0233841 L43.7789703,71.4134698 C49.6040428,75.7108673 55.6500442,79.0534647 61.6220477,80.9529697 C64.3216404,78.7235088 67.7867653,77.382963 71.5654496,77.382963 C72.0722554,77.382963 72.5748023,77.4074042 73.0677668,77.4541613 C75.2472446,70.951744 79.4629958,65.3169887 84.9739764,61.2831309 L75.723706,65.3122067 C74.5461278,65.8031557 73.2317334,66.0364096 71.8113995,66.0364096 C66.677329,66.0364096 60.1330396,62.9855124 53.3933743,57.9325635 L53.041485,57.6738058 C52.5101907,57.2721203 51.9788964,56.8513069 51.4491991,56.4257115 C51.2825708,56.2907537 51.1170071,56.1637658 50.9530405,56.0272139 C50.4414435,55.6122452 49.9303788,55.1792112 49.4187818,54.7398012 C49.2335209,54.5819962 49.049857,54.4263165 48.8677902,54.2669175 C48.3641786,53.8306955 47.8632287,53.3811902 47.3606818,52.9221211 C40.3159748,46.5041853 33.4533347,38.2520981 28.1537006,29.3246905 L28.1888363,29.3262845 L28.1489093,29.3230965" id="Fill-163" fill="#DDDFDF"></path>
                            <path d="M71.5670467,77.3844508 C67.7883623,77.3844508 64.3232374,78.7249965 61.6220477,80.9544574 C65.0562958,82.046872 68.4649907,82.6600269 71.7932993,82.7057213 C72.0722554,80.9045124 72.5018691,79.1505919 73.0693639,77.455649 C72.5748023,77.4088919 72.0738525,77.3844508 71.5670467,77.3844508" id="Fill-165" fill="#898989"></path>
                            <path d="M91.0351501,58.6445989 L84.9753073,61.284778 C79.464859,65.3181045 75.2485755,70.9512658 73.06963,77.4558084 C72.5021353,79.1507513 72.0725216,80.9046718 71.7930331,82.7053494 C71.9250581,82.7069434 72.0554861,82.7085374 72.1864464,82.7085374 C75.6222916,82.7085374 78.9697651,82.0953825 82.1676458,80.766526 C85.086038,79.5550935 87.5977078,77.8038296 89.611622,75.6896673 L91.1943254,58.6600075 C91.1400248,58.6552256 91.089983,58.6504436 91.0351501,58.6445989" id="Fill-167" fill="#373837"></path>
                            <path d="M91.0977988,58.6188294 L91.0353098,58.6466027 C91.0925914,58.6518102 91.1487158,58.6581749 91.2083118,58.6633824 L91.2117834,58.6304016 C91.1718599,58.6251941 91.1359865,58.6223011 91.0977988,58.6188294" id="Fill-169" fill="#F1D6C6"></path>
                            <path d="M91.2116309,58.571913 L91.0930175,58.6228306 C91.1306266,58.6280381 91.1670785,58.6315098 91.2052663,58.6344028 L91.2116309,58.571913" id="Fill-171" fill="#EDD4C5"></path>
                            <path d="M24.3868878,10.8514069 C23.9439651,10.8514069 23.5308545,11.0347158 23.23646,11.3391679 C23.0240487,11.5586073 22.8739235,11.8418062 22.8158963,12.1648549 L22.1653536,14.5956899 L21.6990071,16.3363271 L25.1337875,23.0704043 L25.9685265,12.7052175 C25.9882238,12.5978888 25.9940797,12.4900288 25.9908856,12.3842942 C25.9669294,11.6494647 25.4233908,11.006024 24.6615851,10.8758481 C24.5689546,10.8588456 24.4779212,10.8514069 24.3868878,10.8514069" id="Fill-173" fill="#F1D6C6"></path>
                            <path d="M7.99353047,1.19979641 C7.77632799,1.19979641 7.55806079,1.24814744 7.34990841,1.34963148 C7.31370799,1.36769671 7.27697522,1.38735592 7.24237188,1.40860912 C6.97086878,1.57225878 6.76750763,1.81348263 6.65198572,2.0887116 C6.49547217,2.45851732 6.49547217,2.88995733 6.68658906,3.27623428 L9.26959505,8.51142936 L11.8605864,13.7593764 L12.5132586,15.0834509 C12.5143233,15.0850449 12.5159204,15.0866388 12.5159204,15.0882328 L12.6026949,15.1971555 C12.6010978,15.2093761 12.6010978,15.2210654 12.5995008,15.2332859 C12.604292,15.2396619 12.6085509,15.2471005 12.6133421,15.2529452 C12.6330394,15.0637917 12.6010978,14.8650742 12.5116615,14.6822967 L12.5068703,14.6727327 L14.7092396,13.5882881 L14.7150955,13.596258 C14.8258262,13.821542 15.0062959,13.9899736 15.2187072,14.0866757 C15.2176424,14.0792371 15.2160454,14.0717984 15.2128512,14.0643598 C15.2006069,14.0579839 15.1899598,14.0521392 15.1777155,14.0457633 L15.1143648,13.8034768 L10.2714947,3.99459252 L9.28663054,1.99785416 C9.15141135,1.72687583 8.94219425,1.51646912 8.6946473,1.3799173 C8.48223605,1.26196202 8.23948034,1.19979641 7.99353047,1.19979641" id="Fill-175" fill="#F1D6C6"></path>
                            <path d="M4.31780434,4.39117728 C4.10219894,4.39117728 3.88233466,4.43952831 3.67418228,4.54101236 C3.10988172,4.81836665 2.80483999,5.41079966 2.8697878,5.99526273 C2.88842036,6.15572441 2.93367088,6.31618609 3.00979822,6.46761515 L6.03146805,12.5917254 L8.28813795,17.1616953 C8.28920267,17.1632893 8.28920267,17.1648832 8.28920267,17.1648832 L8.52929659,17.471992 C8.52610244,17.4810246 8.52344064,17.4900572 8.51864941,17.4996212 L8.52024649,17.4996212 C8.61873291,17.2371441 8.61287696,16.937474 8.47765777,16.6664956 L8.47286653,16.655869 L10.5948496,15.6133995 L10.5991085,15.6224321 C10.6826888,15.7908637 10.8056638,15.9268842 10.9499331,16.0257116 C10.948336,16.0193356 10.9451418,16.013491 10.9435448,16.0076464 C10.9344947,16.0012704 10.9254446,15.9954258 10.9163945,15.9890498 L10.8876471,15.8833151 L7.72809626,9.48078792 L5.60930734,5.18923503 C5.3590986,4.68340881 4.84909865,4.39117728 4.31780434,4.39117728" id="Fill-177" fill="#F1D6C6"></path>
                            <path d="M1.67863448,8.85955682 L1.66479314,8.85955682 C1.4497201,8.8627448 1.23571177,8.91109583 1.03341534,9.01098588 C0.821004088,9.1156579 0.643728533,9.26549298 0.511703495,9.44295722 C0.431317282,9.5486919 0.365837122,9.66558452 0.318989528,9.78832176 C0.318989528,9.78832176 0.318989528,9.78938442 0.317392451,9.79097841 C0.317392451,9.79416639 0.315795374,9.79735437 0.314198297,9.80001102 C0.312601219,9.80160501 0.312601219,9.80479299 0.311004142,9.80638698 C0.311004142,9.80904363 0.309939424,9.81223161 0.308342347,9.81541959 C0.308342347,9.81701358 0.30674527,9.81967023 0.305148193,9.82285821 C0.305148193,9.8244522 0.305148193,9.82604619 0.303551116,9.82764018 C0.259897676,9.95037743 0.233812084,10.0805533 0.22476198,10.2107292 C0.22476198,10.2139171 0.223164903,10.2149798 0.223164903,10.2165738 L0.223164903,10.2287944 C0.209323569,10.4652363 0.255106445,10.7091168 0.367434199,10.9359947 L2.17053422,14.5867635 L4.22384298,18.7460152 L6.56409325,17.594623 L6.56835212,17.6041869 C6.68387403,17.8385035 6.87499092,18.0111858 7.09964643,18.1052312 C7.09804935,18.0993866 7.09645227,18.0914166 7.0948552,18.083978 C7.0831433,18.0797273 7.07249612,18.0749454 7.06025186,18.0691007 L6.98891575,17.8007791 L2.97013747,9.65920856 C2.84716254,9.40948343 2.66030452,9.21076598 2.44044024,9.07474549 C2.21259058,8.93553701 1.9485405,8.85955682 1.67863448,8.85955682" id="Fill-179" fill="#F1D6C6"></path>
                            <path d="M19.176903,11.3951701 L19.3392725,11.7251261 C19.6900971,12.4355144 19.3957025,13.2978631 18.6759531,13.6522602 C18.4683331,13.7537443 18.2479365,13.8020953 18.0328634,13.8020953 C17.499972,13.8020953 16.9899721,13.5098638 16.7397634,13.0035062 L16.7227279,12.9689698 C16.788208,13.4099737 16.5651496,13.8626669 16.13873,14.0730736 C15.9854106,14.1490538 15.8246382,14.1835903 15.6649305,14.1835903 C15.5105464,14.1835903 15.3582917,14.1501165 15.2188136,14.0868882 C15.0079995,13.9880608 14.8259327,13.8201605 14.715202,13.5959392 L14.7104108,13.5885006 L12.5069768,14.6713513 L12.5112356,14.6803839 C12.6012043,14.8652867 12.6331458,15.0624102 12.6129162,15.2531577 C12.5799099,15.574081 12.3989079,15.8742825 12.1061104,16.0512154 C12.0789601,16.068218 12.0518098,16.0830952 12.0230624,16.0969098 C12.001768,16.1075364 11.9804737,16.118163 11.9591793,16.1256016 C11.8255572,16.1813913 11.6860791,16.2090205 11.5476658,16.2090205 C11.3336575,16.2090205 11.1260374,16.1436669 10.9498266,16.0241176 C10.8055573,15.9258215 10.6825824,15.7892697 10.6005991,15.6213694 L10.5963402,15.6123368 L8.47435714,16.6542751 L8.47914837,16.6649017 C8.61277049,16.93588 8.61862643,17.2360815 8.52014002,17.4980272 C8.42750954,17.7435017 8.24544276,17.9555024 7.99203986,18.0793023 C7.83872046,18.1552825 7.67635096,18.1903503 7.51717561,18.1903503 C7.37290632,18.1903503 7.2302341,18.1611271 7.09980614,18.1053375 C6.87515063,18.009698 6.68403374,17.8386098 6.56851183,17.6037619 L6.5637206,17.5947293 L4.22347032,18.7461215 L4.2250674,18.7477155 L8.37587072,27.6416494 C8.35777051,27.6007369 8.33967031,27.5614185 8.32103774,27.5205061 L23.6098566,20.6424385 C24.9364953,23.5780371 26.4643657,26.4844125 28.1508791,29.323309 L28.1902736,29.3259657 L28.3281546,29.3307476 L21.697623,16.3360084 L21.697623,16.3376023 L20.2011617,13.4020038 L19.176903,11.3951701" id="Fill-181" fill="#F1D6C6"></path>
                            <path d="M12.7709736,0.233360162 L12.7677794,0.233360162 C12.552174,0.233360162 12.3323098,0.281711198 12.1257545,0.383195239 C12.0304622,0.430483614 11.9420906,0.486273271 11.8617044,0.550032878 C11.6508902,0.716339187 11.4959737,0.933121851 11.4049403,1.17381437 C11.2702535,1.5313995 11.2777065,1.94052364 11.4597733,2.30979804 L15.6909628,10.8801519 L16.7226746,12.9688104 L16.7397101,13.0038781 C16.9899189,13.5112984 17.4999188,13.8035299 18.0328102,13.8035299 C18.2478832,13.8035299 18.4682799,13.7551789 18.6758999,13.6521008 C19.3956493,13.2977037 19.6900438,12.4358863 19.3392192,11.725498 L19.1768497,11.3950107 L17.8214637,8.65228496 L16.7791047,6.53759132 L14.0608795,1.03141791 C14.0337292,0.975628256 14.0033847,0.92249525 13.9698461,0.872550224 C13.698343,0.465020068 13.243176,0.233360162 12.7709736,0.233360162" id="Fill-183" fill="#F1D6C6"></path>
                            <path d="M23.6099098,20.6439262 L8.32109098,27.5219938 C8.33972354,27.5629062 8.35782375,27.6022247 8.37592396,27.6431371 L8.77359615,28.4932652 L8.78104917,28.4932652 C14.7376143,41.2574072 24.9376132,55.1075879 36.6660149,65.6226098 L36.6644178,65.6242037 L36.7570483,65.7044346 C37.6056286,66.4637052 38.4616619,67.2043793 39.3251482,67.9264569 L39.5524655,68.1161417 C40.3903986,68.8127154 41.2341877,69.4912239 42.0854298,70.1500732 L42.4059099,70.3955477 C42.8562856,70.7425062 43.3039996,71.1016853 43.7596989,71.4364233 L43.7793962,71.4135761 L43.7793962,71.4151701 L54.8684347,59.0245531 C45.3865881,52.3069471 35.3351173,41.4242448 28.1503999,29.3247967 C26.4628218,26.4848376 24.9365485,23.5795248 23.6099098,20.6439262" id="Fill-185" fill="#F1D6C6"></path>
                            <path d="M89.6101314,75.6895079 C87.5962172,77.8042015 85.0861444,79.5549341 82.1661552,80.7684919 C68.1448832,86.5924007 51.2339664,78.6883347 36.6643646,65.6245225 L47.0512215,52.6478485 C57.7702705,62.5056151 68.9519395,68.1265558 75.7240786,65.3136945 L91.2018849,58.5732413" id="Fill-187" fill="#26416C"></path>
                            <path d="M190.283109,105.212438 L214.689641,80.9396865 C214.689641,80.9396865 223.297887,69.0448004 215.700591,54.4109079 L202.8734,41.6255127 L168.503769,79.0763119 C186.602911,87.8177541 190.283109,105.212438 190.283109,105.212438" id="Fill-189" fill="#F3F4F4"></path>
                            <path d="M180.189369,114.814103 L200.751737,87.2210704 C200.751737,87.2210704 207.512696,74.1912634 197.840797,60.8330943 L183.268534,50.0699413 L154.794779,92.1603147 C173.985257,98.1478731 180.189369,114.814103 180.189369,114.814103" id="Fill-191" fill="#FEFEFE"></path>
                            <path d="M200.751737,87.220911 C200.751737,87.220911 207.512696,74.1900413 197.840797,60.8334663 L187.161143,69.1838495 C199.734931,77.426904 200.751737,87.220911 200.751737,87.220911" id="Fill-193" fill="#D8D8D8"></path>
                            <g id="Group-5" transform="translate(131.879747, 72.173913) scale(-1, 1) translate(-131.879747, -72.173913) translate(119.413502, 53.802372)">
                                <path d="M4.62027155,7.0998788 C4.84526938,6.40891619 5.59076698,5.69081887 6.28707116,5.49741329 C6.28707116,5.49741329 10.3419015,4.34577228 12.1631824,3.99489965 C14.3196898,3.57944509 20.7103599,3.11635019 20.7103599,3.11635019 C20.7103599,3.11635019 19.2035404,11.185671 19.4014156,14.4176173 C19.6439544,18.3790643 20.6915036,27.5156408 21.0743517,31.8805328 C21.3920187,35.5022874 21.0743517,34.7716705 21.0743517,34.7716705 C21.0743517,34.7716705 19.2262578,34.8296132 18.0750523,34.9846284 C16.2453644,35.2310045 13.2231919,36.0958731 13.2231919,36.0958731 C13.2231919,36.0958731 11.7844627,31.6546721 9.32476521,27.2549083 C8.34658328,25.5051933 6.85006864,23.2801007 5.43256592,21.5936683 C3.28567249,19.0394647 1.28739533,17.3350567 1.28739533,17.3350567 L4.62027155,7.0998788 Z" id="Rectangle-16" fill="#894D0B"></path>
                                <path d="M3.74338153,7.90895006 C3.90812096,7.20792678 4.56511434,6.36957329 5.2150446,6.0448618 C5.2150446,6.0448618 5.77697316,5.72364302 6.9898596,5.23709683 C8.54468041,4.61338458 10.955878,3.86100623 11.9468743,3.63251231 C14.147501,3.12511402 19.1737111,2.16034346 19.1737111,2.16034346 C19.1737111,2.16034346 18.8701592,9.78706453 19.1919233,12.4076563 C19.562334,15.4244474 20.6782794,20.1834452 21.4431655,23.5564953 C21.9949549,25.989816 22.3037404,27.6527111 22.3037404,27.6527111 C22.3037404,27.6527111 16.5365104,24.6569759 13.5649626,23.632215 C11.0780433,22.7745819 5.92833919,22.005529 5.92833919,22.005529 L1.6701142,18.5840099 C1.6701142,18.5840099 2.23139905,14.7566657 2.28217223,14.4839391 C2.64624739,12.528321 3.74338153,7.90895006 3.74338153,7.90895006 Z" id="Path-7" fill="#472705" transform="translate(11.986927, 14.906527) rotate(7.000000) translate(-11.986927, -14.906527) "></path>
                                <path d="M3.48600098,22.1365164 C3.48600098,22.1365164 9.07184551,22.0413959 12.0046469,22.4546512 C14.9359157,22.8676905 20.4988773,24.6270776 20.4988773,24.6270776" id="Path-8" stroke="#FF9826" stroke-width="0.7875" stroke-linecap="round" stroke-dasharray="1.3125" transform="translate(11.992439, 23.377071) rotate(-344.000000) translate(-11.992439, -23.377071) "></path>
                            </g>
                            <g id="Group-5" transform="translate(70.860759, 56.426877)">
                                <path d="M3.22097531,10.0195597 C3.355547,9.30970013 3.98146825,8.45255296 4.61453741,8.10861401 C4.61453741,8.10861401 9.00922463,5.70376359 11.3582249,4.54340192 C13.3116884,3.57842795 18.1563365,1.91328628 18.1563365,1.91328628 L21.893744,2.33582628 C21.893744,2.33582628 20.5733758,7.79541977 21.893744,17.4971642 C22.5370751,22.2242047 25.9972019,32.8459605 26.6158317,36.9573341 C26.982058,39.3912505 27.4354331,43.0173171 27.4354331,43.0173171 L26.0074131,44.8731479 C26.0074131,44.8731479 24.4607464,46.8740325 23.2984801,49.0744663 C22.1362137,51.2749002 21.2472167,53.8852796 21.2472167,53.8852796 L10.6580138,55.0152974 C10.6580138,55.0152974 9.29185866,52.0375948 6.27961478,48.7428024 C3.2673709,45.44801 0.0522586438,43.4147221 0.0522586438,43.4147221 C0.0522586438,43.4147221 0.219521532,32.6025449 0.769564144,25.866345 C1.22331664,20.3093801 3.22097531,10.0195597 3.22097531,10.0195597 Z" id="Rectangle-16" fill="#894D0B"></path>
                                <path d="M3.23061491,9.88412015 C3.35936407,9.17397308 3.97540821,8.32381947 4.62428481,7.97752164 C4.62428481,7.97752164 9.07075288,5.57754784 11.3471274,4.54408987 C13.5526436,3.54280108 18.1077928,1.94998668 18.1077928,1.94998668 L22.0533395,2.41642895 C22.0533395,2.41642895 21.2843187,4.54408987 21.2843187,8.59828514 C21.2843187,10.3685224 21.3581138,13.3900827 21.7195626,16.0960998 C21.8665747,17.1967181 22.168381,18.9373709 22.4418026,20.1358656 C22.8004315,21.7078511 24.4033984,27.8721218 24.4033984,27.8721218 C24.4033984,27.8721218 13.3488665,23.9085522 7.24208891,23.626165 C1.13531134,23.3437779 0.78696901,25.2299264 0.78696901,25.2299264 C0.78696901,25.2299264 1.7766177,17.7650663 2.43700669,14.2178079 C2.80108185,12.2621898 3.23061491,9.88412015 3.23061491,9.88412015 Z" id="Path-7" fill="#472705"></path>
                                <path d="M26.2601501,44.4994877 L28.1571243,41.9162808 L20.16848,49.6256599 L11.4492871,50.7646713 L0.0876439669,43.390208 C0.0876439669,43.390208 3.83119362,46.1059335 5.70578452,48.1772113 C7.33681724,49.9793762 10.6045148,55.0105362 10.6045148,55.0105362 C10.6045148,55.0105362 14.5350883,54.6375241 16.5061921,54.4315749 C18.0848902,54.2666259 21.2539205,53.8978417 21.2539205,53.8978417 C21.2539205,53.8978417 22.6963058,50.2102155 23.9457877,48.0066859 C24.7571463,46.5758105 26.2601501,44.4994877 26.2601501,44.4994877 Z" id="Path-6" fill-opacity="0.221807065" fill="#4D3112"></path>
                                <path d="M21.452065,6.61906634 C23.1260957,10.2286211 27.4326553,12.1597254 28.8686568,13.1909595 C31.8165837,15.3079507 35.4575267,16.6037121 35.4575267,16.6037121 C35.4575267,16.6037121 38.1938353,15.4549387 37.8435351,14.3989671 C37.7101275,13.9968132 36.641105,13.6970431 33.8541819,10.4230738 C28.2957314,4.30810354 23.8146373,2.45824494 23.8146373,2.45824494 L21.8965894,2.30782351 C21.8965894,2.30782351 20.6507827,4.8913369 21.452065,6.61906634 Z" id="Path-9" fill="#5E7BAA"></path>
                                <path d="M1.47605363,23.5134299 C1.47605363,23.5134299 4.47848416,22.4202359 7.67693245,22.8272156 C15.5440324,23.4489104 23.4065563,26.60025 23.4065563,26.60025" id="Path-8" stroke="#FF9826" stroke-width="0.7875" stroke-linecap="round" stroke-dasharray="1.3125"></path>
                                <path d="M41.5985475,5.30681338 C44.6590472,8.88930312 47.5791379,10.8474724 49.0151393,11.8787065 C51.9630662,13.9956978 56.1041895,16.710914 56.1041895,16.710914 C56.1041895,16.710914 57.3477918,14.6922806 56.9974915,13.636309 C56.7171649,12.7912711 47.9031439,4.46228914 45.7604549,2.4244524 C45.5395805,2.21438647 45.4918793,1.78831792 45.4513306,1.44401328 C45.3783488,0.824313888 45.4513306,0.266255935 45.4513306,0.266255935 C45.4513306,0.266255935 44.5197324,-0.176781929 43.4687795,0.266255935 C41.7105557,1.00744967 39.6830242,3.06458395 41.5985475,5.30681338 Z" id="Path-9" fill="#5E7BAA" transform="translate(48.941875, 8.390132) scale(-1, 1) translate(-48.941875, -8.390132) "></path>
                            </g>
                        </g>
                    </g>
                    <g id="Group-Copy" transform="translate(125.287123, 115.284861) rotate(-35.000000) translate(-125.287123, -115.284861) translate(19.652102, 49.016086)">
                        <g id="Group" transform="translate(0.000000, 56.426877)">
                            <mask id="mask-4" fill="white">
                                <use xlink:href="#path-3"></use>
                            </mask>
                            <use id="Mask" fill="#B56A1F" xlink:href="#path-3"></use>
                            <path d="M145.468622,5.10336684 L158.375036,3.73157618 C158.375036,3.73157618 182.295661,11.3237188 172.396361,22.0924248 C162.49706,32.8611309 148.354601,36.6735523 134.111981,38.3832514 C119.869361,40.0929506 145.468622,5.10336684 145.468622,5.10336684 Z" id="Rectangle-5" fill="#985512" mask="url(#mask-4)"></path>
                        </g>
                        <path d="M90.4105955,0.87490301 C98.5994081,-2.22156537 109.734818,9.70348893 116.840469,6.32919904 C122.230141,3.76978285 118.71586,-1.94645253 128.059281,0.87490301 C135.020668,2.9769756 137.393815,6.52011955 144.525038,20.9830008 C151.656261,35.445882 159.816495,71.1778197 159.816495,71.1778197 C159.816495,71.1778197 132.305853,82.007695 106.704232,82.007695 C81.1026112,82.007695 57.7383966,71.1778197 57.7383966,71.1778197 C57.7383966,71.1778197 63.5628275,37.194076 72.5006923,20.9830008 C81.4385571,4.77192556 84.5985613,3.07263069 90.4105955,0.87490301 Z" id="Rectangle-3" fill="#B56A1F"></path>
                        <path d="M135.259118,14.2275308 C135.629013,13.6086843 136.30634,13.5650028 136.715085,14.159044 C136.715085,14.159044 138.383288,15.6295351 138.698334,20.6533987 C138.859014,23.2156806 138.504235,26.4212988 137.849833,28.8690784 C137.221149,31.2206579 136.439459,32.7810068 136.439459,32.7810068 C136.14406,33.4391648 135.67523,33.4393181 135.414187,32.753989 C135.414187,32.753989 133.835253,29.6536517 133.835253,23.4925137 C133.835253,21.0865108 133.921696,18.5714341 134.229299,17.0863821 C134.709387,14.768608 135.259118,14.2275308 135.259118,14.2275308 Z" id="Rectangle-4" fill="#A35C1E" transform="translate(136.286006, 23.498601) rotate(-11.000000) translate(-136.286006, -23.498601) "></path>
                        <path d="M97.5072079,11.9710079 C98.1552767,11.6480821 99.2383955,11.5898981 99.898391,11.8589414 C99.898391,11.8589414 106.375475,13.9088241 107.363175,18.9326877 C107.866924,21.4949696 106.754657,24.7005878 104.703042,27.1483674 C102.732058,29.4999469 99.6684576,31.5085193 99.6684576,31.5085193 C99.0808619,31.9191303 98.1274745,31.906215 97.56218,31.4572141 C97.56218,31.4572141 92.1169442,27.9329407 92.1169442,21.7718027 C92.1169442,19.3657998 92.3879507,16.8507231 93.3523179,15.3656711 C94.8574405,13.047897 97.5072079,11.9710079 97.5072079,11.9710079 Z" id="Rectangle-4" fill="#A35C1E" transform="translate(99.800294, 21.748483) scale(-1, 1) rotate(9.000000) translate(-99.800294, -21.748483) "></path>
                        <path d="M55.5061555,72.1317178 C55.7852641,70.705547 57.0857685,70.0291828 58.4191211,70.595937 C58.4191211,70.595937 80.5645074,81.0560296 107.66638,81.0560296 C134.768252,81.0560296 158.976787,70.5304553 158.976787,70.5304553 C160.317887,69.9886373 161.678845,70.6947735 162.015484,72.1030996 L163.850686,79.7806552 C164.019054,80.4850251 163.69158,81.4217938 163.116726,81.8619914 C163.116726,81.8619914 161.405063,83.2921205 156.23934,86.6468732 C145.372315,93.7041976 125.52922,97.0348339 107.66638,97.0348339 C96.5623696,97.0348339 80.4729208,95.2781164 71.8169032,91.1914293 C68.9643541,89.8446811 70.6450226,90.8539161 66.8914063,89.0042091 C60.5747575,85.8914908 54.8298384,81.7966153 54.8298384,81.7966153 C54.2387753,81.3876011 53.8743922,80.4695952 54.0135685,79.7584411 L55.5061555,72.1317178 Z" id="Rectangle-2" fill="#C5822A"></path>
                    </g>
                </g>
                <g id="Group-3" transform="translate(170.590717, 238.830040)">
                    <path d="M4.1984325,6.54800846 C6.01025273,6.54800846 6.56118143,5.09247566 6.56118143,3.28063241 C6.56118143,1.46878916 6.01025273,0.00835469375 4.1984325,0.00835469375 C3.05764265,0.00835469375 1.90615604,0.608817593 1.23324446,1.4951272 C0.837427383,2.01646831 0.627982828,2.62723564 0.627982828,3.29827454 C0.627982828,4.21677738 0.978617603,5.12030574 1.66033982,5.70799241 C2.32338622,6.27957936 3.30510345,6.54800846 4.1984325,6.54800846 Z" id="Oval-5" fill="#484747"></path>
                    <ellipse id="Oval-5" fill="#8F8F8F" cx="4.592827" cy="3.28063241" rx="3.28059072" ry="3.28063241"></ellipse>
                </g>
                <path d="M171.380729,243.357416 C171.380729,243.357416 169.027086,243.848294 168.844711,246.927236 C168.662335,250.006177 170.721777,254.482108 170.721777,254.482108 C170.721777,254.482108 171.897719,253.162406 172.582605,250.82163 C173.267492,248.480855 173.427776,245.23366 173.427776,245.23366 C173.427776,245.23366 172.488883,244.717109 172.23351,244.474401 C171.818374,244.079855 171.380729,243.357416 171.380729,243.357416 Z" id="Path-10" fill="#5E7BAA"></path>
                <path d="M179.316086,243.053772 C179.316086,243.053772 176.887951,243.914686 176.671159,247.383099 C176.454367,250.851512 178.902447,255.893626 178.902447,255.893626 C178.902447,255.893626 180.300302,254.406989 181.114434,251.770116 C181.928566,249.133243 182.141659,244.802606 182.141659,244.802606 C182.141659,244.802606 180.88969,244.568238 180.586125,244.294829 C180.092648,243.850374 179.316086,243.053772 179.316086,243.053772 Z" id="Path-10" fill="#5E7BAA" transform="translate(179.399612, 249.473699) scale(-1, 1) rotate(10.000000) translate(-179.399612, -249.473699) "></path>
                <path d="M188.027244,258.207917 L195.361905,256.608398 L200.534216,249.826369 C200.534216,249.826369 198.965262,252.68715 198.021783,254.728115 C197.454639,255.954981 196.002345,259.629861 196.002345,259.629861 C196.002345,259.629861 193.527205,258.909925 192.260759,258.684121 C190.868838,258.435944 188.027244,258.207917 188.027244,258.207917 Z" id="Path-11" fill-opacity="0.199558424" fill="#5B350C"></path>
                <path d="M133.465594,188.964427 L133.345813,188.964427 C131.428788,188.975053 129.480354,189.470253 127.692692,190.503159 C127.580364,190.566918 127.469634,190.634929 127.359968,190.70347 C123.972567,192.810194 122.066722,196.410486 122.037975,200.086759 L122.037975,200.259441 C122.052881,202.066495 122.521889,203.888957 123.493444,205.553614 C125.495114,208.990257 129.13432,210.911015 132.917796,210.938113 L133.075374,210.938113 C134.986543,210.924298 136.927524,210.427505 138.707733,209.400444 C142.296897,207.327194 144.327315,203.620635 144.363515,199.830658 L144.363515,199.623439 C144.345415,197.82223 143.876407,196.007738 142.909643,194.347863 C140.902117,190.904844 137.254925,188.984086 133.465594,188.964427" id="Fill-154" fill="#F2D9C8"></path>
            </g>
        </g>
    </g>
</svg>